<svg width="1512" height="986" viewBox="0 0 1512 986" fill="none" xmlns="http://www.w3.org/2000/svg">
<g clip-path="url(#clip0_378_10507)">
<rect width="1512" height="986" fill="#455A64"/>
<rect width="1512" height="986" fill="#2E3B42"/>
<rect x="66" y="120" width="1380" height="610" fill="#263238"/>
<g filter="url(#filter0_d_378_10507)">
<path d="M389.569 480.674L390.665 480.659C391.734 480.645 392.63 481.328 392.8 482.222L394.904 482.194L394.913 482.744L392.81 482.771C392.672 483.669 391.799 484.376 390.73 484.39L389.634 484.405C388.457 484.42 387.48 483.593 387.462 482.567C387.444 481.541 388.392 480.689 389.569 480.674Z" fill="white"/>
<path d="M389.457 474.263L390.553 474.249C391.622 474.235 392.518 474.918 392.688 475.812L394.791 475.784L394.801 476.333L392.698 476.361C392.559 477.259 391.687 477.966 390.618 477.98L389.521 477.995C388.344 478.01 387.368 477.183 387.35 476.157C387.332 475.131 388.28 474.279 389.457 474.263Z" fill="white"/>
<path d="M389.659 487.04L390.756 487.026C391.825 487.012 392.721 487.695 392.891 488.589L394.751 488.564L394.761 489.113L392.901 489.137C392.762 490.036 391.89 490.743 390.821 490.757L389.725 490.771C388.547 490.787 387.57 489.96 387.552 488.934C387.534 487.908 388.483 487.056 389.659 487.04Z" fill="white"/>
<path d="M411.963 481.9L414.067 481.872C414.205 480.974 415.078 480.267 416.147 480.253L417.243 480.238C418.42 480.223 419.397 481.05 419.415 482.076C419.433 483.102 418.485 483.954 417.308 483.969L416.212 483.984C415.142 483.998 414.246 483.315 414.076 482.421L411.973 482.449L411.963 481.9Z" fill="white"/>
<path d="M411.853 475.497L413.956 475.47C414.095 474.572 414.967 473.864 416.037 473.85L417.133 473.836C418.309 473.82 419.286 474.648 419.305 475.674C419.322 476.7 418.374 477.551 417.198 477.567L416.101 477.582C415.032 477.596 414.136 476.913 413.966 476.019L411.863 476.047L411.853 475.497Z" fill="white"/>
<path d="M412.32 488.33L414.18 488.306C414.319 487.408 415.191 486.7 416.26 486.686L417.356 486.672C418.533 486.656 419.51 487.483 419.528 488.51C419.546 489.536 418.598 490.388 417.421 490.403L416.325 490.418C415.256 490.432 414.36 489.749 414.19 488.855L412.33 488.879L412.32 488.33Z" fill="white"/>
<path d="M414.496 495.315C414.492 495.303 414.488 495.29 414.484 495.278C414.488 495.275 414.491 495.272 414.495 495.269L414.496 495.315Z" fill="#2B2B2B"/>
<path d="M394.785 482.188C394.708 477.731 394.013 473.44 392.799 469.401L403.336 469.262L413.874 469.122C412.801 473.192 412.255 477.499 412.333 481.956C412.414 486.61 413.167 491.083 414.483 495.277C412.438 496.543 411.021 498.518 410.677 500.783L403.886 500.874L397.095 500.963C396.672 498.708 395.188 496.772 393.099 495.559C394.269 491.333 394.866 486.842 394.785 482.188Z" fill="#273942"/>
<path d="M393.055 495.562C393.051 495.575 393.048 495.588 393.044 495.601L393.043 495.554C393.046 495.557 393.051 495.559 393.055 495.562Z" fill="#2B2B2B"/>
<path d="M412.144 591.768C412.144 591.768 434.549 590.545 438.533 605.434C439.743 609.958 438.459 614.219 436.366 617.504C434.272 620.788 429.876 628.348 433.693 633.034C438.074 637.615 453.891 651.479 453.962 666.027C454.13 675.574 453.06 685.756 435.12 695.589C417.18 705.421 386.806 702.248 375.346 694.701C363.887 687.153 354.021 673.073 361.305 655.803C363.376 651.302 367.851 645.842 371.008 642.288C373.005 640.04 375.393 637.909 376.487 636.741C379.134 633.918 382.808 628.039 376.996 620.854C372.572 613.332 370.014 607.737 374.141 603.755C374.366 603.537 375.12 602.873 375.759 603.103C376.988 603.543 378.423 605.242 378.423 605.242C378.423 605.242 381.56 609.839 387.098 609.371C392.636 608.903 397.46 606.372 397.641 597.289C397.548 591.961 412.144 591.768 412.144 591.768Z" fill="#212B30"/>
<path d="M399.147 612.445L412.501 612.269L410.576 501.509L397.221 501.685L399.147 612.445Z" fill="#2E3B42"/>
<path d="M399.147 612.445L412.501 612.269L410.576 501.509L397.221 501.685L399.147 612.445Z" stroke="#37474F" stroke-width="0.570531" stroke-miterlimit="10"/>
<path d="M397.229 502.149L410.583 501.972L410.562 500.788L397.209 500.965L397.229 502.149Z" fill="#37474F"/>
<path d="M397.353 509.255L410.706 509.079L410.701 508.783L397.347 508.959L397.353 509.255Z" fill="#37474F"/>
<path d="M397.488 517.048L410.842 516.872L410.837 516.576L397.483 516.752L397.488 517.048Z" fill="#37474F"/>
<path d="M397.615 524.4L410.969 524.223L410.964 523.928L397.61 524.104L397.615 524.4Z" fill="#37474F"/>
<path d="M397.737 531.407L411.091 531.231L411.086 530.935L397.732 531.112L397.737 531.407Z" fill="#37474F"/>
<path d="M397.852 537.97L411.205 537.794L411.2 537.498L397.846 537.674L397.852 537.97Z" fill="#37474F"/>
<path d="M397.961 544.232L411.315 544.055L411.309 543.76L397.956 543.936L397.961 544.232Z" fill="#37474F"/>
<path d="M398.066 550.302L411.42 550.126L411.415 549.83L398.061 550.006L398.066 550.302Z" fill="#37474F"/>
<path d="M398.162 555.829L411.516 555.653L411.51 555.357L398.157 555.534L398.162 555.829Z" fill="#37474F"/>
<path d="M398.256 561.208L411.609 561.032L411.604 560.736L398.251 560.913L398.256 561.208Z" fill="#37474F"/>
<path d="M398.344 566.29L411.697 566.114L411.692 565.818L398.339 565.995L398.344 566.29Z" fill="#37474F"/>
<path d="M398.43 571.224L411.783 571.047L411.778 570.752L398.424 570.928L398.43 571.224Z" fill="#37474F"/>
<path d="M398.508 575.712L411.861 575.536L411.856 575.24L398.503 575.416L398.508 575.712Z" fill="#37474F"/>
<path d="M398.586 580.2L411.94 580.024L411.934 579.728L398.581 579.905L398.586 580.2Z" fill="#37474F"/>
<path d="M398.653 584.001L412.007 583.825L412.002 583.529L398.648 583.705L398.653 584.001Z" fill="#37474F"/>
<path d="M398.724 588.114L412.077 587.938L412.072 587.642L398.718 587.819L398.724 588.114Z" fill="#37474F"/>
<path d="M398.784 591.642L412.138 591.465L412.133 591.17L398.779 591.346L398.784 591.642Z" fill="#37474F"/>
<path d="M398.846 595.177L412.199 595.001L412.194 594.705L398.841 594.881L398.846 595.177Z" fill="#37474F"/>
<path d="M398.904 598.505L412.258 598.329L412.253 598.033L398.899 598.209L398.904 598.505Z" fill="#37474F"/>
<path d="M398.958 601.564L412.312 601.387L412.306 601.092L398.953 601.268L398.958 601.564Z" fill="#37474F"/>
<path d="M399.012 604.626L412.365 604.45L412.36 604.154L399.007 604.33L399.012 604.626Z" fill="#37474F"/>
<path d="M399.057 607.189L412.41 607.012L412.405 606.717L399.051 606.893L399.057 607.189Z" fill="#37474F"/>
<path d="M399.105 610.001L412.459 609.825L412.454 609.529L399.1 609.705L399.105 610.001Z" fill="#37474F"/>
<path d="M432.1 606.603C432.06 604.315 429.9 602.487 427.275 602.522C424.65 602.557 422.555 604.439 422.595 606.729C422.635 609.017 424.795 610.845 427.419 610.81C430.045 610.775 432.14 608.892 432.1 606.603Z" fill="#37474F"/>
<path d="M427.312 604.595C428.363 604.581 429.255 605.169 429.58 605.991L430.503 605.979C430.908 605.974 431.245 606.259 431.251 606.612C431.257 606.966 430.93 607.259 430.525 607.265L429.603 607.277C429.306 608.106 428.435 608.718 427.384 608.731C426.074 608.748 424.996 607.837 424.976 606.695C424.956 605.553 426.002 604.612 427.312 604.595Z" fill="#212B30"/>
<path d="M395.376 623.992L416.67 623.71C417.928 623.694 418.942 622.782 418.923 621.686L418.793 614.184C418.773 613.087 417.728 612.203 416.47 612.22L395.176 612.502C393.918 612.518 392.904 613.43 392.923 614.527L393.054 622.028C393.073 623.125 394.118 624.009 395.376 623.992Z" fill="black"/>
<path d="M398.186 622.764L413.818 622.557C415.076 622.541 416.09 621.629 416.071 620.532L415.983 615.499C415.964 614.402 414.919 613.518 413.661 613.535L398.029 613.741C396.771 613.758 395.757 614.67 395.776 615.767L395.864 620.8C395.883 621.896 396.928 622.781 398.186 622.764Z" fill="#263238"/>
<path d="M395.835 650.414L417.129 650.132C418.387 650.116 419.401 649.204 419.382 648.108L419.252 640.606C419.232 639.509 418.187 638.625 416.929 638.642L395.635 638.923C394.377 638.94 393.363 639.852 393.382 640.948L393.513 648.45C393.532 649.547 394.577 650.431 395.835 650.414Z" fill="black"/>
<path d="M398.646 649.182L414.278 648.975C415.536 648.959 416.55 648.047 416.531 646.95L416.443 641.918C416.424 640.821 415.379 639.936 414.121 639.953L398.489 640.159C397.231 640.176 396.217 641.088 396.236 642.185L396.324 647.217C396.343 648.314 397.388 649.199 398.646 649.182Z" fill="#263238"/>
<path d="M394.324 655.845L417.394 656.309C418.075 656.322 418.643 655.848 418.659 655.255L418.678 654.526C418.694 653.933 418.15 653.436 417.47 653.422L394.4 652.96C393.719 652.946 393.15 653.419 393.135 654.013L393.115 654.741C393.1 655.335 393.643 655.832 394.324 655.845Z" fill="black"/>
<path d="M389.187 667.696C389.155 665.898 387.458 664.462 385.395 664.489C383.333 664.517 381.686 665.996 381.717 667.795C381.749 669.593 383.446 671.029 385.509 671.002C387.571 670.974 389.218 669.495 389.187 667.696Z" fill="#37474F"/>
<path d="M387.871 667.713C387.851 666.548 386.752 665.618 385.416 665.636C384.08 665.653 383.013 666.611 383.033 667.776C383.054 668.942 384.152 669.872 385.489 669.854C386.825 669.836 387.892 668.878 387.871 667.713Z" fill="#212B30"/>
<path d="M389.451 682.942C389.42 681.144 387.723 679.708 385.66 679.735C383.598 679.763 381.95 681.243 381.982 683.041C382.014 684.839 383.711 686.275 385.773 686.248C387.836 686.22 389.483 684.741 389.451 682.942Z" fill="#37474F"/>
<path d="M388.136 682.959C388.116 681.794 387.017 680.864 385.681 680.882C384.344 680.899 383.278 681.857 383.298 683.022C383.318 684.188 384.417 685.118 385.753 685.1C387.09 685.082 388.157 684.124 388.136 682.959Z" fill="#212B30"/>
<path d="M376.438 676.602C376.406 674.804 374.709 673.368 372.646 673.395C370.584 673.423 368.937 674.903 368.968 676.701C369 678.499 370.697 679.936 372.76 679.908C374.822 679.881 376.469 678.401 376.438 676.602Z" fill="#37474F"/>
<path d="M375.122 676.619C375.102 675.454 374.003 674.524 372.667 674.542C371.331 674.56 370.264 675.517 370.284 676.683C370.305 677.848 371.403 678.778 372.74 678.76C374.076 678.742 375.143 677.784 375.122 676.619Z" fill="#212B30"/>
<path d="M408.979 500.811L408.318 488.681" stroke="#37474F" stroke-width="0.356582" stroke-miterlimit="10"/>
<path d="M406.941 500.842L408.885 482.237" stroke="#37474F" stroke-width="0.356582" stroke-miterlimit="10"/>
<path d="M404.905 500.866L409.453 475.824" stroke="#37474F" stroke-width="0.356582" stroke-miterlimit="10"/>
<path d="M402.867 500.89L397.45 475.979" stroke="#37474F" stroke-width="0.356582" stroke-miterlimit="10"/>
<path d="M400.831 500.92L398.24 482.375" stroke="#37474F" stroke-width="0.356582" stroke-miterlimit="10"/>
<path d="M398.792 500.945L399.03 488.784" stroke="#37474F" stroke-width="0.356582" stroke-miterlimit="10"/>
<path d="M375.494 661.36C375.463 659.562 373.766 658.126 371.703 658.153C369.641 658.181 367.993 659.661 368.025 661.459C368.057 663.257 369.754 664.693 371.816 664.666C373.879 664.638 375.526 663.159 375.494 661.36Z" fill="#37474F"/>
<path d="M374.178 661.377C374.158 660.212 373.059 659.282 371.723 659.3C370.386 659.317 369.32 660.275 369.34 661.44C369.36 662.606 370.459 663.536 371.795 663.518C373.132 663.5 374.199 662.542 374.178 661.377Z" fill="#212B30"/>
<path d="M409.676 488.66C409.665 488.006 409.048 487.484 408.298 487.494C407.548 487.504 406.949 488.042 406.96 488.696C406.971 489.35 407.588 489.872 408.338 489.862C409.088 489.852 409.687 489.314 409.676 488.66Z" fill="#EAEAEA"/>
<path d="M410.243 482.211C410.232 481.557 409.615 481.035 408.865 481.045C408.115 481.055 407.516 481.592 407.528 482.246C407.539 482.9 408.156 483.422 408.906 483.413C409.656 483.403 410.254 482.865 410.243 482.211Z" fill="#EAEAEA"/>
<path d="M410.811 475.805C410.799 475.151 410.182 474.629 409.432 474.639C408.682 474.648 408.084 475.186 408.095 475.84C408.106 476.494 408.723 477.016 409.473 477.006C410.223 476.997 410.822 476.459 410.811 475.805Z" fill="#EAEAEA"/>
<path d="M398.809 475.961C398.797 475.307 398.181 474.785 397.43 474.795C396.68 474.805 396.082 475.342 396.093 475.996C396.104 476.65 396.721 477.172 397.471 477.163C398.221 477.153 398.82 476.615 398.809 475.961Z" fill="#EAEAEA"/>
<path d="M399.599 482.355C399.588 481.701 398.971 481.18 398.221 481.189C397.47 481.199 396.872 481.737 396.883 482.391C396.894 483.045 397.511 483.567 398.261 483.557C399.011 483.547 399.61 483.009 399.599 482.355Z" fill="#EAEAEA"/>
<path d="M400.39 488.785C400.379 488.131 399.762 487.609 399.012 487.619C398.261 487.629 397.663 488.167 397.674 488.821C397.685 489.475 398.302 489.997 399.052 489.987C399.802 489.977 400.401 489.439 400.39 488.785Z" fill="#EAEAEA"/>
<path d="M408.979 500.808L411.819 664.137" stroke="black" stroke-width="0.356582" stroke-miterlimit="10"/>
<path d="M406.942 500.84L409.782 664.168" stroke="black" stroke-width="0.356582" stroke-miterlimit="10"/>
<path d="M404.904 500.863L407.744 664.192" stroke="black" stroke-width="0.356582" stroke-miterlimit="10"/>
<path d="M402.869 500.89L405.709 664.219" stroke="black" stroke-width="0.356582" stroke-miterlimit="10"/>
<path d="M400.83 500.914L403.67 664.243" stroke="black" stroke-width="0.356582" stroke-miterlimit="10"/>
<path d="M398.794 500.945L401.633 664.274" stroke="black" stroke-width="0.356582" stroke-miterlimit="10"/>
<path d="M393.373 667.641L418.868 667.304C419.863 667.29 420.665 666.57 420.649 665.703L420.631 664.638C420.616 663.771 419.79 663.072 418.795 663.085L393.299 663.422C392.304 663.435 391.503 664.156 391.518 665.023L391.537 666.088C391.552 666.955 392.378 667.654 393.373 667.641Z" fill="black"/>
<path d="M419.473 665.188C419.458 664.33 418.648 663.644 417.663 663.658C416.679 663.671 415.893 664.377 415.908 665.235C415.923 666.094 416.733 666.779 417.717 666.766C418.702 666.753 419.488 666.047 419.473 665.188Z" fill="#263238"/>
<path d="M396.197 665.489C396.182 664.631 395.372 663.945 394.387 663.958C393.403 663.971 392.616 664.678 392.632 665.536C392.647 666.394 393.457 667.08 394.441 667.067C395.426 667.054 396.212 666.347 396.197 665.489Z" fill="#263238"/>
<path d="M416.791 665.364L418.592 665.34C418.659 665.34 418.712 665.291 418.712 665.233L418.711 665.161C418.71 665.103 418.654 665.056 418.587 665.057L416.786 665.08C416.719 665.081 416.666 665.129 416.667 665.188L416.668 665.26C416.668 665.318 416.724 665.365 416.791 665.364Z" fill="#455A64"/>
<path d="M393.516 665.673L395.316 665.649C395.383 665.648 395.437 665.6 395.436 665.541L395.435 665.47C395.435 665.411 395.379 665.365 395.312 665.365L393.511 665.389C393.444 665.389 393.391 665.438 393.391 665.496L393.392 665.568C393.393 665.627 393.448 665.673 393.516 665.673Z" fill="#455A64"/>
</g>
<path d="M1079.38 397.443C1079.35 395.923 1081.17 395.12 1082.27 396.169L1089.2 402.768C1089.66 403.21 1090.33 403.356 1090.94 403.145L1099.97 399.997C1101.41 399.496 1102.73 400.979 1102.07 402.351L1097.94 410.975C1097.66 411.553 1097.73 412.238 1098.12 412.749L1103.9 420.366C1104.82 421.577 1103.82 423.297 1102.31 423.095L1092.83 421.827C1092.2 421.742 1091.57 422.019 1091.2 422.546L1085.75 430.402C1084.88 431.651 1082.93 431.23 1082.66 429.734L1080.94 420.326C1080.82 419.695 1080.36 419.182 1079.75 418.997L1070.59 416.234C1069.13 415.795 1068.93 413.816 1070.27 413.093L1078.69 408.547C1079.25 408.242 1079.6 407.647 1079.58 407.006L1079.38 397.443Z" fill="black"/>
<path d="M1077.82 398.131C1077.78 396.61 1079.61 395.808 1080.71 396.857L1087.63 403.455C1088.09 403.898 1088.77 404.043 1089.37 403.832L1098.41 400.684C1099.84 400.184 1101.17 401.667 1100.51 403.038L1096.37 411.663C1096.1 412.241 1096.17 412.926 1096.55 413.436L1102.34 421.054C1103.26 422.265 1102.26 423.984 1100.75 423.782L1091.27 422.514C1090.63 422.429 1090 422.707 1089.64 423.233L1084.18 431.089C1083.31 432.338 1081.37 431.918 1081.1 430.422L1079.37 421.013C1079.26 420.383 1078.8 419.869 1078.18 419.684L1069.03 416.922C1067.57 416.483 1067.37 414.504 1068.71 413.781L1077.12 409.234C1077.69 408.929 1078.03 408.335 1078.02 407.694L1077.82 398.131Z" fill="#212B30"/>
<path d="M1139.37 605.338C1140.35 604.171 1142.25 604.763 1142.39 606.277L1143.27 615.802C1143.33 616.44 1143.74 616.992 1144.33 617.231L1153.21 620.796C1154.62 621.363 1154.64 623.352 1153.25 623.953L1144.46 627.734C1143.87 627.987 1143.47 628.549 1143.43 629.189L1142.78 638.732C1142.68 640.249 1140.8 640.887 1139.79 639.744L1133.48 632.556C1133.06 632.074 1132.4 631.87 1131.78 632.026L1122.5 634.359C1121.03 634.73 1119.84 633.135 1120.62 631.827L1125.5 623.604C1125.83 623.053 1125.82 622.365 1125.48 621.822L1120.4 613.721C1119.59 612.433 1120.74 610.809 1122.22 611.144L1131.55 613.249C1132.18 613.391 1132.83 613.17 1133.24 612.678L1139.37 605.338Z" fill="black"/>
<path d="M1137.74 604.827C1138.72 603.66 1140.62 604.251 1140.76 605.766L1141.64 615.29C1141.7 615.928 1142.11 616.48 1142.7 616.719L1151.58 620.284C1152.99 620.851 1153.01 622.84 1151.62 623.441L1142.83 627.222C1142.24 627.476 1141.84 628.037 1141.8 628.677L1141.15 638.22C1141.05 639.737 1139.16 640.375 1138.16 639.232L1131.85 632.045C1131.43 631.563 1130.77 631.358 1130.15 631.514L1120.87 633.847C1119.4 634.218 1118.21 632.623 1118.99 631.316L1123.87 623.093C1124.2 622.541 1124.19 621.853 1123.85 621.31L1118.76 613.209C1117.96 611.921 1119.11 610.297 1120.59 610.632L1129.92 612.738C1130.54 612.879 1131.2 612.658 1131.61 612.166L1137.74 604.827Z" fill="#212B30"/>
<path d="M1204.55 589.794C1205.84 588.989 1207.46 590.143 1207.12 591.625L1204.99 600.95C1204.85 601.575 1205.07 602.227 1205.56 602.64L1212.88 608.794C1214.04 609.772 1213.45 611.67 1211.93 611.806L1202.41 612.66C1201.77 612.717 1201.21 613.127 1200.97 613.721L1197.38 622.587C1196.81 623.996 1194.82 624.015 1194.23 622.616L1190.47 613.82C1190.22 613.23 1189.66 612.831 1189.02 612.786L1179.48 612.111C1177.96 612.003 1177.33 610.117 1178.47 609.117L1185.68 602.827C1186.16 602.405 1186.37 601.749 1186.21 601.126L1183.91 591.844C1183.54 590.368 1185.14 589.183 1186.44 589.964L1194.65 594.873C1195.2 595.202 1195.89 595.195 1196.44 594.856L1204.55 589.794Z" fill="black"/>
<path d="M1203.16 588.801C1204.45 587.997 1206.07 589.151 1205.73 590.633L1203.6 599.958C1203.46 600.583 1203.67 601.235 1204.16 601.648L1211.49 607.802C1212.65 608.78 1212.05 610.678 1210.54 610.814L1201.01 611.668C1200.37 611.725 1199.82 612.134 1199.58 612.729L1195.99 621.595C1195.42 623.004 1193.43 623.023 1192.83 621.624L1189.08 612.827C1188.83 612.238 1188.26 611.839 1187.63 611.793L1178.08 611.119C1176.57 611.011 1175.93 609.125 1177.08 608.125L1184.29 601.834C1184.77 601.413 1184.98 600.756 1184.82 600.134L1182.51 590.851C1182.15 589.375 1183.75 588.191 1185.05 588.972L1193.26 593.881C1193.81 594.21 1194.5 594.203 1195.04 593.864L1203.16 588.801Z" fill="#212B30"/>
<path d="M1036.1 294.692C1036.79 293.06 1039.11 293.072 1039.78 294.712L1044.01 305.025C1044.29 305.717 1044.93 306.191 1045.68 306.255L1056.78 307.206C1058.55 307.357 1059.25 309.566 1057.9 310.711L1049.4 317.915C1048.83 318.398 1048.58 319.159 1048.74 319.886L1051.27 330.741C1051.67 332.466 1049.79 333.819 1048.28 332.887L1038.8 327.026C1038.17 326.633 1037.37 326.629 1036.73 327.014L1027.18 332.772C1025.67 333.687 1023.8 332.315 1024.22 330.593L1026.87 319.767C1027.04 319.042 1026.8 318.278 1026.23 317.789L1017.81 310.493C1016.47 309.333 1017.2 307.132 1018.97 307L1030.08 306.17C1030.82 306.115 1031.48 305.647 1031.77 304.959L1036.1 294.692Z" fill="black"/>
<path d="M1034.11 294.684C1034.8 293.052 1037.12 293.065 1037.79 294.704L1042.01 305.018C1042.3 305.709 1042.94 306.184 1043.69 306.247L1054.79 307.198C1056.56 307.35 1057.26 309.558 1055.91 310.703L1047.4 317.907C1046.83 318.39 1046.58 319.151 1046.75 319.879L1049.28 330.733C1049.68 332.459 1047.8 333.811 1046.29 332.879L1036.81 327.018C1036.18 326.625 1035.37 326.621 1034.73 327.007L1025.19 332.764C1023.67 333.679 1021.81 332.307 1022.23 330.585L1024.87 319.76C1025.05 319.034 1024.81 318.27 1024.24 317.781L1015.82 310.485C1014.48 309.325 1015.21 307.124 1016.97 306.992L1028.09 306.162C1028.83 306.107 1029.48 305.639 1029.77 304.951L1034.11 294.684Z" fill="#212B30"/>
<path d="M970.049 297.653C970.077 296.747 971.187 296.325 971.81 296.984L975.73 301.132C975.993 301.41 976.389 301.518 976.756 301.411L982.236 299.817C983.107 299.563 983.851 300.488 983.416 301.285L980.683 306.295C980.5 306.63 980.52 307.04 980.735 307.357L983.944 312.076C984.454 312.826 983.804 313.819 982.913 313.652L977.303 312.601C976.927 312.53 976.544 312.676 976.309 312.978L972.813 317.489C972.257 318.206 971.112 317.895 970.995 316.995L970.262 311.336C970.212 310.956 969.955 310.636 969.595 310.507L964.225 308.575C963.371 308.268 963.313 307.083 964.133 306.694L969.289 304.247C969.635 304.083 969.859 303.74 969.871 303.357L970.049 297.653Z" fill="black"/>
<path d="M969.094 298.009C969.122 297.102 970.231 296.681 970.855 297.34L974.775 301.487C975.037 301.765 975.434 301.873 975.801 301.766L981.281 300.172C982.152 299.919 982.896 300.844 982.461 301.64L979.728 306.65C979.545 306.986 979.565 307.396 979.78 307.712L982.989 312.431C983.499 313.181 982.849 314.175 981.957 314.007L976.348 312.956C975.972 312.886 975.589 313.032 975.354 313.334L971.858 317.844C971.302 318.561 970.156 318.25 970.04 317.35L969.306 311.691C969.257 311.312 969 310.992 968.64 310.862L963.27 308.931C962.416 308.624 962.358 307.438 963.178 307.049L968.334 304.603C968.68 304.439 968.904 304.095 968.916 303.713L969.094 298.009Z" fill="#212B30"/>
<path fill-rule="evenodd" clip-rule="evenodd" d="M1125.92 319.709L1125.51 322.068L1125.52 322.076L1117.4 327.179L1117.39 327.176L1114.69 328.876L1114.69 328.879L1106.57 333.978L1103.87 335.678L1106.84 340.413L1113.26 350.634C1113.01 350.727 1112.77 350.847 1112.54 350.994C1110.67 352.167 1110.11 354.633 1111.28 356.5C1112.45 358.368 1114.92 358.93 1116.79 357.757C1118.66 356.583 1119.22 354.118 1118.04 352.25L1118.04 352.242L1118.05 352.239L1109.55 338.713L1117.66 333.613L1124.08 343.818C1123.83 343.911 1123.59 344.029 1123.36 344.174C1121.49 345.348 1120.93 347.813 1122.1 349.681C1123.27 351.548 1125.74 352.111 1127.61 350.937C1129.48 349.764 1130.04 347.298 1128.87 345.431C1128.84 345.387 1128.81 345.344 1128.78 345.302L1120.37 331.913L1128.49 326.81L1134.9 337.015C1134.66 337.108 1134.41 337.227 1134.18 337.373C1132.31 338.547 1131.75 341.012 1132.92 342.88C1134.1 344.747 1136.56 345.31 1138.43 344.136C1140.3 342.963 1140.86 340.497 1139.69 338.63L1139.69 338.629L1128.22 320.368L1125.92 319.709Z" fill="black"/>
<path fill-rule="evenodd" clip-rule="evenodd" d="M1110.96 349.945L1104.53 339.724L1101.56 334.99L1104.27 333.29L1125.91 319.689L1128.89 324.423L1128.88 324.425L1137.31 337.841C1137.34 337.878 1137.36 337.916 1137.39 337.955C1138.56 339.823 1138 342.288 1136.13 343.462C1134.26 344.635 1131.8 344.073 1130.62 342.205C1129.45 340.338 1130.01 337.872 1131.88 336.699C1132.11 336.553 1132.35 336.435 1132.6 336.342L1126.18 326.125L1118.06 331.226L1126.56 344.757L1126.56 344.758L1126.56 344.762C1127.74 346.63 1127.17 349.095 1125.3 350.269C1123.44 351.442 1120.97 350.88 1119.8 349.012C1118.62 347.144 1119.19 344.679 1121.06 343.505C1121.29 343.36 1121.53 343.24 1121.78 343.147L1115.35 332.926L1107.24 338.024L1115.74 351.55L1115.73 351.553L1115.74 351.561C1116.91 353.429 1116.35 355.894 1114.48 357.068C1112.61 358.241 1110.15 357.679 1108.97 355.811C1107.8 353.944 1108.36 351.478 1110.23 350.305C1110.47 350.158 1110.71 350.038 1110.96 349.945Z" fill="#212B30"/>
<path fill-rule="evenodd" clip-rule="evenodd" d="M1119.74 458.001L1111.18 453.686L1104.02 467.895C1104.01 467.914 1104 467.932 1103.99 467.951C1103 469.921 1100.6 470.713 1098.63 469.72C1096.66 468.727 1095.86 466.326 1096.86 464.356C1097.85 462.386 1100.25 461.594 1102.22 462.587C1102.46 462.71 1102.69 462.855 1102.9 463.018L1108.32 452.248L1099.76 447.934L1092.57 462.198L1092.57 462.197L1092.57 462.201C1091.58 464.17 1089.18 464.962 1087.21 463.969C1085.24 462.977 1084.44 460.575 1085.44 458.606C1086.43 456.636 1088.83 455.844 1090.8 456.837C1091.05 456.96 1091.27 457.105 1091.48 457.269L1096.91 446.495L1096.91 446.494L1099.42 441.501L1099.42 441.503L1099.43 441.501L1102.28 442.939L1102.28 442.941L1122.26 453.011L1124.48 452.141L1125.11 454.452L1115.4 473.71L1115.4 473.709C1114.41 475.673 1112.01 476.462 1110.04 475.471C1108.07 474.478 1107.28 472.077 1108.27 470.107C1109.26 468.137 1111.66 467.345 1113.63 468.338C1113.88 468.462 1114.11 468.607 1114.31 468.771L1119.74 458.001Z" fill="black"/>
<path fill-rule="evenodd" clip-rule="evenodd" d="M1113.07 446.375L1110.22 444.937L1110.22 444.94L1101.66 440.627L1101.66 440.626L1098.8 439.188L1098.8 439.189L1098.8 439.188L1096.29 444.18L1096.29 444.182L1090.86 454.955C1090.65 454.792 1090.42 454.647 1090.18 454.523C1088.21 453.53 1085.81 454.322 1084.82 456.292C1083.82 458.261 1084.62 460.663 1086.59 461.656C1088.56 462.648 1090.96 461.857 1091.95 459.887L1091.95 459.883L1091.95 459.884L1099.14 445.62L1107.7 449.933L1102.27 460.703C1102.07 460.54 1101.84 460.396 1101.6 460.272C1099.63 459.28 1097.23 460.072 1096.23 462.041C1095.24 464.011 1096.03 466.412 1098 467.405C1099.97 468.398 1102.38 467.606 1103.37 465.636C1103.38 465.619 1103.38 465.603 1103.39 465.586L1110.56 451.371L1119.12 455.686L1113.69 466.456C1113.48 466.292 1113.26 466.147 1113.01 466.024C1111.04 465.031 1108.64 465.823 1107.65 467.792C1106.66 469.762 1107.45 472.164 1109.42 473.156C1111.39 474.149 1113.79 473.358 1114.78 471.39L1114.78 471.39L1124.49 452.132L1124.49 452.131L1124.49 452.131L1113.07 446.378L1113.07 446.375Z" fill="#212B30"/>
<path fill-rule="evenodd" clip-rule="evenodd" d="M1077.18 249.988L1076.41 252.254L1076.41 252.26L1067.59 256.019L1067.59 256.011L1064.65 257.264L1064.65 257.272L1055.83 261.032L1052.89 262.285L1055.08 267.428L1059.81 278.526C1059.55 278.579 1059.29 278.658 1059.04 278.766C1057.01 279.631 1056.07 281.977 1056.93 284.006C1057.8 286.035 1060.15 286.978 1062.18 286.113C1064.2 285.248 1065.15 282.902 1064.28 280.873L1064.27 280.843L1058.02 266.175L1066.84 262.415L1071.57 273.505C1071.31 273.558 1071.05 273.637 1070.8 273.745C1068.77 274.61 1067.83 276.956 1068.69 278.985C1069.56 281.014 1071.9 281.957 1073.93 281.092C1075.96 280.227 1076.91 277.881 1076.04 275.852L1076.04 275.85L1076.04 275.849L1069.78 261.162L1078.6 257.403L1083.33 268.489C1083.07 268.542 1082.81 268.621 1082.56 268.728C1080.53 269.593 1079.59 271.939 1080.45 273.968C1081.32 275.997 1083.66 276.941 1085.69 276.076C1087.72 275.211 1088.67 272.865 1087.8 270.836C1087.79 270.81 1087.78 270.784 1087.77 270.758L1079.34 251.001L1077.18 249.988Z" fill="black"/>
<path fill-rule="evenodd" clip-rule="evenodd" d="M1065.42 254.99L1062.48 256.243L1062.48 256.252L1053.66 260.013L1050.72 261.266L1052.91 266.41L1057.64 277.507C1057.38 277.56 1057.12 277.64 1056.87 277.747C1054.84 278.612 1053.9 280.958 1054.76 282.987C1055.63 285.016 1057.97 285.959 1060 285.094C1062.03 284.229 1062.98 281.883 1062.11 279.854L1062.1 279.824L1055.85 265.157L1064.67 261.395L1069.4 272.484C1069.14 272.537 1068.88 272.616 1068.63 272.723C1066.6 273.588 1065.66 275.934 1066.52 277.963C1067.39 279.992 1069.74 280.936 1071.76 280.071C1073.79 279.206 1074.74 276.86 1073.87 274.831L1073.86 274.799L1067.61 260.142L1076.43 256.383L1081.16 267.479C1080.9 267.532 1080.65 267.611 1080.39 267.719C1078.36 268.584 1077.42 270.93 1078.28 272.959C1079.15 274.988 1081.5 275.931 1083.53 275.066C1085.55 274.201 1086.5 271.855 1085.63 269.826C1085.63 269.823 1085.63 269.821 1085.63 269.818L1085.63 269.818L1077.18 249.979L1074.24 251.232L1074.24 251.24L1065.42 254.999L1065.42 254.99Z" fill="#212B30"/>
<path fill-rule="evenodd" clip-rule="evenodd" d="M1289.1 451.01L1279.85 448.753L1276.86 454.496L1276.86 454.496L1271.14 465.467C1270.52 464.568 1269.68 463.803 1268.64 463.263C1265.24 461.491 1261.05 462.81 1259.28 466.208C1257.51 469.606 1258.83 473.797 1262.22 475.568C1265.62 477.34 1269.81 476.022 1271.59 472.623C1271.62 472.561 1271.65 472.499 1271.68 472.436L1280.14 456.207L1286.7 459.629L1289.7 453.886L1289.1 451.01Z" fill="black"/>
<path fill-rule="evenodd" clip-rule="evenodd" d="M1270.55 462.588L1276.27 451.617L1279.27 445.874L1282.55 447.585L1289.11 451.007L1286.12 456.749L1279.55 453.328L1271.12 469.496C1271.08 469.58 1271.04 469.664 1271 469.747C1269.23 473.145 1265.04 474.463 1261.64 472.692C1258.24 470.92 1256.92 466.729 1258.69 463.331C1260.46 459.933 1264.66 458.614 1268.05 460.386C1269.09 460.926 1269.93 461.69 1270.55 462.588Z" fill="#212B30"/>
<path fill-rule="evenodd" clip-rule="evenodd" d="M1152.25 545.763L1152.25 545.764L1153.94 552.016L1153.94 552.016L1157.17 563.947C1156.1 563.706 1154.96 563.714 1153.83 564.019C1150.13 565.018 1147.94 568.827 1148.94 572.527C1149.94 576.227 1153.75 578.416 1157.45 577.417C1161.15 576.418 1163.34 572.608 1162.34 568.909L1162.32 568.849L1157.52 551.051L1164.66 549.122L1162.97 542.869L1160.58 541.161L1152.27 545.752L1152.25 545.757L1152.25 545.763Z" fill="black"/>
<path fill-rule="evenodd" clip-rule="evenodd" d="M1154.78 562.224L1151.56 550.299L1149.87 544.047L1153.44 543.082L1160.59 541.152L1162.28 547.404L1155.13 549.334L1159.9 566.978C1159.92 567.047 1159.94 567.117 1159.96 567.186C1160.96 570.886 1158.77 574.695 1155.07 575.694C1151.37 576.694 1147.56 574.504 1146.56 570.805C1145.56 567.105 1147.75 563.296 1151.45 562.297C1152.58 561.992 1153.71 561.984 1154.78 562.224Z" fill="#212B30"/>
<path fill-rule="evenodd" clip-rule="evenodd" d="M1018.75 484.211L1018.2 502.627C1018.2 502.655 1018.2 502.683 1018.2 502.71C1018.09 506.541 1014.89 509.554 1011.06 509.44C1007.23 509.327 1004.22 506.129 1004.33 502.299C1004.44 498.468 1007.64 495.455 1011.47 495.569C1012.64 495.603 1013.73 495.925 1014.68 496.464L1015.24 477.625L1015.25 477.626L1024.55 475.63L1026.34 477.957L1026.15 484.431L1018.75 484.211Z" fill="black"/>
<path fill-rule="evenodd" clip-rule="evenodd" d="M1012.9 494.126L1013.27 481.771L1013.46 475.298L1017.16 475.408L1024.56 475.627L1024.37 482.1L1016.97 481.881L1016.42 500.376L1016.42 500.376C1016.3 504.204 1013.1 507.215 1009.28 507.101C1005.45 506.988 1002.43 503.79 1002.55 499.96C1002.66 496.129 1005.86 493.116 1009.69 493.23C1010.86 493.264 1011.95 493.586 1012.9 494.126Z" fill="#212B30"/>
<path fill-rule="evenodd" clip-rule="evenodd" d="M1151.19 362.408L1172.85 375.129L1173.14 376.82L1173.14 376.826L1173.14 376.829L1158.27 399.476L1158.26 399.474C1156.5 402.166 1152.88 402.915 1150.19 401.146C1147.49 399.378 1146.74 395.76 1148.51 393.067C1150.28 390.373 1153.9 389.624 1156.59 391.392C1156.93 391.613 1157.23 391.862 1157.51 392.134L1162.54 384.474L1148.39 375.186L1140.32 387.479C1140.29 387.53 1140.25 387.581 1140.22 387.631C1138.45 390.325 1134.84 391.074 1132.14 389.306C1129.45 387.537 1128.7 383.92 1130.47 381.226C1132.24 378.533 1135.85 377.783 1138.55 379.552C1138.88 379.771 1139.18 380.018 1139.46 380.288L1148.95 365.825L1148.95 365.822L1151.19 362.408ZM1150.63 371.772L1164.78 381.06L1167 377.675L1152.86 368.387L1150.63 371.772Z" fill="black"/>
<path fill-rule="evenodd" clip-rule="evenodd" d="M1150.91 360.706L1154.81 363.268L1172.86 375.118L1172.85 375.124L1172.86 375.127L1157.99 397.774L1157.98 397.773C1156.22 400.464 1152.6 401.212 1149.91 399.444C1147.21 397.675 1146.46 394.058 1148.23 391.364C1150 388.671 1153.62 387.921 1156.31 389.69C1156.65 389.91 1156.95 390.158 1157.23 390.43L1162.25 382.773L1148.11 373.482L1140.1 385.681C1140.05 385.765 1139.99 385.847 1139.94 385.929C1138.17 388.622 1134.56 389.372 1131.86 387.603C1129.17 385.835 1128.42 382.217 1130.19 379.524C1131.96 376.83 1135.57 376.081 1138.27 377.849C1138.6 378.067 1138.9 378.313 1139.17 378.582L1148.67 364.12L1150.91 360.706ZM1150.35 370.068L1164.5 379.359L1166.72 375.973L1152.57 366.682L1150.35 370.068Z" fill="#212B30"/>
<path fill-rule="evenodd" clip-rule="evenodd" d="M1220.85 519.958L1239.84 536.397L1239.82 538.112L1239.82 538.113L1239.82 538.115L1221.08 557.688L1221.08 557.686L1221.08 557.687C1218.85 560.015 1215.16 560.096 1212.83 557.868C1210.5 555.64 1210.42 551.947 1212.65 549.619C1214.88 547.291 1218.57 547.21 1220.9 549.438C1221.19 549.715 1221.44 550.015 1221.66 550.332L1228 543.709L1215.78 532.009L1205.49 542.762L1205.49 542.762C1203.26 545.089 1199.57 545.17 1197.24 542.942C1194.91 540.714 1194.83 537.021 1197.06 534.693C1199.28 532.365 1202.98 532.284 1205.31 534.512C1205.59 534.788 1205.85 535.087 1206.07 535.403L1212.41 528.782L1212.4 528.779L1215.23 525.829L1215.23 525.832L1218.03 522.91L1218.03 522.909L1220.85 519.958ZM1218.6 529.059L1230.83 540.759L1233.62 537.837L1221.4 526.137L1218.6 529.059Z" fill="black"/>
<path fill-rule="evenodd" clip-rule="evenodd" d="M1239.85 536.399L1236.48 533.171L1236.48 533.173L1224.25 521.473L1220.88 518.245L1218.06 521.196L1215.26 524.115L1215.26 524.113L1212.44 527.064L1212.44 527.065L1206.1 533.687C1205.88 533.371 1205.63 533.072 1205.34 532.796C1203.01 530.568 1199.32 530.649 1197.09 532.977C1194.86 535.305 1194.94 538.998 1197.27 541.226C1199.6 543.454 1203.29 543.373 1205.52 541.046L1205.52 541.046L1215.81 530.293L1228.04 541.993L1221.7 548.615C1221.48 548.299 1221.22 547.999 1220.94 547.722C1218.61 545.494 1214.91 545.575 1212.69 547.903C1210.46 550.231 1210.54 553.924 1212.87 556.152C1215.19 558.38 1218.89 558.299 1221.12 555.971L1221.12 555.971L1221.12 555.972L1239.85 536.399ZM1230.86 539.043L1233.65 536.124L1221.43 524.423L1218.64 527.342L1230.86 539.043Z" fill="#212B30"/>
<path fill-rule="evenodd" clip-rule="evenodd" d="M1160.29 257.467L1184.6 263.797L1185.34 265.346L1184.11 269.242L1184.11 269.241L1182.9 273.101L1182.9 273.101L1181.67 276.997L1181.67 276.997L1177.27 290.997C1177.25 291.062 1177.23 291.128 1177.21 291.193C1176.24 294.267 1172.97 295.975 1169.89 295.008C1166.82 294.041 1165.11 290.765 1166.08 287.692C1167.05 284.618 1170.32 282.91 1173.39 283.877C1173.77 283.996 1174.13 284.151 1174.47 284.337L1177.22 275.597L1161.08 270.519L1156.64 284.647C1156.63 284.669 1156.62 284.691 1156.62 284.713C1155.65 287.787 1152.37 289.495 1149.3 288.528C1146.22 287.561 1144.52 284.285 1145.48 281.211C1146.45 278.138 1149.73 276.43 1152.8 277.397C1153.18 277.517 1153.54 277.672 1153.88 277.858L1156.63 269.119L1156.63 269.118L1157.85 265.223L1157.85 265.223L1160.29 257.471L1160.29 257.471L1160.29 257.467ZM1162.31 266.624L1178.44 271.701L1179.66 267.84L1163.52 262.763L1162.31 266.624Z" fill="black"/>
<path fill-rule="evenodd" clip-rule="evenodd" d="M1159.56 255.901L1164.01 257.302L1184.6 263.78L1184.6 263.782L1184.6 263.782L1182.16 271.543L1182.16 271.544L1180.94 275.44L1180.94 275.439L1176.47 289.628L1176.47 289.627L1176.47 289.63C1175.51 292.704 1172.23 294.412 1169.16 293.445C1166.08 292.478 1164.37 289.202 1165.34 286.128C1166.31 283.054 1169.58 281.347 1172.66 282.313C1173.04 282.433 1173.4 282.589 1173.74 282.775L1176.48 274.038L1160.34 268.961L1155.91 283.045C1155.9 283.082 1155.89 283.119 1155.88 283.155C1154.91 286.229 1151.64 287.937 1148.56 286.97C1145.49 286.003 1143.78 282.728 1144.75 279.654C1145.71 276.58 1148.99 274.872 1152.06 275.839C1152.45 275.959 1152.81 276.114 1153.14 276.3L1158.33 259.797L1159.56 255.901ZM1161.57 265.065L1177.71 270.142L1178.93 266.276L1162.79 261.198L1161.57 265.065Z" fill="#212B30"/>
<path fill-rule="evenodd" clip-rule="evenodd" d="M1002.15 420.951L1002.15 420.952L1003.32 424.876L1003.32 424.876L1008.29 441.49C1007.91 441.525 1007.52 441.599 1007.13 441.714C1004.04 442.639 1002.28 445.9 1003.2 448.996C1004.13 452.092 1007.39 453.851 1010.49 452.926C1013.58 452 1015.34 448.74 1014.42 445.644L1014.42 445.638L1014.42 445.638L1007.81 423.535L1024.07 418.673L1029.04 435.29C1028.65 435.325 1028.26 435.398 1027.88 435.514C1024.78 436.439 1023.02 439.7 1023.95 442.796C1024.87 445.892 1028.13 447.651 1031.23 446.726C1034.33 445.8 1036.09 442.54 1035.16 439.443L1035.16 439.438L1035.16 439.437L1027.38 413.404L1027.37 413.407L1025.6 412.728L1002.27 420.907L1002.15 420.945L1002.15 420.951Z" fill="black"/>
<path fill-rule="evenodd" clip-rule="evenodd" d="M1021.11 414.065L1025.6 412.724L1033.38 438.757L1033.38 438.757L1033.38 438.758C1034.3 441.854 1032.54 445.114 1029.45 446.04C1026.35 446.966 1023.09 445.206 1022.16 442.11C1021.24 439.014 1023 435.753 1026.09 434.828C1026.48 434.713 1026.87 434.639 1027.25 434.604L1022.28 417.993L1006.02 422.854L1012.57 444.758C1012.59 444.822 1012.61 444.887 1012.63 444.952C1013.56 448.048 1011.8 451.309 1008.7 452.234C1005.6 453.16 1002.34 451.401 1001.42 448.304C1000.49 445.208 1002.25 441.948 1005.35 441.022C1005.73 440.908 1006.12 440.834 1006.5 440.799L1001.54 424.195L1000.36 420.271L1004.85 418.93L1021.11 414.069L1021.11 414.065Z" fill="#212B30"/>
<path fill-rule="evenodd" clip-rule="evenodd" d="M1020.2 326.513L999.716 312.452L997.243 315.717L997.247 315.72L986.774 329.544C986.518 329.254 986.23 328.985 985.91 328.742C983.333 326.79 979.663 327.296 977.712 329.872C975.76 332.448 976.267 336.118 978.843 338.07C981.419 340.021 985.088 339.516 987.04 336.942L987.042 336.943L1000.98 318.547L1014.5 328.793L1004.03 342.619C1003.77 342.33 1003.49 342.061 1003.17 341.819C1000.59 339.868 996.921 340.374 994.97 342.949C993.018 345.525 993.525 349.196 996.101 351.147C998.677 353.099 1002.35 352.593 1004.3 350.017L1004.3 350.014L1004.3 350.014L1020.71 328.356L1020.71 328.354L1020.71 328.354L1020.2 326.513Z" fill="black"/>
<path fill-rule="evenodd" clip-rule="evenodd" d="M1002.95 313.435L999.221 310.608L996.748 313.873L986.278 327.693C986.023 327.403 985.735 327.134 985.415 326.892C982.839 324.941 979.169 325.447 977.218 328.022C975.266 330.598 975.773 334.268 978.349 336.22C980.924 338.171 984.592 337.666 986.544 335.093L986.545 335.093L1000.48 316.7L1014.01 326.949L1003.54 340.77C1003.28 340.481 1003 340.212 1002.68 339.969C1000.1 338.018 996.429 338.524 994.477 341.1C992.526 343.676 993.032 347.346 995.608 349.297C998.184 351.248 1001.85 350.743 1003.8 348.17L1003.81 348.17L1020.21 326.512L1020.21 326.51L1020.21 326.51L1002.95 313.435Z" fill="#212B30"/>
<path d="M-200 -10H1712L1446.02 120H66.0311L-200 -10Z" fill="#263238"/>
<rect y="900" width="1512" height="86" fill="#212B30"/>
<path d="M66.0098 730H1446L1712 900H-199.999L66.0098 730Z" fill="#212B30"/>
<path d="M645.456 724.484L640.942 711.69C640.365 710.057 638.574 709.2 636.94 709.777C635.308 710.354 634.452 712.144 635.028 713.777L636.158 716.98L626.94 719.457L628.565 725.516L638.252 722.913L639.543 726.571C640.119 728.204 641.911 729.061 643.544 728.484C645.176 727.907 646.033 726.116 645.456 724.484Z" fill="#212B30"/>
<path d="M635.532 700.394C637.165 699.817 638.021 698.027 637.445 696.394L632.93 683.6C632.353 681.967 630.562 681.11 628.929 681.687C627.296 682.264 626.44 684.055 627.016 685.687L628.23 689.126L621.832 691.383L623.921 697.299L630.317 695.042L631.531 698.481C632.107 700.115 633.899 700.971 635.532 700.394Z" fill="#212B30"/>
<path d="M614.069 729.003L623.478 728.838L623.368 722.566L613.96 722.73C612.227 722.761 610.848 724.189 610.878 725.921C610.908 727.653 612.337 729.033 614.069 729.003Z" fill="#212B30"/>
<path d="M613.851 716.46L623.26 716.295L623.15 710.023L613.742 710.187C612.01 710.218 610.63 711.646 610.66 713.378C610.691 715.11 612.119 716.49 613.851 716.46Z" fill="#212B30"/>
<path d="M693.902 809.172C686.776 788.288 680.644 768.621 683.616 759.158C685.717 752.466 694.026 748.7 694.026 748.7L660.479 723.278C651.941 734.163 652.557 750.971 654.596 763.907C657.352 781.391 666.307 797.056 672.929 813.24C674.244 816.453 672.896 820.139 669.818 821.745C666.146 823.663 661.631 821.835 660.326 817.903C654.672 798.803 649.019 779.703 643.365 760.603C639.012 745.898 634.659 731.193 630.306 716.488C626.246 702.773 623.918 686.774 612.106 677.403C601.079 668.656 588.555 669.843 575.395 670.074L575.56 679.482C583.18 679.349 592.213 677.722 599.316 680.869C602.942 682.476 606.33 684.745 608.841 687.814C613.037 692.942 614.118 699.369 615.425 705.653C616.888 712.698 618.626 719.709 620.212 726.732C621.086 730.602 621.96 734.472 622.835 738.343L638.322 806.914C638.614 808.207 638.906 809.5 639.198 810.793C642.216 824.156 644.602 837.285 658.512 843.882C668.805 848.763 683.257 848.054 690.807 838.692C697.411 830.502 697.143 818.668 693.902 809.172Z" fill="#2E3B42"/>
<path d="M672.929 813.239C674.244 816.452 672.896 820.138 669.819 821.744C669.534 821.893 669.239 821.978 668.947 822.083C670.585 822.607 672.42 822.542 674.091 821.67C677.169 820.063 678.517 816.377 677.202 813.164C670.58 796.98 661.624 781.315 658.868 763.831C656.959 751.722 656.301 736.221 663.227 725.36L660.479 723.277C651.941 734.163 652.557 750.971 654.596 763.906C657.352 781.39 666.308 797.055 672.929 813.239Z" fill="black" fill-opacity="0.5"/>
<path d="M662.783 843.808C648.872 837.211 646.486 824.082 643.468 810.718C643.176 809.425 642.884 808.132 642.592 806.839L627.105 738.269C626.231 734.398 625.357 730.528 624.482 726.657C622.896 719.635 621.159 712.623 619.695 705.579C618.389 699.295 617.307 692.867 613.112 687.74C610.6 684.671 607.212 682.401 603.586 680.794C599.096 678.805 593.835 678.725 588.646 678.968C592.391 679.008 596.057 679.426 599.314 680.869C602.939 682.476 606.328 684.745 608.839 687.815C613.034 692.942 614.116 699.369 615.422 705.654C616.886 712.698 618.624 719.709 620.21 726.732C621.084 730.602 621.958 734.473 622.832 738.343L638.319 806.914C638.612 808.207 638.904 809.5 639.195 810.793C642.214 824.156 644.6 837.286 658.51 843.882C663.336 846.171 669.073 847.21 674.588 846.725C670.46 846.511 666.368 845.508 662.783 843.808Z" fill="black" fill-opacity="0.5"/>
<path d="M630.025 744.412C629.965 740.948 627.108 738.189 623.643 738.25C620.179 738.31 617.42 741.168 617.481 744.632C617.541 748.096 620.399 750.855 623.863 750.795C627.327 750.734 630.086 747.876 630.025 744.412Z" fill="#212B30"/>
<path d="M630.629 778.908C634.093 778.847 636.852 775.99 636.791 772.526C636.731 769.062 633.873 766.302 630.409 766.363C626.945 766.424 624.186 769.281 624.246 772.745C624.307 776.209 627.164 778.968 630.629 778.908Z" fill="#212B30"/>
<path d="M643.558 800.643C643.497 797.178 640.64 794.42 637.176 794.48C633.711 794.541 630.952 797.398 631.013 800.862C631.074 804.326 633.931 807.085 637.395 807.025C637.713 807.019 638.016 806.966 638.321 806.915C641.333 806.411 643.613 803.789 643.558 800.643Z" fill="#212B30"/>
<path d="M620.617 744.577C620.566 741.657 622.527 739.191 625.216 738.444C624.709 738.322 624.188 738.24 623.644 738.25C620.179 738.31 617.42 741.168 617.481 744.632C617.541 748.096 620.399 750.855 623.863 750.795C624.408 750.785 624.925 750.685 625.427 750.545C622.714 749.893 620.668 747.496 620.617 744.577Z" fill="#263238"/>
<path d="M627.383 772.69C627.332 769.771 629.293 767.304 631.981 766.557C631.475 766.436 630.954 766.353 630.409 766.363C626.945 766.424 624.186 769.281 624.246 772.745C624.307 776.209 627.164 778.968 630.629 778.908C631.173 778.898 631.691 778.798 632.193 778.659C629.48 778.006 627.434 775.61 627.383 772.69Z" fill="#263238"/>
<path d="M634.15 800.807C634.099 797.888 636.06 795.421 638.749 794.674C638.242 794.553 637.721 794.471 637.177 794.48C633.713 794.541 630.953 797.398 631.014 800.862C631.075 804.326 633.932 807.085 637.396 807.025C637.714 807.019 638.018 806.966 638.322 806.915C638.525 806.881 638.715 806.814 638.911 806.761C636.223 806.091 634.201 803.708 634.15 800.807Z" fill="#263238"/>
<path d="M678.815 771.749C678.712 765.824 673.824 761.103 667.898 761.207C661.972 761.311 657.252 766.199 657.356 772.124C657.459 778.05 662.347 782.77 668.273 782.667C674.199 782.563 678.919 777.675 678.815 771.749Z" fill="#212B30"/>
<path d="M678.168 811.46C684.453 811.35 689.46 806.166 689.35 799.881C689.24 793.596 684.055 788.589 677.77 788.699C671.485 788.809 666.479 793.994 666.589 800.279C666.699 806.564 671.883 811.57 678.168 811.46Z" fill="#212B30"/>
<path d="M669.14 828.424C669.231 833.62 673.517 837.759 678.713 837.668C683.909 837.578 688.048 833.291 687.957 828.095C687.866 822.899 683.58 818.76 678.384 818.851C673.188 818.942 669.049 823.228 669.14 828.424Z" fill="#212B30"/>
<path d="M660.932 772.062C660.839 766.749 664.634 762.3 669.689 761.356C669.103 761.268 668.51 761.196 667.898 761.207C661.972 761.311 657.252 766.199 657.356 772.124C657.459 778.05 662.347 782.77 668.273 782.667C668.886 782.656 669.475 782.564 670.058 782.455C664.973 781.689 661.025 777.375 660.932 772.062Z" fill="#263238"/>
<path d="M670.385 800.212C670.287 794.577 674.312 789.859 679.673 788.857C679.051 788.764 678.423 788.688 677.773 788.699C671.488 788.809 666.482 793.994 666.592 800.279C666.702 806.564 671.886 811.57 678.171 811.46C678.821 811.449 679.446 811.351 680.065 811.236C674.671 810.423 670.484 805.848 670.385 800.212Z" fill="#263238"/>
<path d="M672.277 828.37C672.196 823.71 675.523 819.81 679.956 818.982C679.442 818.904 678.922 818.842 678.385 818.851C673.189 818.942 669.05 823.228 669.141 828.424C669.232 833.62 673.518 837.759 678.714 837.668C679.252 837.659 679.769 837.578 680.28 837.483C675.821 836.811 672.359 833.029 672.277 828.37Z" fill="#263238"/>
<path d="M683.511 753.224C682.714 755.763 682.588 759.054 682.945 762.888C683.057 761.52 683.268 760.264 683.615 759.16C685.716 752.468 694.025 748.702 694.025 748.702L689.645 745.383C687.269 747.162 684.583 749.81 683.511 753.224Z" fill="black" fill-opacity="0.5"/>
<path d="M702.424 748.473C704.259 746.127 703.818 742.733 701.444 740.934L665.44 713.649C663.117 711.889 659.811 712.318 658.015 714.615C656.179 716.961 656.621 720.355 658.995 722.154L694.999 749.438C697.322 751.199 700.628 750.769 702.424 748.473Z" fill="#212B30"/>
<path d="M562.849 670.292L562.904 673.429L553.495 673.593L553.605 679.866L575.558 679.482L575.394 670.073L562.849 670.292Z" fill="#212B30"/>
<path d="M692.511 722.627L686.239 722.776L686.389 729.048L692.66 728.898L692.511 722.627Z" fill="#455A64"/>
<path d="M700.081 704.727L698.892 710.887L705.051 712.076L706.241 705.916L700.081 704.727Z" fill="#455A64"/>
<path d="M712.399 707.111L713.588 700.952L707.428 699.762L706.239 705.922L712.399 707.111Z" fill="#455A64"/>
<path d="M710.021 719.428L711.21 713.268L705.051 712.079L703.861 718.238L710.021 719.428Z" fill="#455A64"/>
<path d="M717.371 714.459L718.56 708.299L712.4 707.11L711.211 713.27L717.371 714.459Z" fill="#455A64"/>
<mask id="mask0_378_10507" style="mask-type:luminance" maskUnits="userSpaceOnUse" x="1011" y="753" width="432" height="217">
<path d="M1011.22 753.836H1442.1V969.627H1011.22V753.836Z" fill="white"/>
</mask>
<g mask="url(#mask0_378_10507)">
<mask id="mask1_378_10507" style="mask-type:alpha" maskUnits="userSpaceOnUse" x="1011" y="753" width="432" height="217">
<path d="M1226.66 969.615C1107.67 969.615 1011.22 921.31 1011.22 861.72C1011.22 802.131 1107.67 753.824 1226.66 753.824C1345.64 753.824 1442.1 802.131 1442.1 861.72C1442.1 921.31 1345.64 969.615 1226.66 969.615Z" fill="#FF0000"/>
</mask>
<g mask="url(#mask1_378_10507)">
<path d="M1442.1 753.824H1011.22V969.615H1442.1V753.824Z" fill="#263238"/>
</g>
</g>
<mask id="mask2_378_10507" style="mask-type:luminance" maskUnits="userSpaceOnUse" x="1181" y="824" width="141" height="82">
<path d="M1181.5 824.328H1321.53V905.25H1181.5V824.328Z" fill="white"/>
</mask>
<g mask="url(#mask2_378_10507)">
<mask id="mask3_378_10507" style="mask-type:alpha" maskUnits="userSpaceOnUse" x="1181" y="824" width="141" height="82">
<path d="M1251.51 905.25C1212.85 905.25 1181.5 887.135 1181.5 864.788C1181.5 842.443 1212.85 824.328 1251.51 824.328C1290.18 824.328 1321.53 842.443 1321.53 864.788C1321.53 887.135 1290.18 905.25 1251.51 905.25Z" fill="#FF0000"/>
</mask>
<g mask="url(#mask3_378_10507)">
<path d="M1321.53 824.328H1181.5V905.25H1321.53V824.328Z" fill="#2D3A40"/>
</g>
</g>
<mask id="mask4_378_10507" style="mask-type:luminance" maskUnits="userSpaceOnUse" x="1293" y="569" width="121" height="271">
<path d="M1293.27 569.629H1413.59V839.368H1293.27V569.629Z" fill="white"/>
</mask>
<g mask="url(#mask4_378_10507)">
<mask id="mask5_378_10507" style="mask-type:luminance" maskUnits="userSpaceOnUse" x="1293" y="569" width="121" height="271">
<path d="M1293.27 569.625H1413.58V839.364H1293.27V569.625Z" fill="white"/>
</mask>
<g mask="url(#mask5_378_10507)">
<mask id="mask6_378_10507" style="mask-type:luminance" maskUnits="userSpaceOnUse" x="1293" y="646" width="121" height="194">
<path d="M1293.27 646.664H1413.58V839.359H1293.27V646.664Z" fill="white"/>
</mask>
<g mask="url(#mask6_378_10507)">
<mask id="mask7_378_10507" style="mask-type:alpha" maskUnits="userSpaceOnUse" x="1293" y="646" width="121" height="194">
<path d="M1351.14 648.019L1408 680.872C1409.62 681.929 1410.97 683.354 1411.94 685.033C1412.91 686.712 1413.47 688.596 1413.58 690.532V804.594C1413.47 806.53 1412.91 808.416 1411.94 810.094C1410.98 811.773 1409.62 813.198 1408 814.254L1366.84 838.045C1365.11 838.922 1363.2 839.379 1361.27 839.379C1359.33 839.379 1357.42 838.922 1355.69 838.045L1298.84 805.192C1297.22 804.133 1295.86 802.708 1294.89 801.029C1293.93 799.351 1293.37 797.467 1293.26 795.531V681.468C1293.37 679.531 1293.93 677.647 1294.89 675.964C1295.86 674.284 1297.22 672.856 1298.84 671.795L1340 648.019C1341.73 647.142 1343.64 646.684 1345.57 646.684C1347.51 646.684 1349.42 647.142 1351.14 648.019Z" fill="#FF0000"/>
</mask>
<g mask="url(#mask7_378_10507)">
<path d="M1413.58 646.684H1293.26V839.379H1413.58V646.684Z" fill="#2D3A40"/>
</g>
<mask id="mask8_378_10507" style="mask-type:alpha" maskUnits="userSpaceOnUse" x="1293" y="678" width="68" height="161">
<path d="M1358.18 838.115C1359.69 838.115 1360.59 836.88 1360.59 834.814V720.751C1360.49 718.935 1359.96 717.166 1359.06 715.591C1358.15 714.014 1356.88 712.672 1355.36 711.677L1298.51 678.822C1297.86 678.423 1297.12 678.193 1296.36 678.156C1294.86 678.156 1293.95 679.394 1293.95 681.458V795.52C1294.05 797.339 1294.57 799.108 1295.48 800.685C1296.4 802.262 1297.66 803.601 1299.19 804.597L1356.04 837.45C1356.68 837.853 1357.42 838.081 1358.18 838.115Z" fill="#FF0000"/>
</mask>
<g mask="url(#mask8_378_10507)">
<path d="M1360.59 678.156H1293.95V838.116H1360.59V678.156Z" fill="#263238"/>
</g>
<mask id="mask9_378_10507" style="mask-type:alpha" maskUnits="userSpaceOnUse" x="1293" y="677" width="69" height="162">
<path d="M1296.36 677.469C1297.24 677.501 1298.09 677.764 1298.84 678.23L1355.69 711.07C1357.31 712.133 1358.66 713.562 1359.63 715.243C1360.59 716.923 1361.15 718.807 1361.26 720.743V834.805C1361.26 837.319 1360.01 838.786 1358.18 838.786C1357.3 838.754 1356.44 838.493 1355.69 838.027L1298.84 805.174C1297.22 804.115 1295.86 802.689 1294.89 801.01C1293.93 799.332 1293.37 797.448 1293.26 795.512V681.45C1293.26 678.923 1294.52 677.469 1296.36 677.469ZM1296.36 678.829C1294.8 678.829 1294.62 680.663 1294.62 681.45V795.512C1294.73 797.21 1295.23 798.86 1296.08 800.331C1296.93 801.805 1298.11 803.061 1299.52 804.003L1356.37 836.843C1356.91 837.19 1357.53 837.392 1358.18 837.428C1359.74 837.428 1359.9 835.594 1359.9 834.805V720.743C1359.8 719.047 1359.3 717.397 1358.45 715.926C1357.6 714.452 1356.43 713.196 1355.01 712.252L1298.16 679.399C1297.62 679.055 1297 678.86 1296.36 678.829Z" fill="#FF0000"/>
</mask>
<g mask="url(#mask9_378_10507)">
<path d="M1361.26 677.469H1293.26V838.786H1361.26V677.469Z" fill="#2D3A40"/>
</g>
<mask id="mask10_378_10507" style="mask-type:alpha" maskUnits="userSpaceOnUse" x="1361" y="686" width="53" height="153">
<path d="M1366.85 711.067L1408.01 687.29C1411.09 685.51 1413.59 686.951 1413.59 690.51V804.572C1413.48 806.508 1412.92 808.394 1411.95 810.072C1410.99 811.751 1409.63 813.177 1408.01 814.232L1366.85 838.023C1363.77 839.802 1361.27 838.363 1361.27 834.802V720.74C1361.37 718.802 1361.93 716.916 1362.9 715.236C1363.87 713.555 1365.22 712.128 1366.85 711.067Z" fill="#FF0000"/>
</mask>
<g mask="url(#mask10_378_10507)">
<path d="M1413.59 686.527H1361.27V838.786H1413.59V686.527Z" fill="#37474F"/>
</g>
<mask id="mask11_378_10507" style="mask-type:alpha" maskUnits="userSpaceOnUse" x="1296" y="646" width="115" height="67">
<path d="M1340 648.019L1298.84 671.795C1295.76 673.576 1295.76 676.469 1298.84 678.249L1355.7 711.089C1357.42 711.965 1359.33 712.424 1361.27 712.424C1363.21 712.424 1365.12 711.965 1366.84 711.089L1408 687.312C1411.08 685.532 1411.08 682.652 1408 680.872L1351.15 648.019C1349.42 647.142 1347.51 646.684 1345.58 646.684C1343.64 646.684 1341.73 647.142 1340 648.019Z" fill="#FF0000"/>
</mask>
<g mask="url(#mask11_378_10507)">
<path d="M1410.31 646.684H1296.53V712.424H1410.31V646.684Z" fill="#2D3A40"/>
</g>
<mask id="mask12_378_10507" style="mask-type:alpha" maskUnits="userSpaceOnUse" x="1303" y="752" width="48" height="61">
<path d="M1327.28 809.398C1314.34 801.925 1303.86 783.745 1303.86 768.8C1303.86 753.854 1314.34 747.794 1327.28 755.213C1340.22 762.631 1350.7 780.865 1350.7 795.811C1350.7 810.756 1340.2 816.843 1327.28 809.398Z" fill="#FF0000"/>
</mask>
<g mask="url(#mask12_378_10507)">
<path d="M1350.69 752.047H1303.86V812.575H1350.69V752.047Z" fill="#37474F"/>
</g>
<mask id="mask13_378_10507" style="mask-type:alpha" maskUnits="userSpaceOnUse" x="1306" y="755" width="43" height="55">
<path d="M1327.27 806.678C1315.64 799.885 1306.21 783.579 1306.21 770.155C1306.21 756.731 1315.71 751.256 1327.27 757.929C1338.84 764.599 1348.34 781.026 1348.34 794.45C1348.34 807.874 1338.91 813.376 1327.27 806.678Z" fill="#FF0000"/>
</mask>
<g mask="url(#mask13_378_10507)">
<path d="M1348.34 755.086H1306.21V809.532H1348.34V755.086Z" fill="#263238"/>
</g>
<mask id="mask14_378_10507" style="mask-type:alpha" maskUnits="userSpaceOnUse" x="1314" y="766" width="26" height="33">
<path d="M1327.27 796.532C1320.48 792.607 1314.97 783.068 1314.97 775.215C1314.97 767.361 1320.4 764.182 1327.27 768.109C1334.14 772.036 1339.57 781.573 1339.57 789.426C1339.57 797.28 1334.06 800.459 1327.27 796.532Z" fill="#FF0000"/>
</mask>
<g mask="url(#mask14_378_10507)">
<path d="M1339.57 766.426H1314.97V798.215H1339.57V766.426Z" fill="#37474F"/>
</g>
<mask id="mask15_378_10507" style="mask-type:alpha" maskUnits="userSpaceOnUse" x="1323" y="777" width="8" height="11">
<path d="M1327.28 786.521C1326.22 785.821 1325.34 784.884 1324.71 783.785C1324.08 782.688 1323.71 781.456 1323.64 780.19C1323.64 777.853 1325.27 776.901 1327.29 778.07C1328.35 778.768 1329.23 779.704 1329.86 780.804C1330.5 781.903 1330.87 783.135 1330.94 784.401C1330.93 786.738 1329.29 787.649 1327.28 786.521Z" fill="#FF0000"/>
</mask>
<g mask="url(#mask15_378_10507)">
<path d="M1330.94 777.57H1323.64V787.003H1330.94V777.57Z" fill="#455A64"/>
</g>
<mask id="mask16_378_10507" style="mask-type:alpha" maskUnits="userSpaceOnUse" x="1310" y="704" width="35" height="45">
<path d="M1327.27 746.547C1317.77 741.031 1310.01 727.634 1310.01 716.656C1310.01 705.679 1317.73 701.153 1327.27 706.67C1336.82 712.186 1344.54 725.583 1344.54 736.561C1344.54 747.539 1336.8 752.063 1327.27 746.547Z" fill="#FF0000"/>
</mask>
<g mask="url(#mask16_378_10507)">
<path d="M1344.54 704.316H1310V748.9H1344.54V704.316Z" fill="#37474F"/>
</g>
<mask id="mask17_378_10507" style="mask-type:alpha" maskUnits="userSpaceOnUse" x="1311" y="706" width="32" height="41">
<path d="M1327.27 744.594C1318.69 739.635 1311.73 727.569 1311.73 717.652C1311.73 707.733 1318.69 703.712 1327.27 708.67C1335.85 713.629 1342.8 725.695 1342.8 735.614C1342.8 745.532 1335.85 749.554 1327.27 744.594Z" fill="#FF0000"/>
</mask>
<g mask="url(#mask17_378_10507)">
<path d="M1342.8 706.551H1311.73V746.722H1342.8V706.551Z" fill="#263238"/>
</g>
<mask id="mask18_378_10507" style="mask-type:alpha" maskUnits="userSpaceOnUse" x="1318" y="714" width="19" height="25">
<path d="M1327.27 737.118C1324.63 735.393 1322.43 733.07 1320.85 730.336C1319.28 727.602 1318.37 724.536 1318.2 721.384C1318.2 715.596 1322.27 713.232 1327.27 716.139C1329.91 717.863 1332.1 720.189 1333.68 722.921C1335.25 725.654 1336.16 728.722 1336.34 731.872C1336.34 737.661 1332.28 740.011 1327.27 737.118Z" fill="#FF0000"/>
</mask>
<g mask="url(#mask18_378_10507)">
<path d="M1336.34 714.895H1318.2V738.356H1336.34V714.895Z" fill="#37474F"/>
</g>
<mask id="mask19_378_10507" style="mask-type:alpha" maskUnits="userSpaceOnUse" x="1324" y="723" width="6" height="8">
<path d="M1327.28 729.702C1326.49 729.193 1325.83 728.505 1325.36 727.693C1324.89 726.88 1324.61 725.966 1324.56 725.028C1324.56 723.317 1325.77 722.624 1327.28 723.48C1328.06 723.99 1328.72 724.679 1329.19 725.491C1329.67 726.304 1329.94 727.215 1329.99 728.154C1329.96 729.865 1328.76 730.573 1327.28 729.702Z" fill="#FF0000"/>
</mask>
<g mask="url(#mask19_378_10507)">
<path d="M1329.99 723.113H1324.56V730.075H1329.99V723.113Z" fill="#455A64"/>
</g>
<mask id="mask20_378_10507" style="mask-type:alpha" maskUnits="userSpaceOnUse" x="1297" y="684" width="5" height="6">
<path d="M1299.36 684.581C1299.94 684.959 1300.42 685.467 1300.77 686.068C1301.11 686.668 1301.31 687.34 1301.35 688.032C1301.35 689.31 1300.46 689.826 1299.36 689.187C1298.78 688.807 1298.3 688.299 1297.95 687.698C1297.6 687.1 1297.4 686.428 1297.36 685.736C1297.36 684.404 1298.26 683.942 1299.36 684.581Z" fill="#FF0000"/>
</mask>
<g mask="url(#mask20_378_10507)">
<path d="M1301.35 684.297H1297.36V689.461H1301.35V684.297Z" fill="#37474F"/>
</g>
<mask id="mask21_378_10507" style="mask-type:alpha" maskUnits="userSpaceOnUse" x="1352" y="715" width="5" height="7">
<path d="M1354.05 716.185C1354.63 716.561 1355.11 717.071 1355.46 717.669C1355.81 718.27 1356.01 718.943 1356.04 719.636C1356.04 720.912 1355.15 721.43 1354.05 720.791C1353.47 720.409 1352.98 719.899 1352.64 719.296C1352.29 718.694 1352.09 718.019 1352.05 717.326C1352.05 716.062 1352.95 715.546 1354.05 716.185Z" fill="#FF0000"/>
</mask>
<g mask="url(#mask21_378_10507)">
<path d="M1356.04 715.91H1352.05V721.064H1356.04V715.91Z" fill="#37474F"/>
</g>
<mask id="mask22_378_10507" style="mask-type:alpha" maskUnits="userSpaceOnUse" x="1297" y="794" width="5" height="6">
<path d="M1299.36 794.802C1299.94 795.178 1300.42 795.688 1300.77 796.287C1301.12 796.887 1301.31 797.561 1301.35 798.253C1301.35 799.531 1300.46 800.034 1299.36 799.408C1298.77 799.028 1298.29 798.516 1297.95 797.914C1297.6 797.311 1297.4 796.638 1297.36 795.943C1297.36 794.679 1298.26 794.163 1299.36 794.802Z" fill="#FF0000"/>
</mask>
<g mask="url(#mask22_378_10507)">
<path d="M1301.35 794.527H1297.36V799.676H1301.35V794.527Z" fill="#37474F"/>
</g>
<mask id="mask23_378_10507" style="mask-type:alpha" maskUnits="userSpaceOnUse" x="1352" y="826" width="5" height="6">
<path d="M1354.05 826.414C1354.63 826.794 1355.11 827.306 1355.46 827.907C1355.8 828.509 1356.01 829.185 1356.04 829.877C1356.04 831.141 1355.15 831.658 1354.05 831.019C1353.47 830.643 1352.98 830.134 1352.64 829.534C1352.29 828.933 1352.09 828.26 1352.05 827.567C1352.05 826.305 1352.95 825.789 1354.05 826.414Z" fill="#FF0000"/>
</mask>
<g mask="url(#mask23_378_10507)">
<path d="M1356.04 826.148H1352.05V831.293H1356.04V826.148Z" fill="#37474F"/>
</g>
<mask id="mask24_378_10507" style="mask-type:alpha" maskUnits="userSpaceOnUse" x="1376" y="737" width="22" height="51">
<path d="M1392.31 780.982L1382.54 786.634C1379.46 788.414 1376.96 786.973 1376.96 783.413V753.984C1377.06 752.049 1377.62 750.163 1378.59 748.484C1379.56 746.805 1380.91 745.38 1382.54 744.325L1392.31 738.74C1395.39 736.959 1397.89 738.4 1397.89 741.959V771.349C1397.78 773.279 1397.22 775.157 1396.25 776.832C1395.28 778.505 1393.93 779.927 1392.31 780.982Z" fill="#FF0000"/>
</mask>
<g mask="url(#mask24_378_10507)">
<path d="M1397.89 737.977H1376.96V787.397H1397.89V737.977Z" fill="#2D3A40"/>
</g>
<mask id="mask25_378_10507" style="mask-type:alpha" maskUnits="userSpaceOnUse" x="1379" y="741" width="17" height="18">
<path d="M1395.26 743.895C1395.26 741.761 1393.77 740.892 1391.91 741.951L1382.91 747.156C1381.94 747.793 1381.13 748.651 1380.55 749.658C1379.97 750.665 1379.63 751.795 1379.57 752.958V758.161L1395.26 749.098V743.895Z" fill="#FF0000"/>
</mask>
<g mask="url(#mask25_378_10507)">
<path d="M1395.26 741.5H1379.57V758.161H1395.26V741.5Z" fill="#37474F"/>
</g>
<mask id="mask26_378_10507" style="mask-type:alpha" maskUnits="userSpaceOnUse" x="1379" y="767" width="17" height="17">
<path d="M1379.57 781.436C1379.57 783.569 1381.06 784.438 1382.91 783.379L1391.92 778.161C1392.9 777.524 1393.7 776.668 1394.28 775.659C1394.86 774.652 1395.2 773.522 1395.26 772.361V767.156L1379.57 776.219V781.436Z" fill="#FF0000"/>
</mask>
<g mask="url(#mask26_378_10507)">
<path d="M1395.26 767.156H1379.57V783.83H1395.26V767.156Z" fill="#37474F"/>
</g>
</g>
<mask id="mask27_378_10507" style="mask-type:luminance" maskUnits="userSpaceOnUse" x="1297" y="569" width="112" height="136">
<path d="M1297.35 569.621H1408.9V704.422H1297.35V569.621Z" fill="white"/>
</mask>
<g mask="url(#mask27_378_10507)">
<mask id="mask28_378_10507" style="mask-type:alpha" maskUnits="userSpaceOnUse" x="1297" y="569" width="112" height="136">
<path d="M1351 570.852L1403.73 601.3C1405.24 602.278 1406.49 603.599 1407.39 605.156C1408.29 606.712 1408.8 608.459 1408.9 610.254V672.156C1408.81 673.955 1408.29 675.707 1407.39 677.267C1406.49 678.828 1405.24 680.154 1403.73 681.136L1365.59 703.174C1363.99 703.986 1362.22 704.408 1360.43 704.408C1358.63 704.408 1356.87 703.986 1355.26 703.174L1302.58 672.727C1301.08 671.745 1299.83 670.423 1298.93 668.867C1298.03 667.311 1297.52 665.566 1297.42 663.774V601.858C1297.52 600.063 1298.04 598.315 1298.93 596.758C1299.83 595.2 1301.08 593.875 1302.58 592.89L1340.73 570.852C1342.32 570.05 1344.08 569.633 1345.86 569.633C1347.65 569.633 1349.41 570.05 1351 570.852Z" fill="#FF0000"/>
</mask>
<g mask="url(#mask28_378_10507)">
<path d="M1408.9 569.633H1297.42V704.408H1408.9V569.633Z" fill="#2D3A40"/>
</g>
<mask id="mask29_378_10507" style="mask-type:alpha" maskUnits="userSpaceOnUse" x="1298" y="598" width="62" height="106">
<path d="M1357.56 703.205C1358.92 703.205 1359.74 702.077 1359.74 700.188V638.259C1359.63 636.579 1359.14 634.944 1358.29 633.492C1357.44 632.038 1356.26 630.804 1354.85 629.891L1302.18 599.455C1301.58 599.084 1300.9 598.873 1300.2 598.844C1298.84 598.844 1298.02 599.971 1298.02 601.846V663.776C1298.11 665.453 1298.6 667.085 1299.44 668.541C1300.28 669.996 1301.45 671.231 1302.86 672.144L1355.53 702.58C1356.14 702.966 1356.84 703.18 1357.56 703.205Z" fill="#FF0000"/>
</mask>
<g mask="url(#mask29_378_10507)">
<path d="M1359.74 598.844H1298.02V703.205H1359.74V598.844Z" fill="#263238"/>
</g>
<mask id="mask30_378_10507" style="mask-type:alpha" maskUnits="userSpaceOnUse" x="1297" y="598" width="64" height="106">
<path d="M1300.19 598.184C1301.01 598.209 1301.8 598.453 1302.49 598.89L1355.17 629.325C1356.68 630.305 1357.93 631.627 1358.83 633.183C1359.73 634.739 1360.25 636.485 1360.34 638.278V700.208C1360.34 702.545 1359.19 703.904 1357.49 703.904C1356.68 703.871 1355.88 703.627 1355.19 703.198L1302.5 672.749C1301 671.768 1299.75 670.446 1298.85 668.89C1297.96 667.334 1297.44 665.589 1297.34 663.795V601.879C1297.34 599.529 1298.51 598.184 1300.21 598.184H1300.19ZM1300.21 599.542C1298.85 599.542 1298.71 601.173 1298.71 601.879V663.795C1298.81 665.351 1299.27 666.862 1300.04 668.213C1300.82 669.564 1301.9 670.715 1303.2 671.58L1355.88 702.069C1356.37 702.38 1356.93 702.563 1357.51 702.599C1358.87 702.599 1359 700.968 1359 700.262V638.278C1358.9 636.724 1358.45 635.213 1357.67 633.864C1356.89 632.515 1355.81 631.366 1354.51 630.506L1301.82 600.059C1301.33 599.75 1300.77 599.572 1300.19 599.542L1300.21 599.542Z" fill="#FF0000"/>
</mask>
<g mask="url(#mask30_378_10507)">
<path d="M1360.34 598.184H1297.34V703.904H1360.34V598.184Z" fill="#2D3A40"/>
</g>
<mask id="mask31_378_10507" style="mask-type:alpha" maskUnits="userSpaceOnUse" x="1360" y="606" width="49" height="98">
<path d="M1365.54 629.312L1403.72 607.274C1406.59 605.63 1408.9 606.962 1408.9 610.264V672.166C1408.8 673.964 1408.29 675.716 1407.39 677.277C1406.49 678.837 1405.23 680.163 1403.72 681.147L1365.59 703.185C1362.74 704.829 1360.43 703.496 1360.43 700.196V638.266C1360.52 636.478 1361.03 634.736 1361.92 633.18C1362.81 631.626 1364.04 630.3 1365.54 629.312Z" fill="#FF0000"/>
</mask>
<g mask="url(#mask31_378_10507)">
<path d="M1408.9 606.57H1360.43V703.889H1408.9V606.57Z" fill="#37474F"/>
</g>
<mask id="mask32_378_10507" style="mask-type:alpha" maskUnits="userSpaceOnUse" x="1300" y="569" width="106" height="62">
<path d="M1340.67 570.852L1302.52 592.89C1299.67 594.548 1299.67 597.211 1302.52 598.868L1355.2 629.303C1356.81 630.115 1358.58 630.537 1360.37 630.537C1362.16 630.537 1363.93 630.115 1365.54 629.303L1403.72 607.265C1406.59 605.621 1406.59 602.945 1403.72 601.301L1351.05 570.852C1349.44 570.033 1347.66 569.605 1345.86 569.605C1344.05 569.605 1342.28 570.033 1340.67 570.852Z" fill="#FF0000"/>
</mask>
<g mask="url(#mask32_378_10507)">
<path d="M1405.87 569.605H1300.38V630.537H1405.87V569.605Z" fill="#2D3A40"/>
</g>
<mask id="mask33_378_10507" style="mask-type:alpha" maskUnits="userSpaceOnUse" x="1307" y="623" width="44" height="57">
<path d="M1328.87 676.647C1316.88 669.73 1307.15 652.884 1307.15 639.038C1307.15 625.194 1316.87 619.569 1328.87 626.498C1340.87 633.428 1350.59 650.261 1350.59 664.121C1350.59 677.978 1340.84 683.576 1328.87 676.647Z" fill="#FF0000"/>
</mask>
<g mask="url(#mask33_378_10507)">
<path d="M1350.59 623.523H1307.15V679.611H1350.59V623.523Z" fill="#37474F"/>
</g>
<mask id="mask34_378_10507" style="mask-type:alpha" maskUnits="userSpaceOnUse" x="1309" y="626" width="40" height="51">
<path d="M1328.88 674.11C1318.02 667.888 1309.36 652.724 1309.36 640.265C1309.36 627.806 1318.08 622.752 1328.88 628.988C1339.67 635.225 1348.4 650.427 1348.4 662.832C1348.4 675.238 1339.65 680.32 1328.88 674.11Z" fill="#FF0000"/>
</mask>
<g mask="url(#mask34_378_10507)">
<path d="M1348.4 626.316H1309.36V676.76H1348.4V626.316Z" fill="#263238"/>
</g>
<mask id="mask35_378_10507" style="mask-type:alpha" maskUnits="userSpaceOnUse" x="1317" y="636" width="24" height="31">
<path d="M1328.87 664.7C1322.57 661.059 1317.47 652.212 1317.47 644.945C1317.47 637.676 1322.57 634.713 1328.87 638.355C1335.17 641.996 1340.26 650.841 1340.26 658.11C1340.26 665.379 1335.16 668.341 1328.87 664.7Z" fill="#FF0000"/>
</mask>
<g mask="url(#mask35_378_10507)">
<path d="M1340.26 636.801H1317.47V666.262H1340.26V636.801Z" fill="#37474F"/>
</g>
<mask id="mask36_378_10507" style="mask-type:alpha" maskUnits="userSpaceOnUse" x="1325" y="647" width="8" height="9">
<path d="M1328.87 655.436C1327.88 654.794 1327.06 653.926 1326.47 652.908C1325.88 651.887 1325.54 650.744 1325.48 649.566C1325.48 647.405 1327 646.523 1328.87 647.611C1329.85 648.253 1330.67 649.121 1331.26 650.141C1331.85 651.16 1332.19 652.303 1332.25 653.479C1332.25 655.64 1330.73 656.509 1328.87 655.436Z" fill="#FF0000"/>
</mask>
<g mask="url(#mask36_378_10507)">
<path d="M1332.25 647.145H1325.48V655.896H1332.25V647.145Z" fill="#455A64"/>
</g>
<mask id="mask37_378_10507" style="mask-type:alpha" maskUnits="userSpaceOnUse" x="1301" y="604" width="4" height="6">
<path d="M1303.01 604.748C1303.54 605.097 1303.99 605.569 1304.31 606.123C1304.63 606.678 1304.82 607.301 1304.86 607.941C1304.86 609.123 1304.03 609.598 1303.01 609.014C1302.47 608.664 1302.02 608.19 1301.7 607.633C1301.38 607.076 1301.2 606.45 1301.16 605.808C1301.16 604.626 1301.91 604.218 1303.01 604.748Z" fill="#FF0000"/>
</mask>
<g mask="url(#mask37_378_10507)">
<path d="M1304.86 604.52H1301.16V609.264H1304.86V604.52Z" fill="#37474F"/>
</g>
<mask id="mask38_378_10507" style="mask-type:alpha" maskUnits="userSpaceOnUse" x="1351" y="633" width="5" height="6">
<path d="M1353.68 634.134C1354.22 634.484 1354.66 634.955 1354.98 635.51C1355.3 636.064 1355.49 636.688 1355.52 637.327C1355.52 638.509 1354.71 638.984 1353.68 638.401C1353.14 638.05 1352.69 637.576 1352.37 637.02C1352.05 636.462 1351.87 635.836 1351.83 635.193C1351.83 633.958 1352.66 633.469 1353.68 634.134Z" fill="#FF0000"/>
</mask>
<g mask="url(#mask38_378_10507)">
<path d="M1355.52 633.836H1351.83V638.65H1355.52V633.836Z" fill="#37474F"/>
</g>
<mask id="mask39_378_10507" style="mask-type:alpha" maskUnits="userSpaceOnUse" x="1301" y="662" width="4" height="6">
<path d="M1303.01 663.131C1303.55 663.48 1304 663.952 1304.32 664.507C1304.64 665.061 1304.82 665.685 1304.86 666.324C1304.86 667.506 1304.03 667.981 1303.01 667.398C1302.47 667.047 1302.02 666.573 1301.7 666.017C1301.38 665.458 1301.2 664.833 1301.16 664.19C1301.16 663.022 1301.91 662.533 1303.01 663.131Z" fill="#FF0000"/>
</mask>
<g mask="url(#mask39_378_10507)">
<path d="M1304.86 662.875H1301.16V667.647H1304.86V662.875Z" fill="#37474F"/>
</g>
<mask id="mask40_378_10507" style="mask-type:alpha" maskUnits="userSpaceOnUse" x="1351" y="692" width="5" height="5">
<path d="M1353.67 692.418C1354.21 692.767 1354.66 693.241 1354.98 693.799C1355.3 694.356 1355.49 694.981 1355.52 695.624C1355.52 696.792 1354.7 697.282 1353.67 696.683C1353.14 696.334 1352.69 695.864 1352.37 695.307C1352.05 694.753 1351.86 694.131 1351.83 693.491C1351.83 692.309 1352.65 691.833 1353.67 692.418Z" fill="#FF0000"/>
</mask>
<g mask="url(#mask40_378_10507)">
<path d="M1355.52 692.168H1351.83V696.939H1355.52V692.168Z" fill="#37474F"/>
</g>
<mask id="mask41_378_10507" style="mask-type:alpha" maskUnits="userSpaceOnUse" x="1367" y="636" width="35" height="38">
<path d="M1401.56 650.503V640.041C1401.56 636.739 1399.26 635.408 1396.41 637.052L1372.81 650.639C1371.31 651.621 1370.06 652.947 1369.16 654.505C1368.26 656.063 1367.74 657.81 1367.64 659.606V670.068C1367.64 673.37 1369.96 674.701 1372.81 673.057L1396.41 659.47C1397.91 658.488 1399.16 657.164 1400.06 655.604C1400.95 654.046 1401.47 652.298 1401.56 650.503Z" fill="#FF0000"/>
</mask>
<g mask="url(#mask41_378_10507)">
<path d="M1401.56 636.348H1367.64V673.761H1401.56V636.348Z" fill="#2D3A40"/>
</g>
<mask id="mask42_378_10507" style="mask-type:alpha" maskUnits="userSpaceOnUse" x="1370" y="650" width="8" height="21">
<path d="M1373.19 670.067C1371.48 671.059 1370.1 670.257 1370.1 668.273V658.64C1370.15 657.554 1370.45 656.493 1370.99 655.549C1371.53 654.603 1372.28 653.801 1373.19 653.205L1377.36 650.801V667.607L1373.19 670.067Z" fill="#FF0000"/>
</mask>
<g mask="url(#mask42_378_10507)">
<path d="M1377.36 650.801H1370.1V670.492H1377.36V650.801Z" fill="#37474F"/>
</g>
<mask id="mask43_378_10507" style="mask-type:alpha" maskUnits="userSpaceOnUse" x="1391" y="639" width="9" height="21">
<path d="M1396.02 640.073C1397.74 639.095 1399.12 639.897 1399.12 641.867V651.513C1399.07 652.59 1398.76 653.639 1398.22 654.573C1397.68 655.506 1396.92 656.296 1396.02 656.88L1391.85 659.299V642.493L1396.02 640.073Z" fill="#FF0000"/>
</mask>
<g mask="url(#mask43_378_10507)">
<path d="M1399.12 639.656H1391.85V659.299H1399.12V639.656Z" fill="#37474F"/>
</g>
</g>
</g>
</g>
<path d="M-31.9505 862.137C-30.7884 873.075 -29.2906 884.803 -21.9771 893.03C-18.8342 896.564 -14.8247 899.182 -10.8677 901.755C-3.48682 906.555 3.89656 911.356 11.4786 915.823C17.5677 919.411 23.9387 922.837 30.8884 923.95C41.6289 925.67 52.8092 921.453 60.6526 913.964C68.4961 906.474 73.1701 896.012 74.9013 885.236C75.9964 878.417 76.0244 871.278 78.7833 864.968C81.5772 858.578 86.8698 853.73 91.2263 848.308C96.3206 841.966 100.229 834.66 102.693 826.875C103.27 825.051 103.771 823.095 103.288 821.235C102.321 817.512 98.0377 815.862 94.299 815.066C78.507 811.7 62.0337 813.293 46.466 817.332C30.898 821.372 16.0775 827.791 1.32826 834.186" fill="#37474F"/>
<path d="M28.2054 811.643C24.9477 812.514 21.6901 813.385 18.4324 814.256C9.17505 816.731 -0.159524 819.235 -8.70845 823.564C-17.2575 827.894 -25.0741 834.241 -29.4959 842.742C-33.4982 850.437 -34.3245 860.242 -29.7441 867.607C-27.4072 871.365 -23.8924 874.214 -20.4446 876.988C-14.0653 882.12 -7.68611 887.252 -1.30677 892.385C6.21742 898.438 14.1049 904.671 23.533 906.763C32.046 908.651 40.9107 906.949 49.404 904.973C53.7291 903.967 58.1388 902.846 61.8157 900.356C65.8968 897.592 68.7376 893.371 71.2368 889.124C74.063 884.319 76.6167 879.265 77.7607 873.809C79.2937 866.499 78.2825 858.58 81.4345 851.808C84.2279 845.805 89.8258 841.706 94.5972 837.116C99.3682 832.526 103.712 826.391 102.738 819.842C101.642 812.467 94.4472 807.818 87.957 804.147C83.6341 801.702 79.3113 799.257 74.9886 796.812C65.5438 791.47 54.0642 786.031 44.3707 790.908C34.1997 796.024 30.5542 810.69 19.5324 813.545" fill="#263238"/>
<path d="M16.0659 833.053C28.6797 842.94 41.7467 852.25 55.2123 860.942C54.7379 862.815 52.428 863.68 50.5263 863.34C48.6246 863 47.0023 861.818 45.3278 860.855C43.43 859.763 41.3878 858.923 39.2713 858.362C35.0452 857.243 30.319 857.14 26.888 854.431C22.8297 851.225 21.601 845.082 17.0411 842.642C15.871 842.015 14.4628 841.613 13.7585 840.488C13.0578 839.368 13.3252 837.851 14.0597 836.753C14.7945 835.655 15.9131 834.884 17.0045 834.14" fill="#263238"/>
<path d="M69.6958 824.428C78.3119 809.788 93.4119 800.407 105.548 788.521C119.017 775.329 129.201 758.643 144.669 747.863C144.352 745.284 141.183 743.887 138.65 744.466C136.117 745.045 134.133 746.952 132.278 748.771C108.441 772.145 83.0538 793.938 56.3383 813.958" fill="#263238"/>
<path d="M135.193 759.477C134.429 759.191 133.701 758.82 132.974 758.449C129.502 756.68 125.92 754.821 123.496 751.771C127.379 749.242 131.262 746.713 135.145 744.184C136.7 743.172 138.402 742.118 140.254 742.243C142.369 742.385 144.044 744.011 145.516 745.537C145.766 745.797 146.021 746.063 146.169 746.393C146.342 746.781 146.351 747.22 146.329 747.644C146.211 749.948 145.254 752.201 143.677 753.886C141.376 756.347 137.94 757.514 135.669 760.003" fill="#263238"/>
<path d="M44.2707 829.894C44.0525 828.743 43.3526 827.673 43.498 826.52C43.6 825.71 43.9616 824.966 44.3447 824.255C46.8914 819.533 50.9119 815.371 56.0714 814.075C61.231 812.778 67.5064 815.075 69.7389 820.083C70.2198 821.162 70.5078 822.349 70.3967 823.513C70.2872 824.663 69.7978 825.731 69.2255 826.717C67.3452 829.957 64.476 832.583 61.0939 834.114C57.2062 835.874 45.8267 838.095 44.2707 829.894Z" fill="#37474F"/>
<path d="M24.7864 843.33C24.7864 843.33 64.7079 812.212 84.8964 795.397C101.343 781.699 116.697 766.69 130.764 750.559" stroke="#263238" stroke-width="0.067224" stroke-miterlimit="10"/>
<path d="M33.9787 852.112C46.8685 840.722 59.1893 828.707 71.5041 816.697C77.8072 810.551 84.1104 804.404 90.4135 798.257C92.0285 796.683 93.6434 795.108 95.2551 793.529C108.809 780.254 122.125 766.735 135.192 752.981" stroke="#263238" stroke-width="0.067224" stroke-miterlimit="10"/>
<path d="M30.4578 849.681C37.7515 842.972 45.0453 836.264 52.3392 829.555C62.5971 820.12 72.8549 810.686 83.1129 801.251" stroke="#263238" stroke-width="0.067224" stroke-miterlimit="10"/>
<path d="M84.683 799.458C101.438 782.835 136.302 752.164 136.302 752.164" stroke="#263238" stroke-width="0.067224" stroke-miterlimit="10"/>
<path d="M28.1103 846.596C28.1103 846.596 89.7905 793.509 99.0209 785.121C111.387 773.883 122.868 761.673 133.324 748.641" stroke="#263238" stroke-width="0.067224" stroke-miterlimit="10"/>
<path d="M22.9091 841.422C28.0124 837.506 33.1158 833.591 38.2188 829.675C70.6298 804.807 103.182 779.813 131.437 750.309" stroke="#263238" stroke-width="0.067224" stroke-miterlimit="10"/>
<path d="M19.3231 840.969C25.3531 843.83 29.5291 849.529 35.1114 853.187C35.7187 853.586 36.4001 853.973 37.1227 853.901C37.8453 853.83 38.5255 853.068 38.2402 852.401C38.1178 852.115 37.8577 851.917 37.608 851.732C32.5348 847.974 27.4611 844.216 22.3879 840.458C21.9633 840.144 21.5188 839.821 20.9989 839.729C20.4789 839.637 19.8634 839.853 19.6768 840.347" fill="#37474F"/>
<path d="M129.074 751.973C132.001 750.31 134.811 748.443 137.477 746.388C137.897 746.065 138.362 745.579 138.17 745.085C135.478 748.679 131.725 751.469 127.507 753.011C130.783 750.809 134.059 748.608 137.335 746.406" stroke="#263238" stroke-width="0.067224" stroke-miterlimit="10"/>
<path d="M135.095 753.722C137.844 751.406 140.741 749.266 143.762 747.318C140.717 750.496 136.516 752.377 133.478 755.562C136.825 753.409 140.065 751.09 143.182 748.617C140.027 750.118 136.984 751.854 134.086 753.806" stroke="#263238" stroke-width="0.067224" stroke-miterlimit="10"/>
</g>
<defs>
<filter id="filter0_d_378_10507" x="356.809" y="469.121" width="103.167" height="246.629" filterUnits="userSpaceOnUse" color-interpolation-filters="sRGB">
<feFlood flood-opacity="0" result="BackgroundImageFix"/>
<feColorMatrix in="SourceAlpha" type="matrix" values="0 0 0 0 0 0 0 0 0 0 0 0 0 0 0 0 0 0 127 0" result="hardAlpha"/>
<feOffset dx="2" dy="10"/>
<feGaussianBlur stdDeviation="2"/>
<feComposite in2="hardAlpha" operator="out"/>
<feColorMatrix type="matrix" values="0 0 0 0 0 0 0 0 0 0 0 0 0 0 0 0 0 0 0.25 0"/>
<feBlend mode="normal" in2="BackgroundImageFix" result="effect1_dropShadow_378_10507"/>
<feBlend mode="normal" in="SourceGraphic" in2="effect1_dropShadow_378_10507" result="shape"/>
</filter>
<clipPath id="clip0_378_10507">
<rect width="1512" height="986" fill="white"/>
</clipPath>
</defs>
</svg>
