<svg width="440" height="930" viewBox="0 0 440 930" fill="none" xmlns="http://www.w3.org/2000/svg">
<g clip-path="url(#clip0_380_13943)">
<rect width="440" height="930" fill="#455A64"/>
<rect width="440" height="930" fill="#2E3B42"/>
<rect width="440" height="50" fill="#212B30"/>
<rect x="36.6665" y="80" width="366.667" height="755.191" fill="#263238"/>
<rect y="890" width="440" height="40" fill="#212B30"/>
<path d="M36.7715 835.23H403.231L440 890H0.000488281L36.7715 835.23Z" fill="#212B30"/>
<path d="M-2.35412 931.602C-1.64933 938.236 -0.740915 945.349 3.69474 950.338C5.60089 952.482 8.03263 954.069 10.4326 955.63C14.9091 958.541 19.3871 961.453 23.9856 964.162C27.6786 966.338 31.5426 968.416 35.7576 969.091C42.2717 970.135 49.0525 967.577 53.8096 963.034C58.5666 958.492 61.4014 952.147 62.4514 945.611C63.1156 941.476 63.1326 937.145 64.8058 933.319C66.5003 929.443 69.7103 926.503 72.3525 923.214C75.4422 919.368 77.8129 914.936 79.3071 910.215C79.6572 909.109 79.9608 907.923 79.6677 906.795C79.0812 904.536 76.4836 903.536 74.2161 903.053C64.6382 901.012 54.6472 901.978 45.2054 904.427C35.7635 906.877 26.7748 910.771 17.8294 914.649" fill="#37474F"/>
<path d="M34.1289 900.978C32.1531 901.506 30.1773 902.035 28.2016 902.563C22.587 904.064 16.9256 905.583 11.7406 908.208C6.55563 910.834 1.81489 914.684 -0.866913 919.84C-3.2943 924.507 -3.79545 930.454 -1.01747 934.921C0.399865 937.2 2.53157 938.927 4.62267 940.61C8.49174 943.722 12.3607 946.835 16.2298 949.948C20.7932 953.619 25.5769 957.4 31.2951 958.668C36.4582 959.814 41.8346 958.781 46.9858 957.583C49.609 956.973 52.2834 956.293 54.5135 954.783C56.9886 953.107 58.7116 950.546 60.2274 947.97C61.9415 945.056 63.4902 941.991 64.1841 938.682C65.1139 934.248 64.5006 929.445 66.4123 925.338C68.1064 921.698 71.5016 919.211 74.3954 916.428C77.2891 913.644 79.9237 909.923 79.3331 905.951C78.6681 901.478 74.3045 898.658 70.3681 896.431C67.7463 894.949 65.1246 893.466 62.5028 891.983C56.7745 888.743 49.8122 885.444 43.9331 888.402C37.7644 891.505 35.5534 900.4 28.8687 902.132" fill="#263238"/>
<path d="M26.7674 913.961C34.4177 919.958 42.3428 925.605 50.5096 930.877C50.2219 932.013 48.821 932.537 47.6676 932.331C46.5142 932.125 45.5303 931.408 44.5147 930.824C43.3637 930.161 42.1251 929.652 40.8415 929.312C38.2783 928.633 35.4119 928.571 33.331 926.927C30.8696 924.983 30.1244 921.257 27.3588 919.777C26.6492 919.397 25.7951 919.153 25.368 918.471C24.943 917.792 25.1051 916.871 25.5506 916.206C25.9963 915.54 26.6747 915.072 27.3366 914.621" fill="#263238"/>
<path d="M59.2937 908.731C64.5194 899.851 73.6775 894.162 81.0382 886.953C89.207 878.952 95.3839 868.832 104.765 862.294C104.573 860.73 102.651 859.883 101.114 860.234C99.5782 860.585 98.3751 861.742 97.2498 862.845C82.7928 877.021 67.3954 890.238 51.1925 902.381" fill="#263238"/>
<path d="M99.0181 869.338C98.5546 869.165 98.1127 868.94 97.6719 868.715C95.5665 867.642 93.3938 866.515 91.9234 864.665C94.2787 863.131 96.6337 861.597 98.9888 860.064C99.9319 859.449 100.964 858.81 102.087 858.886C103.37 858.973 104.386 859.959 105.279 860.884C105.43 861.042 105.585 861.203 105.675 861.403C105.78 861.638 105.785 861.905 105.772 862.162C105.7 863.56 105.12 864.926 104.164 865.948C102.768 867.44 100.684 868.148 99.3067 869.658" fill="#263238"/>
<path d="M43.8735 912.048C43.7411 911.351 43.3167 910.701 43.4049 910.002C43.4667 909.511 43.6861 909.059 43.9184 908.628C45.463 905.764 47.9014 903.24 51.0306 902.454C54.1599 901.668 57.9659 903.061 59.32 906.098C59.6116 906.752 59.7863 907.472 59.7189 908.178C59.6525 908.876 59.3557 909.524 59.0086 910.122C57.8682 912.087 56.128 913.679 54.0768 914.608C51.7189 915.675 44.8172 917.023 43.8735 912.048Z" fill="#37474F"/>
<path d="M32.0544 920.185C32.0544 920.185 56.2668 901.311 68.5111 891.113C78.4857 882.805 87.7979 873.702 96.33 863.919" stroke="#263238" stroke-width="0.0407714" stroke-miterlimit="10"/>
<path d="M37.6305 925.514C45.4481 918.606 52.9207 911.319 60.3896 904.035C64.2125 900.307 68.0353 896.579 71.8581 892.852C72.8377 891.896 73.817 890.941 74.7946 889.984C83.0153 881.933 91.0911 873.733 99.0164 865.391" stroke="#263238" stroke-width="0.0407714" stroke-miterlimit="10"/>
<path d="M35.494 924.035C39.9176 919.966 44.3413 915.897 48.765 911.829C54.9864 906.106 61.2078 900.384 67.4293 894.662" stroke="#263238" stroke-width="0.0407714" stroke-miterlimit="10"/>
<path d="M68.3823 893.578C78.5442 883.496 99.6891 864.893 99.6891 864.893" stroke="#263238" stroke-width="0.0407714" stroke-miterlimit="10"/>
<path d="M34.0706 922.166C34.0706 922.166 71.4797 889.969 77.0779 884.881C84.5777 878.066 91.5413 870.66 97.883 862.756" stroke="#263238" stroke-width="0.0407714" stroke-miterlimit="10"/>
<path d="M30.9163 919.028C34.0114 916.653 37.1066 914.278 40.2016 911.904C59.8588 896.821 79.6019 881.662 96.7384 863.768" stroke="#263238" stroke-width="0.0407714" stroke-miterlimit="10"/>
<path d="M28.7413 918.753C32.3985 920.488 34.9313 923.945 38.3169 926.164C38.6852 926.405 39.0985 926.64 39.5368 926.597C39.975 926.553 40.3875 926.092 40.2145 925.687C40.1403 925.513 39.9825 925.393 39.8311 925.281C36.7542 923.002 33.677 920.723 30.6001 918.444C30.3426 918.253 30.073 918.057 29.7576 918.001C29.4423 917.945 29.069 918.076 28.9558 918.376" fill="#37474F"/>
<path d="M95.3051 864.776C97.08 863.768 98.7844 862.635 100.401 861.39C100.656 861.193 100.938 860.898 100.822 860.599C99.1888 862.779 96.9127 864.471 94.3546 865.406C96.3416 864.071 98.3284 862.735 100.315 861.4" stroke="#263238" stroke-width="0.0407714" stroke-miterlimit="10"/>
<path d="M98.9564 865.839C100.624 864.434 102.381 863.136 104.213 861.955C102.366 863.882 99.8184 865.023 97.9761 866.955C100.006 865.649 101.971 864.243 103.861 862.742C101.948 863.653 100.102 864.706 98.3445 865.89" stroke="#263238" stroke-width="0.0407714" stroke-miterlimit="10"/>
<path d="M-40 40H480L403.235 92.963H36.7761L-40 40Z" fill="#212B30"/>
<g filter="url(#filter0_d_380_13943)">
<path d="M115.722 531.581L116.488 531.827C117.235 532.066 117.699 532.75 117.609 533.411L119.078 533.882L118.956 534.266L117.488 533.795C117.182 534.387 116.41 534.676 115.664 534.436L114.898 534.191C114.076 533.928 113.59 533.125 113.816 532.407C114.043 531.689 114.9 531.318 115.722 531.581Z" fill="white"/>
<path d="M117.138 527.105L117.904 527.35C118.65 527.59 119.114 528.273 119.024 528.934L120.493 529.405L120.372 529.789L118.903 529.318C118.597 529.91 117.826 530.199 117.079 529.96L116.314 529.714C115.491 529.451 115.005 528.649 115.232 527.931C115.458 527.213 116.316 526.842 117.138 527.105Z" fill="white"/>
<path d="M114.302 536.029L115.068 536.274C115.815 536.514 116.279 537.198 116.189 537.859L117.487 538.275L117.366 538.659L116.067 538.242C115.762 538.835 114.991 539.123 114.244 538.884L113.478 538.639C112.656 538.375 112.169 537.573 112.396 536.855C112.623 536.137 113.48 535.766 114.302 536.029Z" fill="white"/>
<path d="M131.009 537.656L132.478 538.127C132.783 537.535 133.555 537.246 134.301 537.486L135.067 537.731C135.889 537.994 136.375 538.797 136.149 539.514C135.923 540.232 135.065 540.604 134.243 540.34L133.477 540.095C132.731 539.856 132.267 539.172 132.357 538.511L130.888 538.04L131.009 537.656Z" fill="white"/>
<path d="M132.424 533.179L133.892 533.65C134.198 533.058 134.969 532.77 135.716 533.009L136.482 533.254C137.303 533.517 137.79 534.32 137.564 535.038C137.337 535.756 136.479 536.127 135.658 535.864L134.892 535.618C134.145 535.379 133.681 534.695 133.771 534.034L132.302 533.564L132.424 533.179Z" fill="white"/>
<path d="M129.758 542.21L131.057 542.627C131.363 542.035 132.134 541.746 132.881 541.986L133.646 542.231C134.468 542.494 134.955 543.297 134.729 544.015C134.502 544.732 133.645 545.104 132.822 544.84L132.057 544.595C131.31 544.356 130.846 543.672 130.936 543.011L129.637 542.594L129.758 542.21Z" fill="white"/>
<path d="M129.643 547.565C129.643 547.555 129.643 547.546 129.643 547.536C129.646 547.535 129.65 547.533 129.653 547.533L129.643 547.565Z" fill="#2B2B2B"/>
<path d="M118.997 533.844C119.981 530.727 120.498 527.581 120.595 524.49L127.954 526.848L135.314 529.206C133.62 531.785 132.237 534.653 131.252 537.77C130.224 541.025 129.706 544.311 129.644 547.533C127.927 547.938 126.482 548.98 125.715 550.476L120.972 548.956L116.229 547.436C116.461 545.77 115.88 544.078 114.71 542.748C116.508 540.082 117.969 537.098 118.997 533.844Z" fill="#273942"/>
<path d="M114.678 542.744C114.673 542.752 114.667 542.76 114.662 542.768L114.671 542.736C114.674 542.738 114.676 542.741 114.678 542.744Z" fill="#2B2B2B"/>
<path d="M105.539 614.094C105.539 614.094 121.402 618.463 120.704 629.744C120.491 633.172 118.606 635.836 116.385 637.632C114.164 639.428 109.346 643.66 110.908 647.808C112.887 652.013 120.656 665.338 117.316 675.47C115.209 682.148 112.092 688.978 97.3276 691.636C82.5629 694.293 62.1823 685.01 55.9723 677.093C49.7622 669.175 46.1825 657.086 55.2705 646.775C57.7592 644.128 62.143 641.374 65.166 639.639C67.0784 638.54 69.2354 637.615 70.268 637.058C72.7661 635.711 76.6904 632.48 74.3234 626.13C72.9995 619.869 72.5242 615.383 76.3216 613.575C76.5288 613.477 77.2078 613.191 77.5985 613.499C78.3505 614.091 78.9528 615.607 78.9528 615.607C78.9528 615.607 80.0627 619.534 84.0225 620.499C87.9824 621.464 91.9262 620.827 94.1682 614.555C95.3451 610.828 105.539 614.094 105.539 614.094Z" fill="#212B30"/>
<path d="M91.6835 625.443L101.01 628.432L125.475 550.969L116.148 547.98L91.6835 625.443Z" fill="#2E3B42"/>
<path d="M91.6835 625.443L101.01 628.432L125.475 550.969L116.148 547.98L91.6835 625.443Z" stroke="#37474F" stroke-width="0.418379" stroke-miterlimit="10"/>
<path d="M116.045 548.306L125.371 551.295L125.633 550.467L116.307 547.478L116.045 548.306Z" fill="#37474F"/>
<path d="M114.477 553.272L123.803 556.26L123.868 556.053L114.542 553.065L114.477 553.272Z" fill="#37474F"/>
<path d="M112.755 558.721L122.082 561.709L122.147 561.502L112.821 558.514L112.755 558.721Z" fill="#37474F"/>
<path d="M111.131 563.861L120.457 566.85L120.522 566.643L111.196 563.655L111.131 563.861Z" fill="#37474F"/>
<path d="M109.583 568.768L118.909 571.756L118.974 571.549L109.648 568.561L109.583 568.768Z" fill="#37474F"/>
<path d="M108.133 573.354L117.459 576.342L117.524 576.135L108.198 573.147L108.133 573.354Z" fill="#37474F"/>
<path d="M106.75 577.733L116.077 580.721L116.142 580.514L106.816 577.526L106.75 577.733Z" fill="#37474F"/>
<path d="M105.411 581.979L114.737 584.967L114.802 584.76L105.476 581.772L105.411 581.979Z" fill="#37474F"/>
<path d="M104.189 585.842L113.516 588.83L113.581 588.623L104.255 585.635L104.189 585.842Z" fill="#37474F"/>
<path d="M103.001 589.608L112.328 592.596L112.393 592.389L103.067 589.401L103.001 589.608Z" fill="#37474F"/>
<path d="M101.878 593.158L111.205 596.147L111.27 595.94L101.944 592.952L101.878 593.158Z" fill="#37474F"/>
<path d="M100.788 596.611L110.114 599.6L110.18 599.393L100.853 596.405L100.788 596.611Z" fill="#37474F"/>
<path d="M99.7969 599.748L109.123 602.737L109.188 602.53L99.8621 599.541L99.7969 599.748Z" fill="#37474F"/>
<path d="M98.8052 602.893L108.131 605.881L108.197 605.674L98.8704 602.686L98.8052 602.893Z" fill="#37474F"/>
<path d="M97.9673 605.549L107.294 608.537L107.359 608.331L98.0326 605.342L97.9673 605.549Z" fill="#37474F"/>
<path d="M97.0576 608.424L106.384 611.412L106.449 611.206L97.1229 608.217L97.0576 608.424Z" fill="#37474F"/>
<path d="M96.2783 610.893L105.605 613.881L105.67 613.674L96.3436 610.686L96.2783 610.893Z" fill="#37474F"/>
<path d="M95.4976 613.361L104.824 616.35L104.889 616.143L95.5628 613.155L95.4976 613.361Z" fill="#37474F"/>
<path d="M94.7627 615.69L104.089 618.678L104.154 618.471L94.828 615.483L94.7627 615.69Z" fill="#37474F"/>
<path d="M94.0884 617.826L103.415 620.815L103.48 620.608L94.1537 617.62L94.0884 617.826Z" fill="#37474F"/>
<path d="M93.4116 619.975L102.738 622.963L102.803 622.756L93.4769 619.768L93.4116 619.975Z" fill="#37474F"/>
<path d="M92.8467 621.768L102.173 624.756L102.238 624.549L92.912 621.561L92.8467 621.768Z" fill="#37474F"/>
<path d="M92.2251 623.733L101.551 626.721L101.617 626.514L92.2904 623.526L92.2251 623.733Z" fill="#37474F"/>
<path d="M115.959 629.054C116.464 627.453 115.388 625.679 113.555 625.092C111.722 624.504 109.826 625.325 109.321 626.926C108.815 628.527 109.891 630.301 111.725 630.888C113.558 631.476 115.454 630.654 115.959 629.054Z" fill="#37474F"/>
<path d="M113.097 626.543C113.831 626.778 114.314 627.395 114.349 628.042L114.994 628.249C115.277 628.339 115.444 628.616 115.366 628.863C115.288 629.11 114.992 629.239 114.709 629.148L114.065 628.941C113.666 629.449 112.918 629.671 112.184 629.436C111.269 629.143 110.732 628.258 110.984 627.459C111.236 626.66 112.182 626.25 113.097 626.543Z" fill="#212B30"/>
<path d="M86.3724 632.588L101.244 637.353C102.123 637.634 103.04 637.237 103.283 636.47L104.94 631.223C105.182 630.456 104.661 629.598 103.782 629.317L88.9104 624.552C88.0318 624.27 87.1144 624.667 86.8722 625.435L85.2153 630.681C84.9731 631.448 85.4938 632.306 86.3724 632.588Z" fill="black"/>
<path d="M88.6119 632.389L99.5294 635.887C100.408 636.169 101.326 635.771 101.568 635.004L102.68 631.484C102.922 630.717 102.401 629.858 101.522 629.577L90.605 626.079C89.7264 625.797 88.8087 626.195 88.5665 626.962L87.4548 630.482C87.2127 631.249 87.7333 632.108 88.6119 632.389Z" fill="#263238"/>
<path d="M80.5359 651.068L95.408 655.833C96.2866 656.115 97.2041 655.717 97.4462 654.95L99.1031 649.704C99.3453 648.937 98.8247 648.078 97.9461 647.797L83.0743 643.032C82.1957 642.75 81.2779 643.148 81.0357 643.915L79.3788 649.161C79.1367 649.928 79.6573 650.787 80.5359 651.068Z" fill="black"/>
<path d="M82.778 650.866L93.6955 654.364C94.5741 654.645 95.4918 654.247 95.734 653.48L96.8453 649.961C97.0875 649.194 96.5671 648.335 95.6885 648.053L84.771 644.555C83.8924 644.274 82.9747 644.672 82.7325 645.439L81.6212 648.958C81.379 649.725 81.8994 650.584 82.778 650.866Z" fill="#263238"/>
<path d="M78.2199 654.493L94.1532 660.19C94.6233 660.358 95.1293 660.161 95.2785 659.752L95.4617 659.249C95.6106 658.841 95.3481 658.368 94.8785 658.2L78.9449 652.504C78.4749 652.336 77.9692 652.533 77.8199 652.942L77.6368 653.444C77.4875 653.853 77.7499 654.325 78.2199 654.493Z" fill="black"/>
<path d="M71.8867 661.535C72.2837 660.277 71.4382 658.883 69.9977 658.422C68.5571 657.96 67.0671 658.605 66.6701 659.863C66.2731 661.121 67.1185 662.515 68.5591 662.976C69.9997 663.438 71.4897 662.792 71.8867 661.535Z" fill="#37474F"/>
<path d="M70.9689 661.243C71.2261 660.428 70.6789 659.525 69.7456 659.226C68.8122 658.927 67.8473 659.345 67.5901 660.16C67.3328 660.975 67.88 661.877 68.8134 662.176C69.7467 662.475 70.7116 662.058 70.9689 661.243Z" fill="#212B30"/>
<path d="M68.518 672.199C68.915 670.941 68.0696 669.547 66.629 669.086C65.1884 668.624 63.6984 669.269 63.3014 670.527C62.9044 671.785 63.7499 673.179 65.1904 673.64C66.631 674.102 68.121 673.457 68.518 672.199Z" fill="#37474F"/>
<path d="M67.6012 671.903C67.8585 671.088 67.3113 670.185 66.3779 669.886C65.4446 669.587 64.4797 670.005 64.2224 670.82C63.9651 671.635 64.5123 672.537 65.4457 672.836C66.379 673.135 67.3439 672.718 67.6012 671.903Z" fill="#212B30"/>
<path d="M60.9467 664.757C61.3438 663.5 60.4983 662.106 59.0577 661.644C57.6172 661.183 56.1272 661.828 55.7301 663.086C55.3331 664.344 56.1786 665.738 57.6192 666.199C59.0597 666.66 60.5497 666.015 60.9467 664.757Z" fill="#37474F"/>
<path d="M60.0284 664.465C60.2857 663.65 59.7385 662.748 58.8052 662.449C57.8718 662.15 56.9069 662.567 56.6496 663.382C56.3924 664.197 56.9396 665.1 57.8729 665.399C58.8063 665.698 59.7712 665.28 60.0284 664.465Z" fill="#212B30"/>
<path d="M124.527 550.109L126.894 541.521" stroke="#37474F" stroke-width="0.261487" stroke-miterlimit="10"/>
<path d="M123.103 549.653L128.789 537.17" stroke="#37474F" stroke-width="0.261487" stroke-miterlimit="10"/>
<path d="M121.682 549.197L130.679 532.843" stroke="#37474F" stroke-width="0.261487" stroke-miterlimit="10"/>
<path d="M120.26 548.736L122.296 530.152" stroke="#37474F" stroke-width="0.261487" stroke-miterlimit="10"/>
<path d="M118.836 548.284L121.356 534.785" stroke="#37474F" stroke-width="0.261487" stroke-miterlimit="10"/>
<path d="M117.412 547.829L120.411 539.429" stroke="#37474F" stroke-width="0.261487" stroke-miterlimit="10"/>
<path d="M63.8413 653.945C64.2383 652.687 63.3928 651.293 61.9522 650.832C60.5117 650.37 59.0217 651.015 58.6247 652.273C58.2276 653.531 59.0731 654.925 60.5137 655.386C61.9542 655.848 63.4442 655.203 63.8413 653.945Z" fill="#37474F"/>
<path d="M62.923 653.649C63.1802 652.834 62.6331 651.931 61.6997 651.632C60.7663 651.333 59.8014 651.751 59.5442 652.566C59.2869 653.381 59.8341 654.283 60.7675 654.582C61.7008 654.881 62.6657 654.464 62.923 653.649Z" fill="#212B30"/>
<path d="M127.842 541.826C127.987 541.369 127.679 540.862 127.156 540.694C126.632 540.526 126.09 540.761 125.946 541.218C125.801 541.676 126.109 542.182 126.632 542.35C127.156 542.518 127.698 542.284 127.842 541.826Z" fill="#EAEAEA"/>
<path d="M129.74 537.471C129.885 537.013 129.577 536.507 129.054 536.339C128.53 536.171 127.988 536.405 127.844 536.863C127.699 537.32 128.006 537.827 128.53 537.995C129.054 538.163 129.596 537.928 129.74 537.471Z" fill="#EAEAEA"/>
<path d="M131.627 533.15C131.772 532.693 131.464 532.186 130.94 532.018C130.417 531.851 129.875 532.085 129.73 532.542C129.586 533 129.893 533.506 130.417 533.674C130.941 533.842 131.482 533.608 131.627 533.15Z" fill="#EAEAEA"/>
<path d="M123.245 530.459C123.39 530.002 123.082 529.495 122.558 529.327C122.035 529.159 121.493 529.394 121.349 529.851C121.204 530.308 121.511 530.815 122.035 530.983C122.559 531.151 123.101 530.916 123.245 530.459Z" fill="#EAEAEA"/>
<path d="M122.305 535.088C122.45 534.631 122.142 534.124 121.619 533.956C121.095 533.788 120.553 534.023 120.409 534.48C120.264 534.937 120.571 535.444 121.095 535.612C121.619 535.78 122.161 535.545 122.305 535.088Z" fill="#EAEAEA"/>
<path d="M121.356 539.748C121.501 539.291 121.194 538.784 120.67 538.616C120.146 538.448 119.604 538.683 119.46 539.14C119.315 539.597 119.623 540.104 120.146 540.272C120.67 540.44 121.212 540.205 121.356 539.748Z" fill="#EAEAEA"/>
<path d="M124.528 550.106L88.4526 664.334" stroke="black" stroke-width="0.261487" stroke-miterlimit="10"/>
<path d="M123.104 549.653L87.0283 663.881" stroke="black" stroke-width="0.261487" stroke-miterlimit="10"/>
<path d="M121.682 549.192L85.6064 663.42" stroke="black" stroke-width="0.261487" stroke-miterlimit="10"/>
<path d="M120.261 548.739L84.1855 662.967" stroke="black" stroke-width="0.261487" stroke-miterlimit="10"/>
<path d="M118.837 548.282L82.7612 662.51" stroke="black" stroke-width="0.261487" stroke-miterlimit="10"/>
<path d="M117.415 547.829L81.3388 662.056" stroke="black" stroke-width="0.261487" stroke-miterlimit="10"/>
<path d="M74.8101 662.473L92.6165 668.179C93.3113 668.401 94.0363 668.087 94.2279 667.481L94.4632 666.736C94.6548 666.129 94.2431 665.451 93.5483 665.228L75.7418 659.523C75.047 659.3 74.322 659.615 74.1305 660.221L73.8951 660.966C73.7036 661.573 74.1152 662.251 74.8101 662.473Z" fill="black"/>
<path d="M93.5301 666.846C93.7196 666.246 93.3161 665.58 92.6285 665.36C91.9409 665.14 91.2298 665.448 91.0402 666.048C90.8507 666.648 91.2543 667.314 91.9419 667.534C92.6295 667.754 93.3406 667.446 93.5301 666.846Z" fill="#263238"/>
<path d="M77.2752 661.635C77.4648 661.035 77.0612 660.369 76.3736 660.149C75.686 659.929 74.9749 660.237 74.7854 660.837C74.5958 661.437 74.9994 662.103 75.687 662.323C76.3746 662.543 77.0857 662.235 77.2752 661.635Z" fill="#263238"/>
<path d="M91.6244 666.343L92.8821 666.746C92.9288 666.761 92.9772 666.74 92.9904 666.699L93.0065 666.649C93.0197 666.608 92.9918 666.563 92.945 666.548L91.6873 666.144C91.6405 666.129 91.5922 666.151 91.579 666.191L91.5629 666.241C91.5497 666.282 91.5776 666.328 91.6244 666.343Z" fill="#455A64"/>
<path d="M75.368 661.136L76.6257 661.539C76.6725 661.554 76.7208 661.533 76.734 661.492L76.7501 661.442C76.7633 661.401 76.7354 661.356 76.6887 661.341L75.4309 660.937C75.3842 660.922 75.3358 660.944 75.3226 660.984L75.3065 661.034C75.2933 661.075 75.3212 661.12 75.368 661.136Z" fill="#455A64"/>
</g>
<path d="M61.9167 780.027L59.3695 772.809C59.0443 771.887 58.0335 771.404 57.112 771.729C56.191 772.055 55.7079 773.065 56.033 773.986L56.6707 775.793L51.4694 777.191L52.3865 780.609L57.8519 779.141L58.5802 781.205C58.9054 782.126 59.9162 782.609 60.8376 782.284C61.7588 781.959 62.2418 780.948 61.9167 780.027Z" fill="#212B30"/>
<path d="M56.3172 766.438C57.2383 766.112 57.7213 765.102 57.3963 764.181L54.8491 756.962C54.5239 756.041 53.513 755.558 52.5917 755.883C51.6705 756.208 51.1875 757.219 51.5126 758.14L52.1971 760.08L48.5877 761.354L49.7662 764.692L53.3751 763.418L54.0598 765.358C54.3849 766.28 55.3958 766.763 56.3172 766.438Z" fill="#212B30"/>
<path d="M44.2069 782.582L49.5153 782.489L49.4534 778.95L44.145 779.043C43.1677 779.06 42.3893 779.866 42.4064 780.844C42.4235 781.821 43.2296 782.599 44.2069 782.582Z" fill="#212B30"/>
<path d="M44.0844 775.504L49.3928 775.411L49.3309 771.872L44.0225 771.965C43.0452 771.982 42.2668 772.788 42.2839 773.766C42.301 774.743 43.1071 775.521 44.0844 775.504Z" fill="#212B30"/>
<path d="M89.2503 827.81C85.2296 816.028 81.7703 804.931 83.4469 799.592C84.6325 795.817 89.3202 793.692 89.3202 793.692L70.3926 779.348C65.5757 785.49 65.9229 794.973 67.0733 802.271C68.6286 812.136 73.6811 820.974 77.4173 830.106C78.1592 831.919 77.3985 833.998 75.6621 834.905C73.5903 835.986 71.0427 834.955 70.3066 832.737C67.1165 821.96 63.9268 811.184 60.7367 800.407C58.2808 792.11 55.8248 783.814 53.3689 775.517C51.0783 767.779 49.7645 758.752 43.1001 753.465C36.8785 748.53 29.8124 749.2 22.3876 749.33L22.4804 754.638C26.7801 754.563 31.8762 753.645 35.8838 755.421C37.9295 756.327 39.8413 757.608 41.2583 759.339C43.6252 762.232 44.2357 765.859 44.9726 769.404C45.7985 773.379 46.7789 777.335 47.6737 781.297C48.167 783.481 48.6601 785.664 49.1533 787.848L57.8913 826.536C58.0561 827.266 58.2209 827.995 58.3855 828.725C60.0886 836.265 61.4347 843.672 69.2831 847.394C75.0905 850.148 83.2443 849.748 87.5041 844.466C91.2301 839.845 91.0787 833.168 89.2503 827.81Z" fill="#2E3B42"/>
<path d="M77.4185 830.108C78.1603 831.921 77.3996 834.001 75.6632 834.907C75.503 834.991 75.3365 835.039 75.1715 835.098C76.0958 835.393 77.1313 835.357 78.0739 834.865C79.8104 833.958 80.5709 831.879 79.8291 830.066C76.0929 820.935 71.0401 812.096 69.4849 802.232C68.4079 795.4 68.0363 786.654 71.9445 780.526L70.3938 779.351C65.5768 785.492 65.9239 794.976 67.0743 802.274C68.6296 812.139 73.6824 820.977 77.4185 830.108Z" fill="black" fill-opacity="0.5"/>
<path d="M71.6917 847.348C63.8432 843.626 62.4972 836.219 60.7942 828.679C60.6294 827.949 60.4646 827.22 60.2998 826.49L51.562 787.802C51.0686 785.618 50.5756 783.435 50.0824 781.251C49.1874 777.289 48.207 773.333 47.3811 769.358C46.6442 765.813 46.0338 762.186 43.6669 759.293C42.2498 757.562 40.338 756.281 38.2924 755.375C35.7588 754.252 32.7907 754.207 29.8632 754.344C31.9762 754.367 34.0447 754.603 35.8818 755.417C37.9275 756.323 39.8393 757.604 41.2563 759.335C43.6232 762.228 44.2336 765.855 44.9705 769.4C45.7965 773.375 46.7768 777.331 47.6718 781.293C48.165 783.477 48.6581 785.66 49.1514 787.844L57.8893 826.533C58.0541 827.262 58.2189 827.992 58.3836 828.721C60.0867 836.261 61.4327 843.668 69.2812 847.39C72.004 848.682 75.241 849.268 78.3523 848.995C76.0235 848.874 73.7149 848.308 71.6917 847.348Z" fill="black" fill-opacity="0.5"/>
<path d="M53.211 791.267C53.1768 789.312 51.5647 787.755 49.6101 787.79C47.6558 787.824 46.099 789.436 46.1332 791.391C46.1674 793.345 47.7796 794.902 49.7339 794.868C51.6885 794.833 53.2452 793.221 53.211 791.267Z" fill="#212B30"/>
<path d="M53.5495 810.731C55.5039 810.697 57.0607 809.084 57.0266 807.13C56.9924 805.176 55.3802 803.619 53.4257 803.653C51.4712 803.687 49.9144 805.299 49.9486 807.254C49.9828 809.208 51.595 810.765 53.5495 810.731Z" fill="#212B30"/>
<path d="M60.8443 822.997C60.8101 821.043 59.198 819.486 57.2435 819.52C55.289 819.554 53.7323 821.166 53.7665 823.121C53.8007 825.075 55.4128 826.632 57.3672 826.598C57.5464 826.595 57.7179 826.565 57.8895 826.536C59.5894 826.252 60.8754 824.772 60.8443 822.997Z" fill="#212B30"/>
<path d="M47.9027 791.36C47.8739 789.712 48.9803 788.321 50.4972 787.899C50.2115 787.831 49.9177 787.784 49.6103 787.79C47.6558 787.824 46.099 789.436 46.1332 791.391C46.1674 793.345 47.7796 794.902 49.7341 794.868C50.0415 794.862 50.3335 794.806 50.6166 794.727C49.0859 794.359 47.9315 793.007 47.9027 791.36Z" fill="#263238"/>
<path d="M51.7182 807.223C51.6893 805.576 52.7957 804.184 54.3127 803.763C54.0269 803.694 53.7331 803.648 53.4257 803.653C51.4712 803.687 49.9144 805.299 49.9486 807.254C49.9828 809.208 51.595 810.765 53.5495 810.731C53.8569 810.725 54.1489 810.669 54.4321 810.59C52.9014 810.222 51.747 808.87 51.7182 807.223Z" fill="#263238"/>
<path d="M55.5385 823.09C55.5097 821.443 56.6161 820.051 58.133 819.63C57.8472 819.561 57.5533 819.515 57.246 819.52C55.2915 819.554 53.7347 821.166 53.7689 823.121C53.8031 825.075 55.4153 826.632 57.3698 826.598C57.549 826.595 57.7204 826.565 57.892 826.536C58.0066 826.517 58.1139 826.479 58.2245 826.449C56.708 826.071 55.5671 824.727 55.5385 823.09Z" fill="#263238"/>
<path d="M80.7385 806.702C80.6801 803.358 77.9223 800.695 74.5787 800.753C71.2354 800.812 68.5723 803.57 68.6308 806.913C68.6893 810.257 71.4472 812.92 74.7905 812.861C78.134 812.803 80.797 810.045 80.7385 806.702Z" fill="#212B30"/>
<path d="M80.3737 829.101C83.9198 829.039 86.7444 826.114 86.6823 822.567C86.6203 819.021 83.6952 816.197 80.1491 816.259C76.6029 816.321 73.7783 819.246 73.8403 822.792C73.9024 826.338 76.8275 829.163 80.3737 829.101Z" fill="#212B30"/>
<path d="M75.2799 838.668C75.3311 841.6 77.7492 843.935 80.6811 843.883C83.6127 843.832 85.9479 841.414 85.8967 838.482C85.8454 835.55 83.4271 833.215 80.4954 833.267C77.5636 833.318 75.2286 835.736 75.2799 838.668Z" fill="#212B30"/>
<path d="M70.6488 806.878C70.5964 803.88 72.7374 801.37 75.5895 800.838C75.2588 800.788 74.9244 800.747 74.5787 800.753C71.2354 800.812 68.5723 803.57 68.6308 806.913C68.6893 810.257 71.4472 812.92 74.7905 812.861C75.1362 812.855 75.4689 812.803 75.7977 812.742C72.9287 812.309 70.7012 809.876 70.6488 806.878Z" fill="#263238"/>
<path d="M75.9807 822.755C75.9251 819.575 78.196 816.913 81.2211 816.348C80.8702 816.295 80.5157 816.252 80.1491 816.259C76.6029 816.321 73.7783 819.246 73.8403 822.792C73.9024 826.338 76.8275 829.163 80.3737 829.101C80.7403 829.094 81.0931 829.039 81.4419 828.974C78.3989 828.515 76.0363 825.934 75.9807 822.755Z" fill="#263238"/>
<path d="M77.0499 838.637C77.0039 836.008 78.8813 833.807 81.3822 833.34C81.0922 833.297 80.7991 833.261 80.496 833.267C77.5643 833.318 75.2291 835.736 75.2803 838.668C75.3316 841.6 77.75 843.935 80.6817 843.883C80.9848 843.878 81.2765 843.833 81.5648 843.779C79.0491 843.4 77.0959 841.266 77.0499 838.637Z" fill="#263238"/>
<path d="M83.3869 796.248C82.9372 797.68 82.8664 799.537 83.0674 801.7C83.1306 800.929 83.2499 800.22 83.4455 799.597C84.6311 795.822 89.3189 793.697 89.3189 793.697L86.8479 791.824C85.5073 792.828 83.9918 794.322 83.3869 796.248Z" fill="black" fill-opacity="0.5"/>
<path d="M94.0583 793.562C95.0937 792.238 94.8448 790.323 93.5053 789.308L73.1913 773.914C71.8806 772.92 70.0154 773.163 69.0021 774.458C67.9666 775.782 68.2156 777.697 69.555 778.712L89.869 794.106C91.1797 795.099 93.0449 794.857 94.0583 793.562Z" fill="#212B30"/>
<path d="M15.3084 749.45L15.3394 751.22L10.0309 751.313L10.0928 754.851L22.4791 754.635L22.3864 749.326L15.3084 749.45Z" fill="#212B30"/>
<path d="M88.4657 778.981L84.9272 779.065L85.0113 782.604L88.5498 782.52L88.4657 778.981Z" fill="#455A64"/>
<path d="M92.7359 768.88L92.0649 772.355L95.5404 773.026L96.2114 769.551L92.7359 768.88Z" fill="#455A64"/>
<path d="M99.6864 770.226L100.357 766.75L96.8819 766.079L96.2109 769.555L99.6864 770.226Z" fill="#455A64"/>
<path d="M98.3446 777.175L99.0155 773.7L95.5401 773.029L94.8691 776.504L98.3446 777.175Z" fill="#455A64"/>
<path d="M102.491 774.37L103.162 770.895L99.6866 770.224L99.0156 773.699L102.491 774.37Z" fill="#455A64"/>
<mask id="mask0_380_13943" style="mask-type:luminance" maskUnits="userSpaceOnUse" x="168" y="848" width="264" height="132">
<path d="M168.532 848.129H431.852V980.002H168.532V848.129Z" fill="white"/>
</mask>
<g mask="url(#mask0_380_13943)">
<mask id="mask1_380_13943" style="mask-type:alpha" maskUnits="userSpaceOnUse" x="168" y="848" width="264" height="132">
<path d="M300.191 979.99C227.476 979.99 168.53 950.47 168.53 914.054C168.53 877.638 227.476 848.117 300.191 848.117C372.904 848.117 431.85 877.638 431.85 914.054C431.85 950.47 372.904 979.99 300.191 979.99Z" fill="#FF0000"/>
</mask>
<g mask="url(#mask1_380_13943)">
<path d="M431.851 848.117H168.53V979.99H431.851V848.117Z" fill="#263238"/>
</g>
</g>
<mask id="mask2_380_13943" style="mask-type:luminance" maskUnits="userSpaceOnUse" x="272" y="891" width="87" height="50">
<path d="M272.592 891.195H358.166V940.648H272.592V891.195Z" fill="white"/>
</mask>
<g mask="url(#mask2_380_13943)">
<mask id="mask3_380_13943" style="mask-type:alpha" maskUnits="userSpaceOnUse" x="272" y="891" width="87" height="50">
<path d="M315.378 940.644C291.747 940.644 272.591 929.573 272.591 915.917C272.591 902.262 291.747 891.191 315.378 891.191C339.008 891.191 358.164 902.262 358.164 915.917C358.164 929.573 339.008 940.644 315.378 940.644Z" fill="#FF0000"/>
</mask>
<g mask="url(#mask3_380_13943)">
<path d="M358.165 891.191H272.591V940.644H358.165V891.191Z" fill="#2D3A40"/>
</g>
</g>
<mask id="mask4_380_13943" style="mask-type:luminance" maskUnits="userSpaceOnUse" x="340" y="735" width="75" height="166">
<path d="M340.899 735.551H414.425V900.392H340.899V735.551Z" fill="white"/>
</mask>
<g mask="url(#mask4_380_13943)">
<mask id="mask5_380_13943" style="mask-type:luminance" maskUnits="userSpaceOnUse" x="340" y="735" width="75" height="166">
<path d="M340.896 735.547H414.423V900.388H340.896V735.547Z" fill="white"/>
</mask>
<g mask="url(#mask5_380_13943)">
<mask id="mask6_380_13943" style="mask-type:luminance" maskUnits="userSpaceOnUse" x="340" y="782" width="75" height="119">
<path d="M340.895 782.629H414.421V900.388H340.895V782.629Z" fill="white"/>
</mask>
<g mask="url(#mask6_380_13943)">
<mask id="mask7_380_13943" style="mask-type:alpha" maskUnits="userSpaceOnUse" x="340" y="782" width="75" height="119">
<path d="M376.268 783.457L411.011 803.534C412.003 804.18 412.829 805.051 413.422 806.077C414.015 807.102 414.357 808.254 414.421 809.437V879.142C414.358 880.325 414.016 881.477 413.423 882.503C412.831 883.529 412.004 884.4 411.011 885.045L385.858 899.584C384.803 900.12 383.636 900.399 382.453 900.399C381.269 900.399 380.102 900.12 379.047 899.584L344.303 879.508C343.311 878.86 342.485 877.989 341.893 876.963C341.301 875.938 340.958 874.786 340.895 873.603V803.898C340.958 802.714 341.301 801.563 341.893 800.534C342.485 799.507 343.311 798.635 344.303 797.987L369.457 783.457C370.513 782.921 371.679 782.641 372.863 782.641C374.046 782.641 375.212 782.921 376.268 783.457Z" fill="#FF0000"/>
</mask>
<g mask="url(#mask7_380_13943)">
<path d="M414.421 782.641H340.894V900.399H414.421V782.641Z" fill="#2D3A40"/>
</g>
<mask id="mask8_380_13943" style="mask-type:alpha" maskUnits="userSpaceOnUse" x="341" y="801" width="42" height="99">
<path d="M380.569 899.624C381.49 899.624 382.038 898.869 382.038 897.607V827.902C381.977 826.791 381.656 825.71 381.102 824.748C380.547 823.784 379.774 822.964 378.843 822.356L344.1 802.278C343.706 802.034 343.255 801.893 342.789 801.871C341.869 801.871 341.313 802.627 341.313 803.889V873.594C341.374 874.705 341.697 875.786 342.253 876.75C342.809 877.714 343.584 878.532 344.515 879.141L379.258 899.218C379.653 899.464 380.105 899.603 380.569 899.624Z" fill="#FF0000"/>
</mask>
<g mask="url(#mask8_380_13943)">
<path d="M382.037 801.871H341.313V899.625H382.037V801.871Z" fill="#263238"/>
</g>
<mask id="mask9_380_13943" style="mask-type:alpha" maskUnits="userSpaceOnUse" x="340" y="801" width="43" height="100">
<path d="M342.785 801.461C343.323 801.481 343.847 801.641 344.303 801.926L379.047 821.995C380.038 822.645 380.861 823.518 381.453 824.545C382.043 825.572 382.384 826.724 382.448 827.907V897.612C382.448 899.147 381.685 900.044 380.565 900.044C380.027 900.024 379.503 899.865 379.047 899.58L344.303 879.503C343.311 878.856 342.485 877.985 341.893 876.959C341.301 875.933 340.958 874.782 340.895 873.599V803.894C340.895 802.35 341.665 801.461 342.785 801.461ZM342.785 802.292C341.832 802.292 341.724 803.413 341.724 803.894V873.599C341.791 874.636 342.095 875.645 342.615 876.544C343.134 877.444 343.855 878.212 344.718 878.788L379.461 898.857C379.793 899.069 380.172 899.192 380.565 899.214C381.519 899.214 381.619 898.093 381.619 897.612V827.907C381.555 826.87 381.251 825.862 380.732 824.963C380.214 824.062 379.495 823.294 378.632 822.717L343.889 802.64C343.557 802.431 343.178 802.311 342.785 802.292Z" fill="#FF0000"/>
</mask>
<g mask="url(#mask9_380_13943)">
<path d="M382.448 801.461H340.894V900.044H382.448V801.461Z" fill="#2D3A40"/>
</g>
<mask id="mask10_380_13943" style="mask-type:alpha" maskUnits="userSpaceOnUse" x="382" y="806" width="33" height="95">
<path d="M385.861 821.992L411.014 807.462C412.898 806.374 414.424 807.255 414.424 809.43V879.135C414.361 880.318 414.019 881.47 413.426 882.496C412.834 883.522 412.007 884.393 411.014 885.038L385.861 899.578C383.978 900.664 382.451 899.785 382.451 897.609V827.904C382.516 826.72 382.858 825.567 383.45 824.54C384.042 823.513 384.868 822.641 385.861 821.992Z" fill="#FF0000"/>
</mask>
<g mask="url(#mask10_380_13943)">
<path d="M414.424 806.996H382.452V900.043H414.424V806.996Z" fill="#37474F"/>
</g>
<mask id="mask11_380_13943" style="mask-type:alpha" maskUnits="userSpaceOnUse" x="342" y="782" width="71" height="41">
<path d="M369.458 783.457L344.304 797.987C342.422 799.075 342.422 800.843 344.304 801.931L379.048 821.999C380.103 822.535 381.27 822.815 382.453 822.815C383.637 822.815 384.804 822.535 385.859 821.999L411.012 807.469C412.896 806.381 412.896 804.622 411.012 803.533L376.269 783.457C375.214 782.921 374.047 782.641 372.864 782.641C371.681 782.641 370.513 782.921 369.458 783.457Z" fill="#FF0000"/>
</mask>
<g mask="url(#mask11_380_13943)">
<path d="M412.425 782.641H342.893V822.815H412.425V782.641Z" fill="#2D3A40"/>
</g>
<mask id="mask12_380_13943" style="mask-type:alpha" maskUnits="userSpaceOnUse" x="347" y="847" width="29" height="38">
<path d="M361.681 882.083C353.775 877.516 347.37 866.406 347.37 857.273C347.37 848.14 353.775 844.436 361.681 848.97C369.587 853.504 375.991 864.646 375.991 873.78C375.991 882.913 369.579 886.633 361.681 882.083Z" fill="#FF0000"/>
</mask>
<g mask="url(#mask12_380_13943)">
<path d="M375.989 847.035H347.368V884.025H375.989V847.035Z" fill="#37474F"/>
</g>
<mask id="mask13_380_13943" style="mask-type:alpha" maskUnits="userSpaceOnUse" x="348" y="848" width="27" height="35">
<path d="M361.68 880.408C354.571 876.256 348.805 866.292 348.805 858.088C348.805 849.885 354.612 846.538 361.68 850.616C368.749 854.693 374.555 864.731 374.555 872.935C374.555 881.138 368.79 884.501 361.68 880.408Z" fill="#FF0000"/>
</mask>
<g mask="url(#mask13_380_13943)">
<path d="M374.555 848.879H348.805V882.151H374.555V848.879Z" fill="#263238"/>
</g>
<mask id="mask14_380_13943" style="mask-type:alpha" maskUnits="userSpaceOnUse" x="354" y="855" width="16" height="21">
<path d="M361.676 874.215C357.528 871.816 354.16 865.986 354.16 861.188C354.16 856.388 357.478 854.445 361.676 856.845C365.873 859.245 369.192 865.073 369.192 869.872C369.192 874.672 365.824 876.615 361.676 874.215Z" fill="#FF0000"/>
</mask>
<g mask="url(#mask14_380_13943)">
<path d="M369.192 855.816H354.16V875.243H369.192V855.816Z" fill="#37474F"/>
</g>
<mask id="mask15_380_13943" style="mask-type:alpha" maskUnits="userSpaceOnUse" x="359" y="862" width="5" height="7">
<path d="M361.678 868.111C361.033 867.683 360.495 867.11 360.109 866.439C359.723 865.768 359.499 865.015 359.455 864.241C359.455 862.813 360.45 862.232 361.686 862.946C362.333 863.373 362.872 863.945 363.259 864.617C363.647 865.288 363.872 866.041 363.918 866.815C363.91 868.243 362.906 868.8 361.678 868.111Z" fill="#FF0000"/>
</mask>
<g mask="url(#mask15_380_13943)">
<path d="M363.916 862.641H359.453V868.405H363.916V862.641Z" fill="#455A64"/>
</g>
<mask id="mask16_380_13943" style="mask-type:alpha" maskUnits="userSpaceOnUse" x="351" y="817" width="22" height="29">
<path d="M361.675 843.663C355.867 840.292 351.123 832.105 351.123 825.397C351.123 818.688 355.842 815.922 361.675 819.294C367.506 822.665 372.227 830.852 372.227 837.561C372.227 844.269 367.498 847.034 361.675 843.663Z" fill="#FF0000"/>
</mask>
<g mask="url(#mask16_380_13943)">
<path d="M372.228 817.855H351.124V845.101H372.228V817.855Z" fill="#37474F"/>
</g>
<mask id="mask17_380_13943" style="mask-type:alpha" maskUnits="userSpaceOnUse" x="352" y="819" width="20" height="25">
<path d="M361.677 842.474C356.434 839.443 352.178 832.07 352.178 826.009C352.178 819.948 356.434 817.49 361.677 820.52C366.92 823.551 371.166 830.924 371.166 836.986C371.166 843.047 366.92 845.505 361.677 842.474Z" fill="#FF0000"/>
</mask>
<g mask="url(#mask17_380_13943)">
<path d="M371.167 819.223H352.178V843.772H371.167V819.223Z" fill="#263238"/>
</g>
<mask id="mask18_380_13943" style="mask-type:alpha" maskUnits="userSpaceOnUse" x="356" y="824" width="12" height="15">
<path d="M361.673 837.901C360.059 836.847 358.716 835.427 357.753 833.757C356.79 832.086 356.235 830.212 356.131 828.286C356.131 824.749 358.62 823.304 361.673 825.081C363.286 826.135 364.628 827.556 365.591 829.225C366.554 830.896 367.111 832.771 367.215 834.696C367.215 838.233 364.734 839.669 361.673 837.901Z" fill="#FF0000"/>
</mask>
<g mask="url(#mask18_380_13943)">
<path d="M367.215 824.32H356.131V838.658H367.215V824.32Z" fill="#37474F"/>
</g>
<mask id="mask19_380_13943" style="mask-type:alpha" maskUnits="userSpaceOnUse" x="360" y="829" width="4" height="5">
<path d="M361.677 833.362C361.195 833.052 360.793 832.631 360.505 832.135C360.217 831.638 360.049 831.08 360.018 830.506C360.018 829.46 360.757 829.037 361.677 829.56C362.159 829.872 362.561 830.293 362.849 830.789C363.137 831.286 363.305 831.843 363.336 832.416C363.32 833.462 362.582 833.895 361.677 833.362Z" fill="#FF0000"/>
</mask>
<g mask="url(#mask19_380_13943)">
<path d="M363.337 829.336H360.018V833.59H363.337V829.336Z" fill="#455A64"/>
</g>
<mask id="mask20_380_13943" style="mask-type:alpha" maskUnits="userSpaceOnUse" x="343" y="805" width="3" height="4">
<path d="M344.617 805.791C344.972 806.022 345.267 806.332 345.479 806.699C345.691 807.066 345.814 807.477 345.836 807.9C345.836 808.681 345.289 808.996 344.617 808.606C344.263 808.374 343.969 808.063 343.757 807.696C343.545 807.33 343.422 806.92 343.397 806.497C343.397 805.683 343.946 805.4 344.617 805.791Z" fill="#FF0000"/>
</mask>
<g mask="url(#mask20_380_13943)">
<path d="M345.836 805.617H343.397V808.773H345.836V805.617Z" fill="#37474F"/>
</g>
<mask id="mask21_380_13943" style="mask-type:alpha" maskUnits="userSpaceOnUse" x="376" y="824" width="4" height="5">
<path d="M378.04 825.105C378.396 825.335 378.692 825.647 378.904 826.013C379.116 826.38 379.237 826.791 379.26 827.214C379.26 827.994 378.713 828.311 378.04 827.92C377.685 827.687 377.39 827.375 377.178 827.007C376.967 826.639 376.844 826.226 376.821 825.803C376.821 825.03 377.369 824.715 378.04 825.105Z" fill="#FF0000"/>
</mask>
<g mask="url(#mask21_380_13943)">
<path d="M379.259 824.938H376.82V828.087H379.259V824.938Z" fill="#37474F"/>
</g>
<mask id="mask22_380_13943" style="mask-type:alpha" maskUnits="userSpaceOnUse" x="343" y="872" width="3" height="5">
<path d="M344.617 873.164C344.973 873.394 345.268 873.705 345.48 874.071C345.692 874.438 345.814 874.85 345.836 875.273C345.836 876.054 345.289 876.361 344.617 875.979C344.262 875.747 343.967 875.434 343.755 875.065C343.544 874.697 343.421 874.286 343.397 873.861C343.397 873.089 343.946 872.773 344.617 873.164Z" fill="#FF0000"/>
</mask>
<g mask="url(#mask22_380_13943)">
<path d="M345.836 872.996H343.397V876.143H345.836V872.996Z" fill="#37474F"/>
</g>
<mask id="mask23_380_13943" style="mask-type:alpha" maskUnits="userSpaceOnUse" x="376" y="892" width="4" height="4">
<path d="M378.04 892.475C378.395 892.707 378.69 893.02 378.902 893.387C379.114 893.755 379.237 894.168 379.26 894.591C379.26 895.364 378.713 895.679 378.04 895.289C377.685 895.059 377.39 894.748 377.178 894.381C376.966 894.014 376.844 893.603 376.821 893.18C376.821 892.408 377.369 892.093 378.04 892.475Z" fill="#FF0000"/>
</mask>
<g mask="url(#mask23_380_13943)">
<path d="M379.259 892.312H376.82V895.456H379.259V892.312Z" fill="#37474F"/>
</g>
<mask id="mask24_380_13943" style="mask-type:alpha" maskUnits="userSpaceOnUse" x="392" y="838" width="13" height="31">
<path d="M401.424 864.711L395.451 868.165C393.569 869.253 392.042 868.372 392.042 866.196V848.212C392.105 847.029 392.447 845.877 393.039 844.851C393.632 843.825 394.458 842.954 395.451 842.309L401.424 838.896C403.308 837.808 404.834 838.689 404.834 840.863V858.824C404.768 860.003 404.424 861.151 403.832 862.175C403.239 863.197 402.415 864.066 401.424 864.711Z" fill="#FF0000"/>
</mask>
<g mask="url(#mask24_380_13943)">
<path d="M404.834 838.43H392.042V868.631H404.834V838.43Z" fill="#2D3A40"/>
</g>
<mask id="mask25_380_13943" style="mask-type:alpha" maskUnits="userSpaceOnUse" x="393" y="840" width="11" height="11">
<path d="M403.224 842.053C403.224 840.749 402.312 840.218 401.175 840.866L395.676 844.046C395.082 844.436 394.587 844.96 394.232 845.575C393.877 846.191 393.672 846.881 393.634 847.592V850.771L403.224 845.233V842.053Z" fill="#FF0000"/>
</mask>
<g mask="url(#mask25_380_13943)">
<path d="M403.225 840.59H393.634V850.771H403.225V840.59Z" fill="#37474F"/>
</g>
<mask id="mask26_380_13943" style="mask-type:alpha" maskUnits="userSpaceOnUse" x="393" y="856" width="11" height="11">
<path d="M393.634 864.988C393.634 866.292 394.546 866.823 395.676 866.176L401.184 862.987C401.777 862.598 402.272 862.075 402.627 861.458C402.981 860.842 403.186 860.152 403.224 859.443V856.262L393.634 861.8V864.988Z" fill="#FF0000"/>
</mask>
<g mask="url(#mask26_380_13943)">
<path d="M403.225 856.262H393.634V866.451H403.225V856.262Z" fill="#37474F"/>
</g>
</g>
<mask id="mask27_380_13943" style="mask-type:luminance" maskUnits="userSpaceOnUse" x="343" y="735" width="69" height="83">
<path d="M343.39 735.539H411.558V817.918H343.39V735.539Z" fill="white"/>
</mask>
<g mask="url(#mask27_380_13943)">
<mask id="mask28_380_13943" style="mask-type:alpha" maskUnits="userSpaceOnUse" x="343" y="735" width="69" height="83">
<path d="M376.179 736.288L408.4 754.895C409.322 755.493 410.088 756.3 410.638 757.251C411.187 758.202 411.503 759.27 411.562 760.367V798.196C411.504 799.296 411.188 800.366 410.639 801.32C410.089 802.274 409.322 803.084 408.4 803.684L385.097 817.152C384.119 817.648 383.038 817.906 381.94 817.906C380.844 817.906 379.762 817.648 378.784 817.152L346.588 798.546C345.669 797.945 344.905 797.137 344.357 796.187C343.809 795.236 343.493 794.169 343.436 793.074V755.236C343.494 754.139 343.81 753.071 344.357 752.119C344.906 751.167 345.669 750.358 346.588 749.756L369.899 736.288C370.874 735.798 371.949 735.543 373.04 735.543C374.129 735.543 375.204 735.798 376.179 736.288Z" fill="#FF0000"/>
</mask>
<g mask="url(#mask28_380_13943)">
<path d="M411.56 735.543H343.434V817.906H411.56V735.543Z" fill="#2D3A40"/>
</g>
<mask id="mask29_380_13943" style="mask-type:alpha" maskUnits="userSpaceOnUse" x="343" y="753" width="39" height="65">
<path d="M380.189 817.187C381.019 817.187 381.517 816.498 381.517 815.343V777.498C381.455 776.471 381.151 775.472 380.633 774.584C380.114 773.695 379.394 772.941 378.529 772.383L346.341 753.784C345.977 753.557 345.56 753.428 345.13 753.41C344.301 753.41 343.803 754.099 343.803 755.245V793.091C343.858 794.116 344.153 795.114 344.666 796.003C345.18 796.892 345.896 797.647 346.756 798.205L378.944 816.805C379.318 817.04 379.748 817.172 380.189 817.187Z" fill="#FF0000"/>
</mask>
<g mask="url(#mask29_380_13943)">
<path d="M381.517 753.41H343.803V817.187H381.517V753.41Z" fill="#263238"/>
</g>
<mask id="mask30_380_13943" style="mask-type:alpha" maskUnits="userSpaceOnUse" x="343" y="752" width="39" height="66">
<path d="M345.128 752.996C345.625 753.012 346.109 753.161 346.53 753.428L378.726 772.027C379.646 772.626 380.411 773.434 380.96 774.385C381.51 775.335 381.827 776.402 381.887 777.499V815.345C381.887 816.773 381.182 817.603 380.145 817.603C379.646 817.583 379.16 817.434 378.735 817.172L346.538 798.564C345.62 797.965 344.856 797.157 344.308 796.206C343.761 795.255 343.444 794.188 343.386 793.092V755.255C343.386 753.818 344.099 752.996 345.136 752.996H345.128ZM345.136 753.826C344.306 753.826 344.223 754.823 344.223 755.255V793.092C344.283 794.043 344.561 794.967 345.035 795.792C345.511 796.618 346.17 797.321 346.962 797.85L379.157 816.482C379.457 816.672 379.799 816.784 380.153 816.806C380.984 816.806 381.066 815.809 381.066 815.378V777.499C381.006 776.549 380.727 775.625 380.25 774.801C379.774 773.977 379.113 773.274 378.32 772.749L346.123 754.142C345.825 753.953 345.481 753.844 345.128 753.826L345.136 753.826Z" fill="#FF0000"/>
</mask>
<g mask="url(#mask30_380_13943)">
<path d="M381.887 752.996H343.386V817.603H381.887V752.996Z" fill="#2D3A40"/>
</g>
<mask id="mask31_380_13943" style="mask-type:alpha" maskUnits="userSpaceOnUse" x="381" y="758" width="31" height="60">
<path d="M385.064 772.027L408.4 758.559C410.15 757.555 411.56 758.368 411.56 760.386V798.216C411.504 799.314 411.188 800.385 410.638 801.339C410.089 802.292 409.322 803.102 408.4 803.704L385.097 817.172C383.355 818.176 381.944 817.362 381.944 815.345V777.499C381.999 776.406 382.311 775.341 382.852 774.39C383.395 773.441 384.151 772.631 385.064 772.027Z" fill="#FF0000"/>
</mask>
<g mask="url(#mask31_380_13943)">
<path d="M411.56 758.129H381.944V817.602H411.56V758.129Z" fill="#37474F"/>
</g>
<mask id="mask32_380_13943" style="mask-type:alpha" maskUnits="userSpaceOnUse" x="345" y="735" width="65" height="38">
<path d="M369.861 736.297L346.549 749.765C344.807 750.778 344.807 752.405 346.549 753.418L378.745 772.017C379.724 772.513 380.806 772.771 381.902 772.771C382.999 772.771 384.08 772.513 385.059 772.017L408.395 758.55C410.145 757.545 410.145 755.909 408.395 754.904L376.207 736.297C375.224 735.796 374.137 735.535 373.033 735.535C371.931 735.535 370.844 735.796 369.861 736.297Z" fill="#FF0000"/>
</mask>
<g mask="url(#mask32_380_13943)">
<path d="M409.708 735.535H345.242V772.771H409.708V735.535Z" fill="#2D3A40"/>
</g>
<mask id="mask33_380_13943" style="mask-type:alpha" maskUnits="userSpaceOnUse" x="349" y="768" width="27" height="35">
<path d="M362.649 800.952C355.324 796.725 349.375 786.43 349.375 777.968C349.375 769.508 355.316 766.071 362.649 770.305C369.983 774.54 375.923 784.827 375.923 793.297C375.923 801.765 369.967 805.187 362.649 800.952Z" fill="#FF0000"/>
</mask>
<g mask="url(#mask33_380_13943)">
<path d="M375.925 768.484H349.377V802.76H375.925V768.484Z" fill="#37474F"/>
</g>
<mask id="mask34_380_13943" style="mask-type:alpha" maskUnits="userSpaceOnUse" x="350" y="770" width="25" height="32">
<path d="M362.653 799.391C356.017 795.588 350.725 786.321 350.725 778.708C350.725 771.094 356.058 768.006 362.653 771.816C369.249 775.628 374.583 784.918 374.583 792.499C374.583 800.08 369.24 803.186 362.653 799.391Z" fill="#FF0000"/>
</mask>
<g mask="url(#mask34_380_13943)">
<path d="M374.583 770.184H350.725V801.01H374.583V770.184Z" fill="#263238"/>
</g>
<mask id="mask35_380_13943" style="mask-type:alpha" maskUnits="userSpaceOnUse" x="355" y="776" width="15" height="19">
<path d="M362.656 793.657C358.806 791.432 355.688 786.026 355.688 781.585C355.688 777.142 358.806 775.332 362.656 777.558C366.505 779.783 369.616 785.188 369.616 789.63C369.616 794.073 366.497 795.883 362.656 793.657Z" fill="#FF0000"/>
</mask>
<g mask="url(#mask35_380_13943)">
<path d="M369.614 776.605H355.686V794.609H369.614V776.605Z" fill="#37474F"/>
</g>
<mask id="mask36_380_13943" style="mask-type:alpha" maskUnits="userSpaceOnUse" x="360" y="782" width="5" height="7">
<path d="M362.651 787.989C362.049 787.596 361.546 787.066 361.187 786.444C360.826 785.82 360.617 785.121 360.578 784.401C360.578 783.081 361.507 782.542 362.651 783.207C363.253 783.6 363.753 784.129 364.112 784.753C364.471 785.376 364.679 786.075 364.717 786.793C364.717 788.113 363.788 788.645 362.651 787.989Z" fill="#FF0000"/>
</mask>
<g mask="url(#mask36_380_13943)">
<path d="M364.717 782.922H360.578V788.27H364.717V782.922Z" fill="#455A64"/>
</g>
<mask id="mask37_380_13943" style="mask-type:alpha" maskUnits="userSpaceOnUse" x="345" y="756" width="3" height="4">
<path d="M346.847 757.003C347.175 757.216 347.449 757.504 347.645 757.843C347.841 758.183 347.954 758.563 347.977 758.954C347.977 759.677 347.471 759.967 346.847 759.61C346.518 759.396 346.245 759.106 346.048 758.766C345.853 758.425 345.74 758.043 345.719 757.651C345.719 756.928 346.176 756.679 346.847 757.003Z" fill="#FF0000"/>
</mask>
<g mask="url(#mask37_380_13943)">
<path d="M347.979 756.863H345.721V759.762H347.979V756.863Z" fill="#37474F"/>
</g>
<mask id="mask38_380_13943" style="mask-type:alpha" maskUnits="userSpaceOnUse" x="376" y="774" width="3" height="4">
<path d="M377.812 774.975C378.14 775.189 378.413 775.477 378.61 775.816C378.806 776.155 378.919 776.536 378.94 776.926C378.94 777.649 378.442 777.939 377.812 777.583C377.483 777.368 377.209 777.079 377.013 776.739C376.818 776.398 376.704 776.015 376.684 775.623C376.684 774.867 377.19 774.569 377.812 774.975Z" fill="#FF0000"/>
</mask>
<g mask="url(#mask38_380_13943)">
<path d="M378.941 774.793H376.685V777.735H378.941V774.793Z" fill="#37474F"/>
</g>
<mask id="mask39_380_13943" style="mask-type:alpha" maskUnits="userSpaceOnUse" x="345" y="792" width="3" height="4">
<path d="M346.847 792.696C347.175 792.909 347.449 793.197 347.645 793.536C347.84 793.875 347.954 794.256 347.976 794.647C347.976 795.369 347.47 795.66 346.847 795.303C346.518 795.089 346.245 794.799 346.048 794.459C345.852 794.118 345.74 793.736 345.719 793.343C345.719 792.629 346.176 792.33 346.847 792.696Z" fill="#FF0000"/>
</mask>
<g mask="url(#mask39_380_13943)">
<path d="M347.977 792.539H345.719V795.455H347.977V792.539Z" fill="#37474F"/>
</g>
<mask id="mask40_380_13943" style="mask-type:alpha" maskUnits="userSpaceOnUse" x="376" y="810" width="3" height="4">
<path d="M377.811 810.59C378.14 810.804 378.414 811.093 378.61 811.434C378.806 811.774 378.919 812.157 378.939 812.549C378.939 813.263 378.441 813.562 377.811 813.197C377.483 812.983 377.21 812.696 377.014 812.356C376.817 812.017 376.704 811.637 376.683 811.246C376.683 810.523 377.189 810.233 377.811 810.59Z" fill="#FF0000"/>
</mask>
<g mask="url(#mask40_380_13943)">
<path d="M378.938 810.438H376.682V813.353H378.938V810.438Z" fill="#37474F"/>
</g>
<mask id="mask41_380_13943" style="mask-type:alpha" maskUnits="userSpaceOnUse" x="386" y="776" width="22" height="24">
<path d="M407.076 784.971V778.577C407.076 776.56 405.665 775.746 403.923 776.751L389.505 785.054C388.586 785.654 387.821 786.464 387.272 787.416C386.722 788.368 386.405 789.436 386.344 790.534V796.927C386.344 798.945 387.762 799.759 389.505 798.754L403.923 790.451C404.843 789.85 405.608 789.041 406.156 788.088C406.703 787.136 407.019 786.068 407.076 784.971Z" fill="#FF0000"/>
</mask>
<g mask="url(#mask41_380_13943)">
<path d="M407.076 776.32H386.344V799.184H407.076V776.32Z" fill="#2D3A40"/>
</g>
<mask id="mask42_380_13943" style="mask-type:alpha" maskUnits="userSpaceOnUse" x="387" y="785" width="6" height="13">
<path d="M389.74 796.93C388.695 797.536 387.848 797.046 387.848 795.834V789.947C387.879 789.283 388.065 788.635 388.394 788.058C388.723 787.48 389.185 786.99 389.74 786.625L392.287 785.156V795.427L389.74 796.93Z" fill="#FF0000"/>
</mask>
<g mask="url(#mask42_380_13943)">
<path d="M392.285 785.156H387.846V797.19H392.285V785.156Z" fill="#37474F"/>
</g>
<mask id="mask43_380_13943" style="mask-type:alpha" maskUnits="userSpaceOnUse" x="401" y="778" width="5" height="13">
<path d="M403.687 778.595C404.74 777.997 405.586 778.487 405.586 779.691V785.586C405.553 786.244 405.363 786.885 405.033 787.456C404.702 788.026 404.241 788.509 403.687 788.865L401.14 790.344V780.073L403.687 778.595Z" fill="#FF0000"/>
</mask>
<g mask="url(#mask43_380_13943)">
<path d="M405.586 778.34H401.14V790.344H405.586V778.34Z" fill="#37474F"/>
</g>
</g>
</g>
</g>
<path d="M235.119 438.922C235.096 437.838 236.394 437.266 237.179 438.014L242.116 442.719C242.447 443.034 242.927 443.138 243.358 442.987L249.798 440.743C250.822 440.386 251.767 441.443 251.298 442.421L248.35 448.57C248.152 448.983 248.202 449.471 248.478 449.835L252.602 455.266C253.258 456.129 252.545 457.355 251.47 457.211L244.711 456.307C244.258 456.246 243.809 456.444 243.548 456.82L239.657 462.421C239.039 463.311 237.652 463.011 237.457 461.945L236.228 455.237C236.146 454.787 235.819 454.421 235.381 454.289L228.852 452.32C227.814 452.007 227.671 450.596 228.625 450.08L234.625 446.839C235.027 446.621 235.274 446.197 235.264 445.74L235.119 438.922Z" fill="black"/>
<path d="M234.004 439.411C233.981 438.327 235.278 437.754 236.063 438.502L241 443.207C241.331 443.522 241.811 443.626 242.243 443.476L248.682 441.231C249.706 440.874 250.651 441.932 250.183 442.909L247.234 449.059C247.036 449.471 247.086 449.959 247.362 450.323L251.487 455.754C252.142 456.617 251.429 457.843 250.354 457.699L243.595 456.795C243.142 456.735 242.693 456.933 242.432 457.308L238.541 462.909C237.923 463.799 236.537 463.5 236.341 462.433L235.112 455.725C235.03 455.275 234.703 454.91 234.265 454.778L227.736 452.808C226.698 452.495 226.555 451.084 227.509 450.569L233.509 447.327C233.911 447.11 234.158 446.686 234.148 446.229L234.004 439.411Z" fill="#212B30"/>
<path d="M262.986 605.628C263.682 604.796 265.036 605.218 265.136 606.298L265.763 613.088C265.806 613.543 266.099 613.937 266.523 614.107L272.851 616.649C273.857 617.053 273.875 618.471 272.879 618.9L266.614 621.595C266.194 621.776 265.911 622.177 265.88 622.633L265.418 629.437C265.344 630.518 264.001 630.973 263.286 630.158L258.786 625.034C258.485 624.69 258.016 624.544 257.573 624.656L250.959 626.319C249.908 626.583 249.06 625.446 249.614 624.514L253.097 618.651C253.331 618.258 253.325 617.768 253.082 617.38L249.456 611.604C248.88 610.686 249.7 609.529 250.757 609.767L257.41 611.268C257.855 611.369 258.32 611.212 258.613 610.861L262.986 605.628Z" fill="black"/>
<path d="M261.823 605.265C262.518 604.433 263.872 604.855 263.972 605.934L264.6 612.725C264.642 613.18 264.935 613.573 265.359 613.744L271.687 616.286C272.694 616.69 272.711 618.108 271.715 618.537L265.451 621.232C265.031 621.413 264.747 621.813 264.716 622.269L264.254 629.073C264.181 630.155 262.838 630.61 262.122 629.795L257.623 624.67C257.321 624.327 256.853 624.181 256.409 624.292L249.796 625.956C248.744 626.22 247.897 625.083 248.45 624.151L251.934 618.288C252.167 617.895 252.161 617.404 251.918 617.017L248.293 611.241C247.716 610.323 248.536 609.165 249.594 609.404L256.246 610.905C256.692 611.006 257.157 610.849 257.45 610.498L261.823 605.265Z" fill="#212B30"/>
<path d="M347.749 631.7C348.669 631.126 349.824 631.949 349.582 633.006L348.062 639.654C347.96 640.1 348.116 640.565 348.466 640.859L353.687 645.247C354.517 645.944 354.091 647.297 353.011 647.394L346.219 648.003C345.764 648.044 345.37 648.336 345.198 648.759L342.638 655.08C342.231 656.085 340.813 656.099 340.387 655.101L337.709 648.83C337.53 648.409 337.13 648.125 336.674 648.092L329.872 647.611C328.79 647.535 328.339 646.19 329.156 645.477L334.293 640.992C334.638 640.691 334.785 640.223 334.675 639.78L333.03 633.161C332.768 632.109 333.908 631.265 334.839 631.821L340.692 635.321C341.084 635.556 341.575 635.551 341.962 635.309L347.749 631.7Z" fill="black"/>
<path d="M346.755 630.993C347.675 630.419 348.831 631.242 348.589 632.299L347.069 638.947C346.967 639.393 347.123 639.858 347.473 640.152L352.694 644.54C353.524 645.237 353.098 646.59 352.018 646.687L345.226 647.296C344.771 647.336 344.376 647.629 344.205 648.052L341.645 654.373C341.238 655.378 339.82 655.392 339.394 654.394L336.716 648.123C336.537 647.702 336.137 647.418 335.681 647.385L328.878 646.904C327.797 646.828 327.346 645.483 328.163 644.77L333.3 640.285C333.644 639.984 333.792 639.516 333.681 639.073L332.037 632.454C331.775 631.402 332.915 630.558 333.845 631.114L339.698 634.614C340.091 634.849 340.581 634.844 340.969 634.602L346.755 630.993Z" fill="#212B30"/>
<path d="M286.06 282.328C286.551 281.164 288.204 281.173 288.683 282.343L291.694 289.695C291.896 290.188 292.356 290.527 292.887 290.572L300.804 291.25C302.063 291.358 302.565 292.933 301.601 293.749L295.538 298.885C295.132 299.229 294.952 299.772 295.073 300.291L296.874 308.03C297.161 309.26 295.819 310.224 294.744 309.56L287.986 305.381C287.533 305.101 286.961 305.098 286.505 305.373L279.701 309.478C278.619 310.13 277.288 309.152 277.588 307.924L279.474 300.206C279.6 299.689 279.426 299.144 279.024 298.795L273.018 293.594C272.063 292.766 272.582 291.198 273.842 291.104L281.766 290.512C282.297 290.472 282.761 290.139 282.968 289.648L286.06 282.328Z" fill="black"/>
<path d="M284.639 282.32C285.131 281.157 286.783 281.166 287.262 282.335L290.273 289.688C290.475 290.18 290.936 290.519 291.467 290.564L299.384 291.243C300.642 291.35 301.144 292.925 300.18 293.741L294.118 298.877C293.711 299.222 293.532 299.764 293.652 300.283L295.454 308.022C295.74 309.252 294.398 310.216 293.324 309.552L286.565 305.373C286.112 305.093 285.54 305.09 285.084 305.365L278.281 309.47C277.199 310.123 275.867 309.144 276.167 307.917L278.053 300.198C278.18 299.681 278.006 299.136 277.603 298.787L271.597 293.586C270.642 292.759 271.161 291.19 272.421 291.096L280.345 290.504C280.876 290.464 281.341 290.131 281.548 289.64L284.639 282.32Z" fill="#212B30"/>
<path d="M218.672 274.261C218.692 273.615 219.483 273.314 219.927 273.784L222.722 276.741C222.909 276.94 223.192 277.016 223.454 276.94L227.361 275.804C227.982 275.623 228.512 276.283 228.202 276.85L226.253 280.422C226.123 280.662 226.137 280.954 226.29 281.179L228.578 284.544C228.942 285.079 228.479 285.787 227.843 285.668L223.844 284.918C223.576 284.868 223.302 284.972 223.135 285.188L220.642 288.403C220.246 288.915 219.429 288.693 219.346 288.051L218.823 284.016C218.788 283.746 218.605 283.518 218.348 283.425L214.52 282.048C213.911 281.829 213.87 280.984 214.454 280.707L218.13 278.963C218.376 278.846 218.537 278.601 218.545 278.328L218.672 274.261Z" fill="black"/>
<path d="M217.991 274.515C218.011 273.869 218.802 273.568 219.247 274.038L222.041 276.995C222.229 277.193 222.511 277.27 222.773 277.194L226.68 276.058C227.301 275.877 227.831 276.536 227.521 277.104L225.573 280.676C225.442 280.915 225.456 281.208 225.61 281.433L227.898 284.798C228.262 285.333 227.798 286.041 227.162 285.922L223.163 285.172C222.895 285.122 222.622 285.226 222.454 285.441L219.962 288.657C219.565 289.168 218.749 288.947 218.666 288.305L218.143 284.27C218.108 284 217.924 283.771 217.668 283.679L213.839 282.302C213.23 282.083 213.189 281.238 213.773 280.961L217.449 279.216C217.696 279.1 217.856 278.855 217.864 278.582L217.991 274.515Z" fill="#212B30"/>
<path fill-rule="evenodd" clip-rule="evenodd" d="M298.022 387.66L297.733 389.342L297.737 389.349L291.947 392.987L291.945 392.984L290.016 394.196L290.018 394.199L284.23 397.836L282.301 399.048L284.421 402.423L289 409.71C288.822 409.776 288.649 409.862 288.483 409.966C287.151 410.803 286.75 412.561 287.586 413.892C288.423 415.224 290.181 415.625 291.513 414.788C292.844 413.951 293.246 412.194 292.409 410.862L292.406 410.857L292.409 410.855L286.35 401.211L292.138 397.574L296.711 404.852C296.535 404.918 296.363 405.003 296.198 405.107C294.866 405.943 294.464 407.701 295.301 409.033C296.138 410.364 297.895 410.765 299.227 409.929C300.559 409.092 300.96 407.335 300.124 406.003L300.124 406.003L294.067 396.362L299.858 392.724L304.431 400.003C304.254 400.069 304.081 400.154 303.914 400.259C302.583 401.096 302.181 402.854 303.018 404.185C303.854 405.517 305.612 405.918 306.944 405.081C308.276 404.244 308.677 402.486 307.841 401.155C307.84 401.154 307.839 401.153 307.839 401.152L307.842 401.149L299.662 388.13L298.022 387.66Z" fill="black"/>
<path fill-rule="evenodd" clip-rule="evenodd" d="M287.355 409.221L282.777 401.934L280.656 398.559L282.586 397.347L298.02 387.65L300.14 391.025L300.139 391.026L306.146 400.586C306.165 400.614 306.183 400.642 306.201 400.67C307.037 402.001 306.636 403.759 305.304 404.596C303.972 405.433 302.214 405.032 301.378 403.7C300.541 402.369 300.943 400.611 302.274 399.774C302.439 399.671 302.61 399.586 302.785 399.52L298.21 392.238L292.422 395.874L298.482 405.518L298.479 405.52L298.483 405.525C299.319 406.857 298.918 408.615 297.586 409.451C296.254 410.288 294.497 409.887 293.66 408.556C292.823 407.224 293.225 405.466 294.557 404.63C294.723 404.525 294.895 404.44 295.072 404.374L290.493 397.086L284.706 400.722L290.765 410.366L290.762 410.368L290.765 410.373C291.602 411.705 291.2 413.462 289.868 414.299C288.537 415.136 286.779 414.735 285.942 413.403C285.106 412.072 285.507 410.314 286.839 409.477C287.005 409.373 287.178 409.287 287.355 409.221Z" fill="#212B30"/>
<path fill-rule="evenodd" clip-rule="evenodd" d="M269.927 534.171L263.821 531.094L258.694 541.268L258.694 541.268C257.986 542.671 256.275 543.235 254.871 542.527C253.466 541.82 252.901 540.107 253.609 538.703C254.316 537.299 256.029 536.734 257.433 537.442C257.607 537.53 257.769 537.633 257.916 537.749L261.786 530.069L255.681 526.992L250.556 537.162L250.555 537.162L250.554 537.165C249.846 538.569 248.134 539.134 246.729 538.426C245.324 537.718 244.759 536.006 245.467 534.602C246.175 533.197 247.887 532.633 249.292 533.34C249.466 533.428 249.628 533.532 249.775 533.648L253.646 525.967L253.645 525.966L255.438 522.407L255.44 522.407L255.44 522.407L257.475 523.432L257.474 523.433L271.724 530.613L273.308 529.993L273.753 531.641L266.834 545.371L266.831 545.37C266.121 546.77 264.412 547.332 263.009 546.625C261.605 545.917 261.04 544.205 261.747 542.801C262.455 541.396 264.167 540.832 265.572 541.54C265.747 541.628 265.909 541.732 266.058 541.849L269.927 534.171Z" fill="black"/>
<path fill-rule="evenodd" clip-rule="evenodd" d="M254.997 520.757L257.032 521.782L257.032 521.783L263.136 524.859L263.137 524.859L265.171 525.884L265.171 525.885L273.308 529.985L273.306 529.988L273.309 529.989L266.39 543.72L266.387 543.719C265.678 545.12 263.968 545.683 262.565 544.976C261.16 544.268 260.595 542.556 261.303 541.151C262.011 539.747 263.723 539.182 265.128 539.89C265.303 539.978 265.465 540.082 265.613 540.199L269.482 532.521L263.377 529.444L258.252 539.614L258.252 539.614L258.251 539.617C257.543 541.021 255.831 541.586 254.426 540.878C253.022 540.17 252.457 538.458 253.164 537.054C253.872 535.649 255.584 535.085 256.989 535.793C257.163 535.88 257.324 535.984 257.472 536.1L261.342 528.419L255.238 525.343L250.113 535.513L250.112 535.512L250.111 535.515C249.403 536.92 247.691 537.484 246.286 536.776C244.882 536.069 244.317 534.356 245.024 532.952C245.732 531.548 247.444 530.983 248.849 531.691C249.023 531.779 249.185 531.882 249.333 531.999L253.203 524.318L253.202 524.317L254.996 520.757L254.997 520.758L254.997 520.757Z" fill="#212B30"/>
<path fill-rule="evenodd" clip-rule="evenodd" d="M315.345 250.452L314.795 252.067L314.798 252.074L308.51 254.754L308.507 254.747L306.411 255.64L306.414 255.648L300.123 258.329L298.027 259.222L299.59 262.889L302.963 270.802C302.779 270.84 302.596 270.896 302.417 270.973C300.97 271.59 300.297 273.262 300.913 274.709C301.53 276.155 303.203 276.828 304.65 276.211C306.096 275.595 306.77 273.922 306.153 272.475L306.152 272.473L306.152 272.473L301.686 261.996L307.977 259.315L311.347 267.22C311.162 267.258 310.979 267.314 310.799 267.391C309.352 268.008 308.679 269.68 309.296 271.127C309.913 272.573 311.585 273.246 313.032 272.629C314.479 272.013 315.152 270.34 314.536 268.893L314.535 268.891L314.536 268.891L310.073 258.421L316.361 255.741L319.729 263.642C319.545 263.68 319.362 263.736 319.183 263.813C317.736 264.43 317.063 266.102 317.68 267.549C318.296 268.995 319.969 269.668 321.416 269.051C322.863 268.435 323.536 266.762 322.919 265.315C322.914 265.302 322.908 265.289 322.902 265.276L316.891 251.174L315.345 250.452Z" fill="black"/>
<path fill-rule="evenodd" clip-rule="evenodd" d="M315.343 250.446L313.247 251.339L313.25 251.347L306.963 254.027L306.96 254.02L304.864 254.914L304.867 254.921L298.575 257.602L296.479 258.496L298.042 262.163L301.415 270.075C301.231 270.113 301.048 270.17 300.868 270.246C299.422 270.863 298.749 272.536 299.365 273.982C299.982 275.429 301.655 276.101 303.101 275.485C304.548 274.868 305.221 273.195 304.605 271.749L304.604 271.746L304.604 271.746L300.138 261.269L306.43 258.588L309.8 266.493C309.616 266.531 309.433 266.588 309.254 266.664C307.807 267.281 307.134 268.954 307.75 270.4C308.367 271.847 310.04 272.519 311.487 271.903C312.934 271.286 313.607 269.613 312.99 268.167C312.984 268.152 312.977 268.137 312.971 268.123L308.526 257.694L314.813 255.014L318.186 262.926C318.002 262.964 317.818 263.021 317.638 263.098C316.191 263.715 315.518 265.387 316.135 266.834C316.751 268.28 318.424 268.953 319.871 268.336C321.318 267.72 321.991 266.047 321.374 264.6C321.373 264.597 321.372 264.594 321.37 264.591L321.372 264.59L315.343 250.446Z" fill="#212B30"/>
<path fill-rule="evenodd" clip-rule="evenodd" d="M390.671 529.188L384.079 527.579L381.945 531.673L381.946 531.674L377.868 539.497C377.425 538.856 376.824 538.31 376.086 537.925C373.663 536.662 370.675 537.602 369.412 540.025C368.149 542.448 369.089 545.435 371.511 546.699C373.934 547.962 376.922 547.022 378.185 544.599C378.205 544.561 378.224 544.523 378.243 544.484L384.286 532.894L388.964 535.332L391.098 531.238L390.671 529.188Z" fill="black"/>
<path fill-rule="evenodd" clip-rule="evenodd" d="M377.449 537.444L381.526 529.623L383.661 525.529L386.001 526.748L390.68 529.188L388.545 533.282L383.866 530.843L377.85 542.381C377.824 542.437 377.796 542.493 377.767 542.548C376.504 544.971 373.516 545.911 371.093 544.648C368.671 543.385 367.73 540.397 368.994 537.974C370.257 535.551 373.245 534.611 375.668 535.874C376.406 536.259 377.006 536.804 377.449 537.444Z" fill="#212B30"/>
<path fill-rule="evenodd" clip-rule="evenodd" d="M293.107 596.746L293.105 596.747L294.308 601.205L294.311 601.204L296.607 609.709C295.847 609.537 295.035 609.543 294.23 609.761C291.592 610.473 290.032 613.189 290.744 615.826C291.456 618.464 294.172 620.025 296.81 619.313C299.448 618.6 301.009 615.885 300.296 613.247C300.291 613.226 300.285 613.206 300.279 613.186L296.858 600.517L301.95 599.141L300.746 594.684L299.043 593.465L293.124 596.737L293.105 596.742L293.107 596.746Z" fill="black"/>
<path fill-rule="evenodd" clip-rule="evenodd" d="M292.61 599.981L291.407 595.523L293.954 594.835L299.048 593.459L300.252 597.917L295.158 599.293L298.547 611.843C298.565 611.902 298.582 611.961 298.598 612.02C299.311 614.658 297.75 617.374 295.112 618.086C292.474 618.799 289.758 617.238 289.046 614.6C288.334 611.962 289.895 609.247 292.532 608.534C293.336 608.317 294.147 608.311 294.906 608.482L292.61 599.981Z" fill="#212B30"/>
<path fill-rule="evenodd" clip-rule="evenodd" d="M220.572 493.938L220.183 507.055C220.182 507.079 220.182 507.104 220.181 507.129C220.1 509.86 217.821 512.009 215.089 511.928C212.358 511.847 210.21 509.567 210.291 506.836C210.372 504.105 212.652 501.957 215.383 502.038C216.216 502.062 216.995 502.292 217.673 502.676L218.071 489.243L218.083 489.243L224.707 487.821L225.985 489.48L225.848 494.095L220.572 493.938Z" fill="black"/>
<path fill-rule="evenodd" clip-rule="evenodd" d="M216.403 501.009L216.664 492.198L216.801 487.582L219.439 487.661L224.713 487.817L224.577 492.432L219.302 492.276L218.911 505.463L218.909 505.462C218.827 508.193 216.548 510.341 213.817 510.26C211.086 510.179 208.938 507.899 209.019 505.168C209.1 502.437 211.38 500.289 214.111 500.37C214.945 500.394 215.725 500.624 216.403 501.009Z" fill="#212B30"/>
<path fill-rule="evenodd" clip-rule="evenodd" d="M323.719 465.974L339.161 475.043L339.366 476.249L339.365 476.25L339.368 476.252L336.185 481.098L336.186 481.098L334.587 483.532L334.587 483.532L328.764 492.398L328.763 492.397L328.762 492.398C327.501 494.319 324.922 494.853 323.001 493.592C321.081 492.331 320.547 489.752 321.808 487.832C323.069 485.911 325.648 485.377 327.568 486.638C327.807 486.795 328.024 486.972 328.219 487.166L331.805 481.705L321.722 475.084L315.95 483.875C315.933 483.902 315.915 483.93 315.897 483.957C314.636 485.877 312.057 486.412 310.137 485.151C308.216 483.89 307.682 481.311 308.943 479.39C310.204 477.47 312.783 476.935 314.703 478.196C314.941 478.353 315.158 478.529 315.352 478.722L318.941 473.257L318.94 473.257L320.539 470.823L320.539 470.823L322.124 468.41L322.121 468.408L323.719 465.974ZM323.321 472.65L333.404 479.271L334.988 476.858L324.906 470.237L323.321 472.65Z" fill="black"/>
<path fill-rule="evenodd" clip-rule="evenodd" d="M323.52 464.761L326.302 466.588L339.167 475.036L339.165 475.04L339.166 475.041L328.563 491.188L328.562 491.187C327.3 493.105 324.723 493.638 322.804 492.378C320.883 491.117 320.349 488.538 321.61 486.617C322.871 484.697 325.45 484.163 327.37 485.424C327.609 485.58 327.826 485.757 328.021 485.951L331.606 480.492L321.52 473.87L315.792 482.593C315.761 482.643 315.73 482.693 315.698 482.743C314.437 484.663 311.858 485.197 309.937 483.936C308.017 482.675 307.483 480.096 308.744 478.176C310.005 476.256 312.584 475.721 314.504 476.982C314.741 477.138 314.957 477.314 315.151 477.506L321.922 467.195L323.52 464.761ZM323.118 471.436L333.204 478.058L334.789 475.645L324.703 469.022L323.118 471.436Z" fill="#212B30"/>
<path fill-rule="evenodd" clip-rule="evenodd" d="M342.013 578.353L355.553 590.073L355.536 591.296L353.523 593.4L353.522 593.4L342.179 605.251L342.176 605.249L342.176 605.249C340.588 606.909 337.954 606.966 336.295 605.378C334.635 603.789 334.577 601.156 336.166 599.497C337.754 597.837 340.388 597.779 342.047 599.368C342.254 599.566 342.436 599.78 342.593 600.006L347.111 595.286L338.396 586.945L331.059 594.611L331.058 594.61C329.469 596.268 326.837 596.325 325.178 594.737C323.518 593.149 323.461 590.516 325.049 588.856C326.638 587.196 329.271 587.138 330.931 588.727C331.137 588.924 331.318 589.138 331.475 589.364L335.992 584.644L335.99 584.642L338.004 582.538L338.006 582.54L340 580.457L339.999 580.457L342.013 578.353ZM340.41 584.841L349.124 593.182L351.118 591.099L342.404 582.758L340.41 584.841Z" fill="black"/>
<path fill-rule="evenodd" clip-rule="evenodd" d="M355.56 590.064L353.156 587.763L353.154 587.765L344.439 579.424L342.035 577.123L340.021 579.226L338.029 581.308L338.028 581.306L336.014 583.41L336.016 583.411L331.498 588.132C331.341 587.906 331.159 587.692 330.953 587.495C329.294 585.906 326.66 585.964 325.072 587.624C323.483 589.284 323.541 591.917 325.201 593.505C326.86 595.093 329.492 595.036 331.081 593.378L331.082 593.379L338.42 585.712L347.135 594.054L342.616 598.775C342.46 598.55 342.278 598.337 342.072 598.139C340.413 596.551 337.779 596.609 336.191 598.268C334.602 599.928 334.66 602.561 336.32 604.15C337.98 605.738 340.613 605.681 342.201 604.021L342.203 604.019L342.204 604.019L355.56 590.064ZM349.149 591.95L351.141 589.869L342.425 581.527L340.433 583.609L349.149 591.95Z" fill="#212B30"/>
<path fill-rule="evenodd" clip-rule="evenodd" d="M322.531 343.286L339.861 347.799L340.387 348.903L339.514 351.681L339.512 351.68L334.633 367.191C334.62 367.237 334.606 367.284 334.592 367.33C333.902 369.522 331.567 370.739 329.375 370.05C327.184 369.361 325.966 367.025 326.655 364.834C327.345 362.642 329.68 361.424 331.872 362.114C332.143 362.199 332.399 362.309 332.638 362.442L334.598 356.211L323.091 352.591L319.925 362.654C319.919 362.673 319.914 362.691 319.908 362.709C319.219 364.901 316.883 366.118 314.692 365.429C312.5 364.739 311.282 362.404 311.972 360.213C312.661 358.021 314.997 356.803 317.188 357.493C317.46 357.578 317.717 357.689 317.956 357.822L322.529 343.287L322.53 343.288L322.531 343.286ZM323.964 349.813L335.472 353.433L336.338 350.682L324.83 347.062L323.964 349.813Z" fill="black"/>
<path fill-rule="evenodd" clip-rule="evenodd" d="M322.007 342.165L325.182 343.164L339.864 347.783L339.863 347.785L339.863 347.785L338.123 353.317L338.124 353.318L337.251 356.096L337.249 356.095L334.067 366.212L334.066 366.212L334.066 366.212C333.376 368.404 331.041 369.621 328.849 368.932C326.658 368.242 325.44 365.907 326.13 363.716C326.819 361.524 329.154 360.306 331.346 360.996C331.618 361.081 331.875 361.192 332.115 361.325L334.075 355.096L322.567 351.476L319.417 361.488C319.407 361.525 319.396 361.562 319.384 361.599C318.695 363.79 316.359 365.008 314.168 364.319C311.976 363.629 310.759 361.294 311.448 359.102C312.137 356.911 314.473 355.693 316.664 356.382C316.936 356.468 317.192 356.578 317.432 356.711L321.133 344.943L322.007 342.165ZM323.441 348.699L334.949 352.319L335.816 349.562L324.308 345.942L323.441 348.699Z" fill="#212B30"/>
<path fill-rule="evenodd" clip-rule="evenodd" d="M152.866 493.716L152.864 493.717L153.7 496.515L153.702 496.514L157.244 508.361C156.97 508.386 156.694 508.438 156.421 508.52C154.213 509.18 152.958 511.505 153.618 513.712C154.278 515.919 156.603 517.174 158.81 516.514C161.018 515.854 162.273 513.529 161.613 511.322C161.608 511.305 161.603 511.287 161.597 511.27L156.9 495.558L168.494 492.092L172.037 503.943C171.762 503.967 171.485 504.02 171.21 504.102C169.003 504.762 167.748 507.087 168.408 509.294C169.068 511.501 171.392 512.756 173.6 512.096C175.808 511.436 177.062 509.111 176.403 506.904L176.401 506.899L176.404 506.898L170.855 488.337L170.85 488.339L169.582 487.853L152.978 493.677L152.864 493.711L152.866 493.716Z" fill="black"/>
<path fill-rule="evenodd" clip-rule="evenodd" d="M154.79 492.275L151.593 493.231L152.429 496.028L155.969 507.869C155.695 507.894 155.42 507.946 155.147 508.028C152.939 508.688 151.685 511.012 152.345 513.22C153.004 515.427 155.329 516.682 157.537 516.022C159.745 515.362 160.999 513.037 160.339 510.83C160.327 510.79 160.315 510.75 160.302 510.711L155.627 495.072L167.221 491.606L170.762 503.451C170.487 503.475 170.212 503.528 169.938 503.61C167.73 504.27 166.475 506.594 167.135 508.802C167.795 511.009 170.12 512.264 172.327 511.604C174.534 510.944 175.789 508.621 175.131 506.414L175.131 506.414L169.582 487.853L169.581 487.853L169.581 487.853L154.79 492.275Z" fill="#212B30"/>
<path fill-rule="evenodd" clip-rule="evenodd" d="M254.431 294.839L239.824 284.814L238.061 287.141L238.063 287.143L230.597 296.998C230.415 296.791 230.209 296.599 229.98 296.425C228.144 295.034 225.527 295.395 224.136 297.231C222.744 299.068 223.105 301.685 224.942 303.076C226.778 304.467 229.394 304.107 230.786 302.272L230.788 302.273L240.723 289.158L250.367 296.464L242.9 306.321C242.718 306.114 242.513 305.923 242.285 305.75C240.448 304.358 237.831 304.719 236.44 306.556C235.049 308.392 235.41 311.009 237.246 312.4C239.083 313.792 241.7 313.431 243.091 311.594L243.092 311.593L243.093 311.594L254.791 296.152L254.79 296.151L254.431 294.839Z" fill="black"/>
<path fill-rule="evenodd" clip-rule="evenodd" d="M242.132 285.516L239.471 283.5L237.708 285.828L230.244 295.681C230.062 295.474 229.857 295.282 229.629 295.11C227.792 293.718 225.175 294.079 223.784 295.915C222.393 297.752 222.754 300.369 224.59 301.76C226.426 303.151 229.041 302.791 230.433 300.957L230.434 300.958L240.369 287.844L250.015 295.151L242.55 305.005C242.367 304.799 242.162 304.607 241.934 304.434C240.097 303.042 237.48 303.403 236.089 305.24C234.698 307.076 235.059 309.693 236.896 311.084C238.731 312.475 241.347 312.115 242.739 310.281L242.74 310.282L254.438 294.84L254.436 294.839L254.437 294.838L242.132 285.516Z" fill="#212B30"/>
</g>
<defs>
<filter id="filter0_d_380_13943" x="48.3088" y="524.488" width="93.7103" height="177.876" filterUnits="userSpaceOnUse" color-interpolation-filters="sRGB">
<feFlood flood-opacity="0" result="BackgroundImageFix"/>
<feColorMatrix in="SourceAlpha" type="matrix" values="0 0 0 0 0 0 0 0 0 0 0 0 0 0 0 0 0 0 127 0" result="hardAlpha"/>
<feOffset dx="1.46663" dy="7.33316"/>
<feGaussianBlur stdDeviation="1.46663"/>
<feComposite in2="hardAlpha" operator="out"/>
<feColorMatrix type="matrix" values="0 0 0 0 0 0 0 0 0 0 0 0 0 0 0 0 0 0 0.25 0"/>
<feBlend mode="normal" in2="BackgroundImageFix" result="effect1_dropShadow_380_13943"/>
<feBlend mode="normal" in="SourceGraphic" in2="effect1_dropShadow_380_13943" result="shape"/>
</filter>
<clipPath id="clip0_380_13943">
<rect width="440" height="930" fill="white"/>
</clipPath>
</defs>
</svg>
