<svg width="350" height="40" viewBox="0 0 350 40" fill="none" xmlns="http://www.w3.org/2000/svg">
<path d="M215.873 25.9455V1.24404H213.855V26.0262C213.855 27.7752 214.205 29.0668 214.905 29.9009C215.631 30.7082 216.708 31.1118 218.134 31.1118C218.672 31.1118 219.156 31.058 219.587 30.9503C220.044 30.8696 220.448 30.7485 220.798 30.5871L221.08 28.8112C220.623 28.9995 220.219 29.134 219.869 29.2148C219.546 29.2955 219.102 29.3359 218.537 29.3359C217.622 29.3359 216.95 29.0802 216.519 28.569C216.089 28.0577 215.873 27.1832 215.873 25.9455Z" fill="url(#paint0_linear_383_15)"/>
<path d="M239.512 6.16817C239.835 6.46416 240.252 6.61215 240.763 6.61215C241.275 6.61215 241.678 6.46416 241.974 6.16817C242.297 5.84528 242.459 5.42821 242.459 4.91696C242.459 4.40571 242.297 4.00209 241.974 3.7061C241.678 3.38321 241.275 3.22176 240.763 3.22176C240.252 3.22176 239.835 3.38321 239.512 3.7061C239.216 4.00209 239.068 4.40571 239.068 4.91696C239.068 5.42821 239.216 5.84528 239.512 6.16817Z" fill="url(#paint1_linear_383_15)"/>
<path d="M241.772 30.7082V10.5273H239.754V30.7082H241.772Z" fill="url(#paint2_linear_383_15)"/>
<path fill-rule="evenodd" clip-rule="evenodd" d="M267.779 10.5272V39.1841H269.797V26.3236C270.36 27.6866 271.235 28.7983 272.421 29.6587C273.793 30.6274 275.408 31.1118 277.264 31.1118C279.013 31.1118 280.574 30.6947 281.946 29.8605C283.345 29.0264 284.449 27.829 285.256 26.2683C286.063 24.6808 286.467 22.7972 286.467 20.6177C286.467 18.4112 286.063 16.5277 285.256 14.967C284.449 13.4064 283.359 12.209 281.986 11.3748C280.614 10.5407 279.067 10.1236 277.345 10.1236C276.08 10.1236 274.91 10.3523 273.833 10.8098C272.757 11.2672 271.842 11.9264 271.089 12.7875C270.519 13.463 270.065 14.2297 269.727 15.0874L269.595 10.5272H267.779ZM282.43 26.9949C281.112 28.5555 279.309 29.3358 277.022 29.3358C275.623 29.3358 274.372 28.986 273.268 28.2864C272.192 27.5599 271.344 26.5374 270.726 25.2189C270.107 23.9004 269.797 22.3667 269.797 20.6177C269.797 18.8418 270.107 17.308 270.726 16.0164C271.371 14.698 272.232 13.6889 273.309 12.9893C274.412 12.2628 275.677 11.8995 277.103 11.8995C279.363 11.8995 281.152 12.6799 282.471 14.2405C283.789 15.8012 284.449 17.9269 284.449 20.6177C284.449 23.3085 283.776 25.4342 282.43 26.9949Z" fill="url(#paint3_linear_383_15)"/>
<path fill-rule="evenodd" clip-rule="evenodd" d="M304.647 17.4291C304.647 15.6801 304.176 14.3212 303.234 13.3526C302.292 12.3839 300.947 11.8995 299.198 11.8995C297.664 11.8995 296.346 12.2359 295.242 12.9086C294.139 13.5544 293.318 14.6441 292.78 16.1779L291.125 15.1285C291.717 13.5409 292.7 12.3166 294.072 11.4556C295.471 10.5676 297.193 10.1236 299.238 10.1236C300.718 10.1236 302.01 10.3927 303.113 10.9309C304.243 11.4421 305.118 12.209 305.736 13.2315C306.355 14.254 306.665 15.5321 306.665 17.0658V27.1563C306.665 28.5824 307.311 29.2955 308.602 29.2955C309.167 29.2955 309.652 29.2013 310.055 29.0129L309.934 30.6274C309.477 30.8696 308.885 30.9907 308.158 30.9907C307.539 30.9907 306.961 30.8696 306.423 30.6274C305.884 30.3852 305.44 29.9816 305.091 29.4166C304.815 28.9334 304.657 28.3028 304.617 27.5246C304.343 28.0311 303.99 28.4869 303.557 28.8919C302.75 29.6453 301.808 30.2103 300.732 30.5871C299.655 30.9369 298.579 31.1118 297.503 31.1118C296.238 31.1118 295.108 30.9099 294.112 30.5063C293.117 30.1027 292.336 29.5242 291.771 28.7708C291.206 27.9904 290.924 27.0352 290.924 25.9051C290.924 24.3982 291.421 23.1874 292.417 22.2725C293.44 21.3307 294.866 20.685 296.695 20.3352L304.647 18.7603V17.4291ZM297.704 21.8285L304.647 20.4554V23.6045C304.647 24.627 304.445 25.5015 304.041 26.228C303.638 26.9276 303.086 27.5196 302.386 28.0039C301.714 28.4613 300.974 28.7977 300.167 29.0129C299.359 29.2282 298.565 29.3358 297.785 29.3358C296.251 29.3358 295.067 29.0264 294.233 28.4075C293.399 27.7617 292.982 26.8738 292.982 25.7436C292.982 24.6942 293.372 23.8601 294.153 23.2412C294.933 22.6223 296.117 22.1514 297.704 21.8285Z" fill="url(#paint4_linear_383_15)"/>
<path d="M315.583 29.8605C317.171 30.6947 318.987 31.1118 321.032 31.1118C322.619 31.1118 324.005 30.883 325.189 30.4256C326.373 29.9413 327.288 29.2551 327.934 28.3672C328.579 27.4523 328.902 26.4029 328.902 25.2189C328.902 24.0081 328.526 22.999 327.772 22.1918C327.019 21.3577 325.687 20.7388 323.776 20.3352L318.933 19.2857C317.561 18.9898 316.605 18.5323 316.067 17.9134C315.529 17.2677 315.26 16.5546 315.26 15.7743C315.26 15.0209 315.489 14.3616 315.946 13.7965C316.431 13.2046 317.09 12.7471 317.924 12.4242C318.785 12.0744 319.781 11.8995 320.911 11.8995C322.391 11.8995 323.669 12.2224 324.745 12.8682C325.848 13.514 326.602 14.55 327.005 15.9761L328.701 14.8863C328.162 13.2987 327.234 12.1148 325.916 11.3345C324.597 10.5272 322.929 10.1236 320.911 10.1236C319.377 10.1236 318.032 10.3927 316.875 10.9309C315.744 11.4421 314.856 12.1283 314.211 12.9893C313.565 13.8504 313.242 14.819 313.242 15.8954C313.242 17.1869 313.659 18.2902 314.493 19.205C315.327 20.093 316.7 20.7388 318.61 21.1424L323.332 22.1514C324.705 22.4474 325.633 22.8914 326.117 23.4834C326.629 24.0484 326.884 24.7211 326.884 25.5015C326.884 26.6585 326.373 27.5868 325.35 28.2864C324.355 28.986 322.969 29.3358 321.193 29.3358C319.39 29.3358 317.857 28.9726 316.592 28.2461C315.354 27.4926 314.493 26.4432 314.009 25.0978L312.273 26.2683C312.919 27.829 314.022 29.0264 315.583 29.8605Z" fill="url(#paint5_linear_383_15)"/>
<path d="M335.962 29.8605C337.549 30.6947 339.366 31.1118 341.411 31.1118C342.998 31.1118 344.384 30.883 345.568 30.4256C346.752 29.9413 347.667 29.2551 348.313 28.3672C348.958 27.4523 349.281 26.4029 349.281 25.2189C349.281 24.0081 348.905 22.999 348.151 22.1918C347.398 21.3577 346.066 20.7388 344.155 20.3352L339.312 19.2857C337.94 18.9898 336.984 18.5323 336.446 17.9134C335.908 17.2677 335.639 16.5546 335.639 15.7743C335.639 15.0209 335.868 14.3616 336.325 13.7965C336.809 13.2046 337.469 12.7471 338.303 12.4242C339.164 12.0744 340.159 11.8995 341.29 11.8995C342.77 11.8995 344.048 12.2224 345.124 12.8682C346.227 13.514 346.981 14.55 347.384 15.9761L349.079 14.8863C348.541 13.2987 347.613 12.1148 346.294 11.3345C344.976 10.5272 343.308 10.1236 341.29 10.1236C339.756 10.1236 338.41 10.3927 337.253 10.9309C336.123 11.4421 335.235 12.1283 334.59 12.9893C333.944 13.8504 333.621 14.819 333.621 15.8954C333.621 17.1869 334.038 18.2902 334.872 19.205C335.706 20.093 337.079 20.7388 338.989 21.1424L343.711 22.1514C345.084 22.4474 346.012 22.8914 346.496 23.4834C347.008 24.0484 347.263 24.7211 347.263 25.5015C347.263 26.6585 346.752 27.5868 345.729 28.2864C344.734 28.986 343.348 29.3358 341.572 29.3358C339.769 29.3358 338.236 28.9726 336.971 28.2461C335.733 27.4926 334.872 26.4432 334.388 25.0978L332.652 26.2683C333.298 27.829 334.401 29.0264 335.962 29.8605Z" fill="url(#paint6_linear_383_15)"/>
<path d="M261.006 18.9629V21.0213H248.615V18.9629H261.006Z" fill="url(#paint7_linear_383_15)"/>
<path d="M227.89 4.91695V10.5272H235.438V12.2628H227.89V25.3804C227.89 26.6451 228.186 27.6137 228.778 28.2864C229.397 28.9322 230.285 29.2551 231.442 29.2551C232.195 29.2551 232.855 29.134 233.42 28.8919C234.012 28.6228 234.536 28.2461 234.994 27.7617L235.761 29.4166C235.249 29.9278 234.604 30.3449 233.823 30.6678C233.043 30.9638 232.168 31.1118 231.2 31.1118C230.15 31.1118 229.222 30.9234 228.415 30.5467C227.607 30.1431 226.975 29.5377 226.518 28.7304C226.087 27.9232 225.872 26.9007 225.872 25.6629V12.2628H221.836V10.5272H225.872V5.48202L227.89 4.91695Z" fill="url(#paint8_linear_383_15)"/>
<path d="M197.233 31.1118C195.834 31.1118 194.583 30.8561 193.479 30.3449C192.376 29.8336 191.502 29.0399 190.856 27.9635C190.237 26.8603 189.928 25.488 189.928 23.8466V10.5272H191.946V23.3623C191.946 25.4611 192.443 26.9814 193.439 27.9232C194.462 28.865 195.888 29.3358 197.717 29.3358C198.794 29.3358 199.762 29.1475 200.623 28.7708C201.511 28.3941 202.265 27.8694 202.884 27.1967C203.503 26.524 203.973 25.7571 204.296 24.896C204.646 24.0081 204.821 23.0798 204.821 22.1111V10.5272H206.839V30.7081H205.023L204.942 26.5509C204.35 27.977 203.382 29.0937 202.036 29.9009C200.691 30.7081 199.09 31.1118 197.233 31.1118Z" fill="url(#paint9_linear_383_15)"/>
<path d="M151.385 10.5273V30.7082H153.403V19.2858C153.403 17.752 153.739 16.4335 154.412 15.3303C155.084 14.2271 155.959 13.3795 157.035 12.7875C158.112 12.1955 159.255 11.8996 160.466 11.8996C162.188 11.8996 163.587 12.3974 164.664 13.3929C165.74 14.3616 166.278 15.8416 166.278 17.8327V30.7082H168.296V19.084C168.296 17.6578 168.606 16.4066 169.225 15.3303C169.87 14.2271 170.731 13.3795 171.808 12.7875C172.884 12.1686 174.054 11.8592 175.319 11.8592C177.068 11.8592 178.467 12.357 179.517 13.3526C180.593 14.3213 181.131 15.8012 181.131 17.7924V30.6678H183.149V17.5906C183.149 15.9223 182.8 14.5365 182.1 13.4333C181.427 12.3032 180.512 11.469 179.355 10.9309C178.225 10.3658 176.961 10.0833 175.561 10.0833C174.431 10.0833 173.341 10.2851 172.292 10.6887C171.243 11.0923 170.328 11.6708 169.547 12.4243C168.767 13.1508 168.202 14.0253 167.852 15.0478C167.368 13.4333 166.48 12.209 165.188 11.3749C163.924 10.5407 162.417 10.1236 160.668 10.1236C159.026 10.1236 157.533 10.5273 156.188 11.3345C154.869 12.1417 153.914 13.2719 153.322 14.7249L153.201 10.5273H151.385Z" fill="url(#paint10_linear_383_15)"/>
<path d="M136.941 1.24404V24.0485C136.941 24.9902 137.102 25.6495 137.425 26.0262C137.748 26.4029 138.286 26.5913 139.04 26.5913C139.497 26.5913 139.874 26.5643 140.17 26.5105C140.466 26.4298 140.843 26.3222 141.3 26.1876L140.816 29.8202C140.358 30.0893 139.78 30.2911 139.08 30.4256C138.407 30.5871 137.735 30.6678 137.062 30.6678C135.098 30.6678 133.658 30.1969 132.743 29.2551C131.855 28.2865 131.411 26.7527 131.411 24.6539V1.24404H136.941Z" fill="white"/>
<path d="M117.482 30.6678C115.357 30.6678 113.5 30.2507 111.913 29.4166C110.352 28.5824 109.141 27.385 108.28 25.8244C107.419 24.2637 106.988 22.3802 106.988 20.1737C106.988 17.9673 107.419 16.0837 108.28 14.5231C109.141 12.9624 110.338 11.765 111.872 10.9309C113.433 10.0967 115.209 9.67966 117.2 9.67966C119.245 9.67966 120.98 10.0967 122.407 10.9309C123.833 11.7381 124.922 12.8548 125.676 14.2809C126.429 15.6801 126.806 17.2811 126.806 19.084C126.806 19.6221 126.793 20.1334 126.766 20.6177C126.739 21.102 126.698 21.5326 126.645 21.9093H110.54V18.0749H124.223L121.559 19.0436C121.559 17.3484 121.169 16.0434 120.388 15.1285C119.635 14.2136 118.559 13.7562 117.16 13.7562C116.137 13.7562 115.249 13.9984 114.496 14.4827C113.769 14.9671 113.218 15.6936 112.841 16.6623C112.464 17.604 112.276 18.8014 112.276 20.2545C112.276 21.6806 112.478 22.8645 112.881 23.8063C113.312 24.7212 113.904 25.4073 114.657 25.8647C115.437 26.3222 116.366 26.5509 117.442 26.5509C118.626 26.5509 119.581 26.3222 120.308 25.8647C121.034 25.4073 121.599 24.775 122.003 23.9677L126.402 25.6629C125.972 26.7123 125.313 27.6138 124.425 28.3672C123.564 29.1206 122.528 29.6991 121.317 30.1027C120.133 30.4794 118.855 30.6678 117.482 30.6678Z" fill="white"/>
<path d="M99.5602 10.0833H105.292L97.6229 30.2642H91.2457L83.577 10.0833H89.5101L94.4746 26.0262L99.5602 10.0833Z" fill="white"/>
<path d="M72.9426 30.6678C70.8168 30.6678 68.9602 30.2507 67.3726 29.4166C65.812 28.5824 64.6011 27.385 63.7401 25.8244C62.879 24.2637 62.4485 22.3802 62.4485 20.1737C62.4485 17.9673 62.879 16.0837 63.7401 14.5231C64.6011 12.9624 65.7985 11.765 67.3323 10.9309C68.8929 10.0967 70.6688 9.67966 72.66 9.67966C74.705 9.67966 76.4406 10.0967 77.8667 10.9309C79.2928 11.7381 80.3826 12.8548 81.136 14.2809C81.8894 15.6801 82.2661 17.2811 82.2661 19.084C82.2661 19.6221 82.2527 20.1334 82.2258 20.6177C82.1989 21.102 82.1585 21.5326 82.1047 21.9093H66.0003V18.0749H79.683L77.0191 19.0436C77.0191 17.3484 76.6289 16.0434 75.8486 15.1285C75.0952 14.2136 74.0189 13.7562 72.6197 13.7562C71.5972 13.7562 70.7092 13.9984 69.9558 14.4827C69.2293 14.9671 68.6777 15.6936 68.301 16.6623C67.9242 17.604 67.7359 18.8014 67.7359 20.2545C67.7359 21.6806 67.9377 22.8645 68.3413 23.8063C68.7718 24.7212 69.3638 25.4073 70.1172 25.8647C70.8976 26.3222 71.8259 26.5509 72.9022 26.5509C74.0861 26.5509 75.0414 26.3222 75.7679 25.8647C76.4944 25.4073 77.0595 24.775 77.4631 23.9677L81.8625 25.6629C81.432 26.7123 80.7728 27.6138 79.8848 28.3672C79.0237 29.1206 77.9878 29.6991 76.7769 30.1027C75.593 30.4794 74.3149 30.6678 72.9426 30.6678Z" fill="white"/>
<path d="M46.9451 30.2642V10.0833H51.7482L52.1115 14.0387C52.6496 12.6395 53.4299 11.5632 54.4524 10.8098C55.5018 10.0564 56.8069 9.67966 58.3675 9.67966C58.825 9.67966 59.242 9.72002 59.6188 9.80074C59.9955 9.88147 60.3049 9.9891 60.5471 10.1236L59.9013 14.7652C59.6322 14.6576 59.2959 14.5769 58.8922 14.5231C58.5155 14.4693 58.0177 14.4424 57.3989 14.4424C56.5916 14.4424 55.8113 14.6442 55.0579 15.0478C54.3044 15.4245 53.6856 16.0165 53.2012 16.8237C52.7169 17.604 52.4747 18.5996 52.4747 19.8105V30.2642H46.9451Z" fill="white"/>
<path fill-rule="evenodd" clip-rule="evenodd" d="M1.06147 21.5723C1.40407 22.3985 2.14547 23.1399 3.62827 24.6227L4.42377 25.4182C4.86288 25.8573 5.57564 25.8573 6.01476 25.4182L6.27992 25.1531C6.84253 24.5904 7.60559 24.2744 8.40124 24.2744C9.19689 24.2744 9.95995 24.5904 10.5226 25.1531C11.0852 25.7157 11.4012 26.4787 11.4012 27.2744C11.4012 28.07 11.0852 28.8331 10.5226 29.3957L10.2574 29.6609C10.0464 29.8718 9.92789 30.158 9.92789 30.4564C9.92789 30.7547 10.0464 31.0409 10.2574 31.2519L11.0529 32.0473C12.5357 33.5301 13.2771 34.2715 14.1034 34.6141C14.6494 34.8404 15.2348 34.9569 15.8259 34.9569C16.417 34.9569 17.0023 34.8404 17.5484 34.6141C18.3746 34.2715 19.116 33.5301 20.5988 32.0473L32.2661 20.3801C33.7489 18.8973 34.4903 18.1559 34.8329 17.3296C35.0592 16.7835 35.1756 16.1982 35.1756 15.6071C35.1756 15.016 35.0592 14.4307 34.8329 13.8846C34.4903 13.0583 33.7489 12.3169 32.2661 10.8341L31.4706 10.0386C31.2596 9.82767 30.9735 9.70914 30.6751 9.70914C30.3767 9.70914 30.0906 9.82767 29.8796 10.0386L29.6144 10.3038C29.0518 10.8664 28.2888 11.1825 27.4931 11.1825C26.6975 11.1825 25.9344 10.8664 25.3718 10.3038C24.8092 9.7412 24.4931 8.97814 24.4931 8.18249C24.4931 7.38684 24.8092 6.62378 25.3718 6.06117L25.637 5.79601C25.8479 5.58503 25.9665 5.29888 25.9665 5.00051C25.9665 4.70214 25.8479 4.41599 25.637 4.20502L24.8415 3.40952C23.3587 1.92672 22.6173 1.18532 21.791 0.842724C21.2449 0.616459 20.6596 0.5 20.0685 0.5C19.4774 0.5 18.8921 0.616458 18.346 0.842722C17.5197 1.18532 16.7783 1.92672 15.2955 3.40952L3.62827 15.0768C2.14547 16.5596 1.40407 17.301 1.06147 18.1272C0.835209 18.6733 0.71875 19.2586 0.71875 19.8498C0.71875 20.4409 0.835209 21.0262 1.06147 21.5723ZM16.0857 16.8067C16.2469 17.1716 16.3276 17.354 16.3223 17.5375C16.3208 17.5889 16.3144 17.6401 16.3032 17.6902C16.2607 17.8684 16.1366 18.018 15.8884 18.3171C15.4674 18.823 15.2584 19.0765 15.3242 19.2844C15.338 19.3278 15.3588 19.3686 15.3857 19.4053C15.5161 19.5825 15.8471 19.574 16.51 19.5538L16.6935 19.5485C17.0032 19.54 17.1581 19.5358 17.2981 19.5825C17.3824 19.6118 17.4615 19.6544 17.5325 19.7087C17.6513 19.7978 17.7361 19.9293 17.9079 20.1945L17.9695 20.2899C18.2771 20.7651 18.4308 21.0016 18.5793 21.0462C18.6437 21.066 18.7122 21.0688 18.778 21.0543C18.8438 21.0398 18.9047 21.0085 18.9548 20.9634C19.0662 20.8627 19.0895 20.5869 19.1362 20.0332C19.1648 19.6694 19.1807 19.4881 19.2582 19.3449C19.3282 19.2156 19.4343 19.1094 19.5636 19.0394C19.7058 18.9609 19.8893 18.9471 20.2531 18.9164C20.8057 18.8708 21.0814 18.8474 21.1822 18.7361C21.2272 18.686 21.2585 18.625 21.273 18.5592C21.2875 18.4934 21.2847 18.425 21.2649 18.3606C21.2214 18.2132 20.9839 18.0583 20.5076 17.7518L20.4132 17.6892C20.1491 17.5184 20.0165 17.4325 19.9274 17.3137C19.8732 17.2428 19.8306 17.1637 19.8012 17.0793C19.7545 16.9393 19.7577 16.7834 19.7683 16.4758L19.7736 16.2902C19.7917 15.6294 19.8012 15.2974 19.6241 15.1669C19.5874 15.14 19.5465 15.1192 19.5032 15.1054C19.2953 15.0397 19.0418 15.2486 18.5358 15.6697C18.2367 15.9179 18.0872 16.042 17.9101 16.0833C17.8596 16.0951 17.8081 16.1018 17.7563 16.1035C17.5717 16.1099 17.3903 16.0282 17.0255 15.867C16.387 15.5848 16.0666 15.4427 15.8906 15.5551C15.8436 15.585 15.8038 15.6249 15.7739 15.6718C15.6615 15.8479 15.8036 16.1682 16.0857 16.8067Z" fill="url(#paint11_linear_383_15)"/>
<defs>
<linearGradient id="paint0_linear_383_15" x1="-5.60831" y1="16.7772" x2="363.276" y2="16.7772" gradientUnits="userSpaceOnUse">
<stop stop-color="#81E0FF"/>
<stop offset="1" stop-color="#D4F465"/>
</linearGradient>
<linearGradient id="paint1_linear_383_15" x1="-5.60831" y1="16.7772" x2="363.276" y2="16.7772" gradientUnits="userSpaceOnUse">
<stop stop-color="#81E0FF"/>
<stop offset="1" stop-color="#D4F465"/>
</linearGradient>
<linearGradient id="paint2_linear_383_15" x1="-5.60831" y1="16.7772" x2="363.276" y2="16.7772" gradientUnits="userSpaceOnUse">
<stop stop-color="#81E0FF"/>
<stop offset="1" stop-color="#D4F465"/>
</linearGradient>
<linearGradient id="paint3_linear_383_15" x1="-5.60831" y1="16.7772" x2="363.276" y2="16.7772" gradientUnits="userSpaceOnUse">
<stop stop-color="#81E0FF"/>
<stop offset="1" stop-color="#D4F465"/>
</linearGradient>
<linearGradient id="paint4_linear_383_15" x1="-5.60831" y1="16.7772" x2="363.276" y2="16.7772" gradientUnits="userSpaceOnUse">
<stop stop-color="#81E0FF"/>
<stop offset="1" stop-color="#D4F465"/>
</linearGradient>
<linearGradient id="paint5_linear_383_15" x1="-5.60831" y1="16.7772" x2="363.276" y2="16.7772" gradientUnits="userSpaceOnUse">
<stop stop-color="#81E0FF"/>
<stop offset="1" stop-color="#D4F465"/>
</linearGradient>
<linearGradient id="paint6_linear_383_15" x1="-5.60831" y1="16.7772" x2="363.276" y2="16.7772" gradientUnits="userSpaceOnUse">
<stop stop-color="#81E0FF"/>
<stop offset="1" stop-color="#D4F465"/>
</linearGradient>
<linearGradient id="paint7_linear_383_15" x1="-5.60831" y1="16.7772" x2="363.276" y2="16.7772" gradientUnits="userSpaceOnUse">
<stop stop-color="#81E0FF"/>
<stop offset="1" stop-color="#D4F465"/>
</linearGradient>
<linearGradient id="paint8_linear_383_15" x1="-5.60831" y1="16.7772" x2="363.276" y2="16.7772" gradientUnits="userSpaceOnUse">
<stop stop-color="#81E0FF"/>
<stop offset="1" stop-color="#D4F465"/>
</linearGradient>
<linearGradient id="paint9_linear_383_15" x1="-5.60831" y1="16.7772" x2="363.276" y2="16.7772" gradientUnits="userSpaceOnUse">
<stop stop-color="#81E0FF"/>
<stop offset="1" stop-color="#D4F465"/>
</linearGradient>
<linearGradient id="paint10_linear_383_15" x1="-5.60831" y1="16.7772" x2="363.276" y2="16.7772" gradientUnits="userSpaceOnUse">
<stop stop-color="#81E0FF"/>
<stop offset="1" stop-color="#D4F465"/>
</linearGradient>
<linearGradient id="paint11_linear_383_15" x1="9.46207" y1="9.24313" x2="26.4326" y2="26.2137" gradientUnits="userSpaceOnUse">
<stop stop-color="#81E0FF"/>
<stop offset="1" stop-color="#D4F465"/>
</linearGradient>
</defs>
</svg>
