<svg width="41" height="50" viewBox="0 0 41 50" fill="none" xmlns="http://www.w3.org/2000/svg">
<path fill-rule="evenodd" clip-rule="evenodd" d="M4.68798 49.43C6.06548 50 7.81298 50 11.308 50H13.183C14.218 50 15.058 49.16 15.058 48.125V47.5C15.058 46.1739 15.5848 44.9021 16.5224 43.9645C17.4601 43.0268 18.7319 42.5 20.058 42.5C21.3841 42.5 22.6558 43.0268 23.5935 43.9645C24.5312 44.9021 25.058 46.1739 25.058 47.5V48.125C25.058 48.6223 25.2555 49.0992 25.6072 49.4508C25.9588 49.8025 26.4357 50 26.933 50H28.808C32.303 50 34.0505 50 35.428 49.43C36.3382 49.0531 37.1653 48.5005 37.8619 47.8039C38.5585 47.1073 39.1111 46.2802 39.488 45.37C40.058 43.9925 40.058 42.245 40.058 38.75V11.25C40.058 7.755 40.058 6.0075 39.488 4.63C39.1111 3.71977 38.5585 2.89273 37.8619 2.1961C37.1653 1.49947 36.3382 0.946918 35.428 0.570002C34.0505 1.57457e-06 32.303 1.96685e-06 28.808 1.96685e-06L26.933 8.42937e-07C26.4357 8.42937e-07 25.9588 0.197542 25.6072 0.549173C25.2555 0.900804 25.058 1.37772 25.058 1.875V2.5C25.058 3.82608 24.5312 5.09785 23.5935 6.03553C22.6558 6.97322 21.3841 7.5 20.058 7.5C18.7319 7.5 17.4601 6.97322 16.5224 6.03553C15.5848 5.09785 15.058 3.82608 15.058 2.5V1.875C15.058 1.37772 14.8604 0.900804 14.5088 0.549174C14.1572 0.197543 13.6803 1.12392e-06 13.183 1.12392e-06L11.308 0C7.81298 0 6.06548 3.59413e-06 4.68798 0.570004C3.77776 0.94692 2.95071 1.49947 2.25408 2.1961C1.55745 2.89273 1.0049 3.71977 0.627983 4.63C0.057983 6.0075 0.0579834 7.755 0.0579834 11.25L0.0579837 38.75C0.0579837 42.245 0.0579842 43.9925 0.627984 45.37C1.0049 46.2802 1.55745 47.1073 2.25408 47.8039C2.95071 48.5005 3.77776 49.0531 4.68798 49.43ZM16.778 26.1075C17.398 26.3475 17.708 26.4675 17.918 26.69C17.9769 26.7522 18.0297 26.8201 18.0755 26.8925C18.2355 27.1525 18.2655 27.475 18.3255 28.12C18.4255 29.2125 18.478 29.7575 18.8005 29.925C18.8679 29.9598 18.9405 29.9835 19.0155 29.995C19.378 30.05 19.758 29.65 20.5155 28.845L20.7255 28.6225C21.0805 28.2475 21.258 28.06 21.478 27.95C21.612 27.8852 21.7554 27.8421 21.903 27.8225C22.148 27.7875 22.403 27.8425 22.918 27.9525L23.103 27.9925C24.0255 28.19 24.4855 28.2875 24.713 28.165C24.8122 28.1125 24.8962 28.0351 24.9566 27.9405C25.0171 27.8458 25.052 27.7371 25.058 27.625C25.0705 27.375 24.773 27.0225 24.1755 26.315C23.7805 25.8525 23.5855 25.62 23.508 25.36C23.4381 25.1251 23.4381 24.8749 23.508 24.64C23.583 24.38 23.783 24.1475 24.1755 23.6825C24.773 22.9775 25.0705 22.625 25.058 22.375C25.052 22.2629 25.0171 22.1542 24.9566 22.0595C24.8962 21.9649 24.8122 21.8875 24.713 21.835C24.488 21.7125 24.0255 21.81 23.103 22.01L22.918 22.0475C22.4055 22.1575 22.148 22.2125 21.903 22.1775C21.7554 22.1579 21.612 22.1148 21.478 22.05C21.258 21.94 21.078 21.7525 20.728 21.3775L20.5155 21.1525C19.758 20.3525 19.378 19.95 19.0155 20.005C18.9405 20.0165 18.8679 20.0402 18.8005 20.075C18.478 20.2425 18.4255 20.7875 18.3255 21.88C18.2655 22.525 18.2355 22.8475 18.0755 23.105C18.0298 23.1783 17.977 23.247 17.918 23.31C17.708 23.535 17.398 23.6525 16.778 23.8925C15.693 24.3125 15.148 24.5225 15.073 24.8625C15.0529 24.9531 15.0529 25.0469 15.073 25.1375C15.148 25.4775 15.693 25.6875 16.778 26.1075Z" fill="#263238"/>
</svg>
