<svg width="41" height="50" viewBox="0 0 41 50" fill="none" xmlns="http://www.w3.org/2000/svg">
<path fill-rule="evenodd" clip-rule="evenodd" d="M4.68786 49.43C6.06536 50 7.81286 50 11.3079 50H13.1829C14.2179 50 15.0579 49.16 15.0579 48.125V47.5C15.0579 46.1739 15.5846 44.9021 16.5223 43.9645C17.46 43.0268 18.7318 42.5 20.0579 42.5C21.3839 42.5 22.6557 43.0268 23.5934 43.9645C24.5311 44.9021 25.0579 46.1739 25.0579 47.5V48.125C25.0579 48.6223 25.2554 49.0992 25.607 49.4508C25.9587 49.8025 26.4356 50 26.9329 50H28.8079C32.3029 50 34.0504 50 35.4279 49.43C36.3381 49.0531 37.1651 48.5005 37.8618 47.8039C38.5584 47.1073 39.1109 46.2802 39.4879 45.37C40.0579 43.9925 40.0579 42.245 40.0579 38.75V11.25C40.0579 7.755 40.0579 6.0075 39.4879 4.63C39.1109 3.71977 38.5584 2.89273 37.8618 2.1961C37.1651 1.49947 36.3381 0.946918 35.4279 0.570002C34.0504 1.57457e-06 32.3029 1.96685e-06 28.8079 1.96685e-06L26.9329 8.42937e-07C26.4356 8.42937e-07 25.9587 0.197542 25.607 0.549173C25.2554 0.900804 25.0579 1.37772 25.0579 1.875V2.5C25.0579 3.82608 24.5311 5.09785 23.5934 6.03553C22.6557 6.97322 21.3839 7.5 20.0579 7.5C18.7318 7.5 17.46 6.97322 16.5223 6.03553C15.5846 5.09785 15.0579 3.82608 15.0579 2.5V1.875C15.0579 1.37772 14.8603 0.900804 14.5087 0.549174C14.1571 0.197543 13.6801 1.12392e-06 13.1829 1.12392e-06L11.3079 0C7.81286 0 6.06536 3.59413e-06 4.68786 0.570004C3.77763 0.94692 2.95058 1.49947 2.25396 2.1961C1.55733 2.89273 1.00478 3.71977 0.627861 4.63C0.0578609 6.0075 0.0578613 7.755 0.0578613 11.25L0.0578616 38.75C0.0578616 42.245 0.0578621 43.9925 0.627862 45.37C1.00478 46.2802 1.55733 47.1073 2.25396 47.8039C2.95058 48.5005 3.77764 49.0531 4.68786 49.43ZM16.7779 26.1075C17.3979 26.3475 17.7079 26.4675 17.9179 26.69C17.9768 26.7522 18.0295 26.8201 18.0754 26.8925C18.2354 27.1525 18.2654 27.475 18.3254 28.12C18.4254 29.2125 18.4779 29.7575 18.8004 29.925C18.8678 29.9598 18.9404 29.9835 19.0154 29.995C19.3779 30.05 19.7579 29.65 20.5154 28.845L20.7254 28.6225C21.0804 28.2475 21.2579 28.06 21.4779 27.95C21.6118 27.8852 21.7553 27.8421 21.9029 27.8225C22.1479 27.7875 22.4029 27.8425 22.9179 27.9525L23.1029 27.9925C24.0254 28.19 24.4854 28.2875 24.7129 28.165C24.8121 28.1125 24.8961 28.0351 24.9565 27.9405C25.017 27.8458 25.0519 27.7371 25.0579 27.625C25.0704 27.375 24.7729 27.0225 24.1754 26.315C23.7804 25.8525 23.5854 25.62 23.5079 25.36C23.438 25.1251 23.438 24.8749 23.5079 24.64C23.5829 24.38 23.7829 24.1475 24.1754 23.6825C24.7729 22.9775 25.0704 22.625 25.0579 22.375C25.0519 22.2629 25.017 22.1542 24.9565 22.0595C24.8961 21.9649 24.8121 21.8875 24.7129 21.835C24.4879 21.7125 24.0254 21.81 23.1029 22.01L22.9179 22.0475C22.4054 22.1575 22.1479 22.2125 21.9029 22.1775C21.7553 22.1579 21.6118 22.1148 21.4779 22.05C21.2579 21.94 21.0779 21.7525 20.7279 21.3775L20.5154 21.1525C19.7579 20.3525 19.3779 19.95 19.0154 20.005C18.9404 20.0165 18.8678 20.0402 18.8004 20.075C18.4779 20.2425 18.4254 20.7875 18.3254 21.88C18.2654 22.525 18.2354 22.8475 18.0754 23.105C18.0297 23.1783 17.9769 23.247 17.9179 23.31C17.7079 23.535 17.3979 23.6525 16.7779 23.8925C15.6929 24.3125 15.1479 24.5225 15.0729 24.8625C15.0528 24.9531 15.0528 25.0469 15.0729 25.1375C15.1479 25.4775 15.6929 25.6875 16.7779 26.1075Z" fill="url(#paint0_linear_546_6099)"/>
<defs>
<linearGradient id="paint0_linear_546_6099" x1="-1.06957" y1="-2.20822" x2="47.4769" y2="3.5646" gradientUnits="userSpaceOnUse">
<stop stop-color="#81E0FF"/>
<stop offset="1" stop-color="#D4F465"/>
</linearGradient>
</defs>
</svg>
