<svg width="143" height="40" viewBox="0 0 143 40" fill="none" xmlns="http://www.w3.org/2000/svg">
<path d="M18.11 15.9161L27.8181 10.3111L31.6175 16.8918L38.1714 13.1079L30.6036 0L30.5572 0.0267824L30.5418 1.93982e-05L10.8323 11.3793L7.03246 4.79784L0.478516 8.58176L8.01953 21.6432V40.0001H18.11V15.9161Z" fill="url(#paint0_linear_367_8691)"/>
<path d="M48.6453 34.3082V14.1273H53.4484L53.8116 18.0828C54.3498 16.6836 55.1301 15.6073 56.1526 14.8538C57.202 14.1004 58.507 13.7237 60.0677 13.7237C60.5251 13.7237 60.9422 13.7641 61.3189 13.8448C61.6956 13.9255 62.0051 14.0332 62.2472 14.1677L61.6014 18.8093C61.3324 18.7017 60.996 18.6209 60.5924 18.5671C60.2157 18.5133 59.7179 18.4864 59.099 18.4864C58.2918 18.4864 57.5114 18.6882 56.758 19.0918C56.0046 19.4685 55.3857 20.0605 54.9014 20.8678C54.417 21.6481 54.1749 22.6437 54.1749 23.8545V34.3082H48.6453Z" fill="white"/>
<path d="M74.6427 34.7118C72.517 34.7118 70.6604 34.2948 69.0728 33.4606C67.5121 32.6265 66.3013 31.4291 65.4402 29.8684C64.5792 28.3078 64.1487 26.4242 64.1487 24.2178C64.1487 22.0113 64.5792 20.1278 65.4402 18.5671C66.3013 17.0065 67.4987 15.8091 69.0324 14.9749C70.5931 14.1408 72.369 13.7237 74.3602 13.7237C76.4052 13.7237 78.1407 14.1408 79.5669 14.9749C80.993 15.7822 82.0827 16.8988 82.8362 18.325C83.5896 19.7242 83.9663 21.3252 83.9663 23.128C83.9663 23.6662 83.9528 24.1774 83.9259 24.6618C83.899 25.1461 83.8587 25.5766 83.8049 25.9533H67.7005V22.119H81.3831L78.7193 23.0877C78.7193 21.3925 78.3291 20.0874 77.5488 19.1726C76.7954 18.2577 75.719 17.8003 74.3198 17.8003C73.2973 17.8003 72.4094 18.0424 71.6559 18.5268C70.9294 19.0111 70.3778 19.7376 70.0011 20.7063C69.6244 21.6481 69.4361 22.8455 69.4361 24.2985C69.4361 25.7246 69.6379 26.9086 70.0415 27.8503C70.472 28.7652 71.064 29.4514 71.8174 29.9088C72.5977 30.3662 73.526 30.5949 74.6024 30.5949C75.7863 30.5949 76.7415 30.3662 77.468 29.9088C78.1946 29.4514 78.7596 28.819 79.1632 28.0118L83.5627 29.707C83.1322 30.7564 82.4729 31.6578 81.585 32.4112C80.7239 33.1646 79.688 33.7432 78.4771 34.1468C77.2932 34.5235 76.015 34.7118 74.6427 34.7118Z" fill="white"/>
<path d="M101.26 14.1273H106.992L99.323 34.3082H92.9459L85.2771 14.1273H91.2103L96.1748 30.0702L101.26 14.1273Z" fill="white"/>
<path d="M119.183 34.7118C117.057 34.7118 115.2 34.2948 113.613 33.4606C112.052 32.6265 110.841 31.4291 109.98 29.8684C109.119 28.3078 108.689 26.4242 108.689 24.2178C108.689 22.0113 109.119 20.1278 109.98 18.5671C110.841 17.0065 112.039 15.8091 113.572 14.9749C115.133 14.1408 116.909 13.7237 118.9 13.7237C120.945 13.7237 122.681 14.1408 124.107 14.9749C125.533 15.7822 126.623 16.8988 127.376 18.325C128.129 19.7242 128.506 21.3252 128.506 23.128C128.506 23.6662 128.493 24.1774 128.466 24.6618C128.439 25.1461 128.399 25.5766 128.345 25.9533H112.24V22.119H125.923L123.259 23.0877C123.259 21.3925 122.869 20.0874 122.089 19.1726C121.335 18.2577 120.259 17.8003 118.86 17.8003C117.837 17.8003 116.949 18.0424 116.196 18.5268C115.469 19.0111 114.918 19.7376 114.541 20.7063C114.164 21.6481 113.976 22.8455 113.976 24.2985C113.976 25.7246 114.178 26.9086 114.581 27.8503C115.012 28.7652 115.604 29.4514 116.357 29.9088C117.138 30.3662 118.066 30.5949 119.142 30.5949C120.326 30.5949 121.281 30.3662 122.008 29.9088C122.734 29.4514 123.3 28.819 123.703 28.0118L128.103 29.707C127.672 30.7564 127.013 31.6578 126.125 32.4112C125.264 33.1646 124.228 33.7432 123.017 34.1468C121.833 34.5235 120.555 34.7118 119.183 34.7118Z" fill="white"/>
<path d="M138.641 5.28809V28.0925C138.641 29.0343 138.803 29.6935 139.125 30.0702C139.448 30.447 139.986 30.6353 140.74 30.6353C141.197 30.6353 141.574 30.6084 141.87 30.5546C142.166 30.4739 142.543 30.3662 143 30.2317L142.516 33.8643C142.058 34.1333 141.48 34.3351 140.78 34.4697C140.108 34.6311 139.435 34.7118 138.762 34.7118C136.798 34.7118 135.358 34.241 134.443 33.2992C133.556 32.3305 133.112 30.7968 133.112 28.6979V5.28809H138.641Z" fill="white"/>
<defs>
<linearGradient id="paint0_linear_367_8691" x1="44.3405" y1="12.3598" x2="48.9444" y2="38.8027" gradientUnits="userSpaceOnUse">
<stop stop-color="#81E0FF"/>
<stop offset="1" stop-color="#D4F465"/>
</linearGradient>
</defs>
</svg>
